<svg width="215" height="118" viewBox="0 0 215 118" fill="none" xmlns="http://www.w3.org/2000/svg">
<mask id="mask0_1184_110" style="mask-type:luminance" maskUnits="userSpaceOnUse" x="41" y="59" width="1" height="1">
<path d="M41.495 59.5947C41.4824 59.5694 41.4571 59.5567 41.4318 59.5441C41.4444 59.5567 41.4697 59.582 41.495 59.5947Z" fill="white"/>
</mask>
<g mask="url(#mask0_1184_110)">
<path d="M41.4946 59.5441V59.5947L41.4314 59.6073L41.4187 59.5441H41.4946Z" fill="url(#paint0_linear_1184_110)"/>
</g>
<mask id="mask1_1184_110" style="mask-type:luminance" maskUnits="userSpaceOnUse" x="1" y="20" width="19" height="32">
<path d="M6.96977 29.4873C6.93182 29.2721 6.91917 29.0823 6.93182 28.8925C6.96977 28.247 7.03303 27.589 7.04568 26.9435C7.07098 25.6527 6.98243 24.3745 6.59024 23.1342C6.41312 22.5521 6.1854 21.9826 5.80586 21.489C5.75526 21.5396 5.7173 21.5523 5.70465 21.5903C5.65405 21.7421 5.60344 21.894 5.55284 22.0585C5.05944 23.7037 4.70521 25.3869 4.54074 27.0954C4.33832 29.2468 4.35097 31.3983 4.92028 33.5117C4.98353 33.7648 4.99618 33.9926 4.88232 34.2457C3.68046 37.1059 2.78222 40.0546 2.12435 43.0793C2.02314 43.5475 1.92193 44.0158 1.83338 44.4967C1.75747 45.294 1.71951 46.0913 1.70686 46.8886C1.69421 48.4452 1.88398 49.9765 2.20026 51.4825C2.5798 47.0404 3.85757 42.1554 4.55339 40.2824C5.26186 38.3714 6.1601 36.5743 7.36196 34.9165C7.52643 34.6887 7.72885 34.5748 7.96922 34.5115C7.84271 34.9038 7.7162 35.3721 7.61499 35.891L8.33611 34.4482C9.43676 33.208 10.6513 32.1702 12.1441 31.7273C13.3207 31.3856 15.5094 31.4109 16.9642 31.4236C17.736 31.4995 19.077 31.4995 19.8993 30.7655C19.4059 30.93 17.8878 30.8414 16.3696 30.7528C14.7376 30.6642 13.1056 30.563 12.7134 30.7781C11.2712 30.7528 9.82895 30.8794 8.38671 31.3476C8.44997 31.2337 8.53853 31.1705 8.61443 31.1072C9.48737 30.2719 10.3983 29.4746 11.2079 28.5887C12.1188 27.6016 12.9665 26.5765 13.7761 25.5135C14.6238 24.3998 15.3069 23.1849 15.7497 21.8434C15.8636 21.5017 15.9521 21.1347 16.0534 20.793C12.0556 22.7039 8.91806 25.4628 6.96977 29.4873Z" fill="white"/>
</mask>
<g mask="url(#mask1_1184_110)">
<path d="M26.4273 22.223L19.0517 55.3297L-4.80853 50.0144L2.57978 16.895L26.4273 22.223Z" fill="url(#paint1_radial_1184_110)"/>
</g>
<mask id="mask2_1184_110" style="mask-type:luminance" maskUnits="userSpaceOnUse" x="4" y="27" width="38" height="91">
<path d="M27.3509 27.5889C26.9587 28.0699 25.9846 29.8037 25.2255 30.3478C24.4665 30.892 22.8471 31.6387 22.8471 31.6387C22.8471 31.6387 22.3537 31.1704 22.1513 31.1072C21.9489 31.0439 21.6073 31.8412 21.2024 32.2335C20.7976 32.6132 20.4054 32.841 20.0132 33.0055C19.8741 33.0688 19.2415 33.0561 18.4065 33.0435C16.9643 33.0308 14.9148 33.0181 13.8015 33.3472C12.0429 33.8661 10.664 35.2202 9.38619 36.7768C8.12106 38.3334 7.47585 39.3332 6.93185 40.4596C6.4005 41.5859 5.81854 43.5981 5.11007 46.2937C4.40161 48.9894 4.3257 51.5458 5.11007 53.4567C5.89445 55.3551 6.29929 57.709 6.60292 59.4807C5.9324 62.9483 5.94506 67.0234 8.36144 72.6931C10.7652 78.3627 10.0567 78.3627 11.6128 82.1214C13.1816 85.8801 13.384 91.1701 13.9406 93.5366C14.4846 95.9032 14.8642 100.978 14.7883 102.75C14.6997 104.522 14.1557 104.901 14.5352 107.989C14.6618 109.065 14.8768 109.963 15.1045 110.697C15.1551 110.849 16.6859 115.848 17.698 117.013C18.7228 118.19 18.8746 113.545 18.6342 111.748C18.5457 110.622 18.533 108.761 19.2794 107.23C20.4181 104.863 22.6573 104.433 22.5308 102.37C22.4043 100.295 20.5825 101.358 20.0385 100.295C19.4945 99.2316 19.6969 94.8022 20.5699 92.6381C21.2657 90.9043 21.1898 86.8672 20.1397 83.5641L18.2167 78.6665C17.6221 75.9708 18.0649 73.3258 18.0902 72.0856C18.1914 68.7572 16.9896 65.1631 17.0781 64.3025C17.1414 63.5938 17.6221 62.7459 18.027 61.6955C18.1914 61.5436 19.1529 58.2658 18.1535 56.6839C17.9258 56.3169 17.6854 55.9625 17.4703 55.5829C16.066 53.153 13.8394 50.4827 14.2063 49.369C14.6871 47.8883 19.6843 44.5726 20.0259 44.3068C19.8108 44.7371 20.8102 54.4818 21.3922 57.2787C21.9868 60.1135 21.6832 64.5682 21.835 67.0487C21.9742 69.5292 22.0374 71.7692 21.7844 72.402C22.5055 72.5665 22.5561 71.9211 22.5561 71.9211C22.5561 71.9211 22.7838 74.7812 23.1001 74.9457C23.4164 75.1103 23.6062 73.9713 23.6062 73.9713C23.6062 73.9713 23.7706 74.1611 23.8971 73.9966C24.0237 73.8321 24.3146 73.0095 24.4032 72.7057C24.4918 72.4146 24.4665 71.6047 24.4032 70.9466C24.9092 71.8578 24.808 72.807 24.5297 73.5663C25.0611 74.1991 25.4659 73.1234 25.5671 72.5412C25.6683 71.9464 25.5418 70.4024 25.4279 70.1114C25.4659 70.1746 25.9593 71.2124 25.9593 71.6427C25.9593 72.0983 25.8201 72.5665 25.8201 72.5665C25.8201 72.5665 26.3894 73.0474 26.6931 72.2628C26.984 71.4781 26.3262 70.0734 26.1491 69.4912C25.9846 68.9091 25.9719 66.7323 25.5798 65.6693C25.1876 64.6062 25.1876 65.1124 25.099 64.2139C25.0864 64.1 25.0864 63.8595 25.0864 63.5305C25.2508 63.3913 25.4153 63.2647 25.5798 63.1255C25.5671 63.0876 25.5671 63.0622 25.5545 63.0243C25.39 63.1255 25.2382 63.2394 25.0737 63.3407C25.099 60.9488 25.3267 54.8109 25.137 53.9503C24.9092 52.9379 24.3779 52.4823 24.7701 51.242C25.1623 50.0018 25.6177 43.2944 25.6936 41.801C25.7822 40.333 25.1496 37.1565 25.137 37.0679C25.1749 37.1565 26.3388 40.333 26.1238 42.282C25.896 44.2562 25.39 51.0522 25.2508 51.4445C25.1117 51.8368 25.8201 53.191 25.8201 54.0895C25.8201 54.9881 25.6177 60.8855 25.7948 62.8344C25.9973 61.0627 26.2123 60.1262 26.2123 60.1262C26.2123 60.1262 26.9208 61.2525 26.9967 62.999C27.0853 64.7454 27.528 67.5423 29.6155 67.6562C28.1733 66.7576 28.4895 64.6948 28.7426 63.9861C29.4763 66.4413 30.6276 66.8336 30.577 67.6815C30.5264 68.5294 29.2233 71.0985 31.7283 72.6424C30.0962 71.263 30.577 69.1242 31.159 68.3522C31.7536 67.5929 32.0066 66.5425 31.5511 65.9604C31.0957 65.3655 31.0198 64.0494 31.9433 63.2521C32.0572 65.0618 31.3234 69.061 36.7381 69.9089C33.6639 69.0863 32.5379 66.0996 32.6518 64.7834C32.7657 63.4546 32.791 61.4044 32.171 60.721C33.3856 61.4297 34.929 62.999 34.9037 64.2392C34.8784 65.4794 36.7634 66.1249 36.7381 67.2259C36.7128 68.3269 36.0044 68.0738 36.3966 68.9217C36.599 68.1877 37.3834 68.0232 37.4972 67.112C37.6111 66.2135 37.2948 65.7579 36.7128 65.0492C36.1182 64.3405 35.5616 62.7965 35.4477 61.6955C35.3465 60.6451 33.8031 59.1137 33.4868 58.8733C35.726 60.4173 37.2315 62.2523 37.0797 63.7836C36.9279 65.3276 37.9021 66.3274 37.9021 66.3274C37.9021 66.3274 37.2821 65.0239 37.5984 64.2139C37.9021 63.3913 37.94 61.1386 37.0038 59.9237C36.0803 58.7088 35.6754 57.0256 35.6501 56.0638C36.0676 57.8102 36.7255 59.139 37.649 59.62C38.1171 59.8604 38.9648 59.7339 39.7491 59.6073C40.4703 59.4934 41.1408 59.3795 41.4064 59.544C40.369 58.7467 38.3322 59.3289 37.6996 58.6708C37.0544 58.0001 35.8905 55.6588 36.346 54.1908C36.9026 56.165 37.6364 56.8737 37.6364 56.8737C37.6364 56.8737 37.0671 55.4057 37.105 54.1908C37.1303 52.9758 35.8905 50.8117 35.7513 49.5335C35.6754 48.7995 35.8146 47.9896 35.9538 47.4327C35.8146 48.2427 35.8146 49.6474 37.0291 51.1155C38.8889 53.3682 39.7618 54.7223 39.3949 55.6588C39.028 56.5953 38.4334 57.0382 38.9142 57.7976C39.1672 56.7598 39.5088 56.4941 40.2425 55.8866C40.9763 55.2665 40.698 53.4314 39.5088 52.3051C38.3322 51.1788 36.4092 49.04 37.0797 47.0278C37.4719 48.5211 39.7238 50.913 39.7238 50.913C39.7238 50.913 37.8135 47.6479 37.3327 45.4711C36.6622 43.0539 36.8394 41.4087 37.0671 40.5102C37.2948 39.5863 37.4593 38.6372 37.4846 37.688C37.5352 36.3972 37.4846 35.1696 37.1809 34.6507C36.5863 33.6129 35.9158 33.208 35.1188 33.2459C34.4103 33.2713 32.5379 33.5497 31.9054 33.7268C32.462 33.5497 34.2459 32.9802 35.3592 32.9802C34.4609 31.8665 34.2585 31.6134 34.0434 31.5248C33.8284 31.4362 33.4741 31.3223 33.1705 31.1325C32.8542 30.93 32.5885 30.4744 32.4494 30.3352C32.3102 30.196 31.9813 29.0696 31.7536 28.8671C31.627 28.7659 31.3867 28.9684 31.159 29.1709C30.9565 29.3481 30.7668 29.5252 30.6656 29.4999C30.4378 29.462 30.0709 28.9178 29.78 28.6773C29.5775 28.5128 29.5522 28.5128 29.4763 28.5128C29.4384 28.5128 29.4004 28.5128 29.3245 28.5001C29.0968 28.4622 29.1095 28.247 28.8817 28.1711C28.3251 27.7155 27.9708 27.3991 27.6672 27.3991C27.5913 27.3738 27.4648 27.4497 27.3509 27.5889Z" fill="white"/>
</mask>
<g mask="url(#mask2_1184_110)">
<path d="M60.7248 31.6893L39.6732 126.074L-14.9548 113.887L6.09684 19.4894L60.7248 31.6893Z" fill="url(#paint2_radial_1184_110)"/>
</g>
<mask id="mask3_1184_110" style="mask-type:luminance" maskUnits="userSpaceOnUse" x="12" y="20" width="26" height="11">
<path d="M23.9351 21.7927C21.7591 22.9317 19.6463 24.1973 17.5462 25.4628C15.9269 26.4246 14.3961 27.513 13.0171 28.8038C12.8906 28.9177 12.7894 29.0443 12.6122 29.2468C13.5358 29.3101 14.3455 29.3733 15.1551 29.4366C16.7871 29.5505 18.4065 29.7404 20.0006 30.0441C20.2156 29.7277 20.3927 29.4493 20.5066 29.4872C20.709 29.5505 21.2024 30.0188 21.2024 30.0188C21.2024 30.0188 22.8218 29.2721 23.5809 28.7279C24.3399 28.1837 25.3141 26.4499 25.7063 25.969C26.0985 25.4881 26.478 25.8678 27.2877 26.5259C27.3636 26.5512 27.4142 26.5891 27.4521 26.6398C27.4521 26.6398 27.7052 26.6524 28.1226 26.6271C28.4389 26.6271 28.7552 26.6271 29.0588 26.5638C31.0324 26.3993 34.4609 25.8045 37.2568 23.767C36.1815 24.4377 32.1457 24.9819 31.0957 25.1211C31.7156 24.3618 32.1963 23.5265 32.3735 22.5267C32.5632 21.451 32.0825 20.6158 31.0451 20.312C30.7035 20.2108 30.3366 20.1728 29.9824 20.1602C29.9571 20.1602 29.9318 20.1602 29.9191 20.1602C27.7811 20.1602 25.7948 20.8309 23.9351 21.7927Z" fill="white"/>
</mask>
<g mask="url(#mask3_1184_110)">
<path d="M39.3696 20.6285L36.1056 35.2709L10.5122 29.5632L13.7762 14.9082L39.3696 20.6285Z" fill="url(#paint3_radial_1184_110)"/>
</g>
<mask id="mask4_1184_110" style="mask-type:luminance" maskUnits="userSpaceOnUse" x="0" y="0" width="7" height="34">
<path d="M5.33776 0.721362C3.80696 2.29064 2.82017 4.20162 2.08639 6.23915C1.02369 9.21319 0.656806 12.3138 0.606201 15.4523C0.580899 17.1735 0.631504 18.8946 0.833924 20.6031C1.0996 22.9191 1.46648 25.2224 1.89663 27.513C2.26351 29.4746 2.79486 31.4109 3.23766 33.3725C3.26296 33.3598 3.28826 33.3472 3.31356 33.3345C3.08584 31.5628 2.84547 29.791 2.6557 28.0192C2.49123 26.5512 2.36472 25.0705 2.23821 23.5898C2.17495 22.8178 2.14965 22.0332 2.09905 21.2612C1.95988 18.6668 2.01049 16.0851 2.46593 13.5287C2.51654 13.2629 2.60509 12.9972 2.681 12.7314C2.73161 12.7314 2.76956 12.7441 2.82017 12.7441C2.80751 14.0096 2.88342 15.2625 3.225 16.4774C3.57924 17.7177 4.11059 18.8693 5.08473 19.8818C4.07264 16.5534 3.7184 13.2376 3.94612 9.84596C4.17385 6.45429 4.97087 3.18918 6.17274 0C5.88176 0.215143 5.59078 0.455597 5.33776 0.721362Z" fill="white"/>
</mask>
<g mask="url(#mask4_1184_110)">
<path d="M13.27 1.56928L5.91968 34.5621L-6.51648 31.7779L0.846535 -1.20227L13.27 1.56928Z" fill="url(#paint4_radial_1184_110)"/>
</g>
<mask id="mask5_1184_110" style="mask-type:luminance" maskUnits="userSpaceOnUse" x="14" y="9" width="15" height="14">
<path d="M18.065 10.9217C17.9638 11.4279 17.9258 11.9594 17.8499 12.4783C17.4957 14.8449 16.686 17.0216 15.1425 18.8946C14.9148 19.1731 14.6745 19.4641 14.4341 19.7426C14.4467 19.7679 14.4594 19.7932 14.472 19.8311C15.7245 19.4768 16.9896 19.1098 18.356 18.7175C17.8626 20.1602 17.4071 21.5017 16.9517 22.8431C16.977 22.8685 17.0149 22.8938 17.0402 22.9191C17.1288 22.8685 17.23 22.8305 17.3186 22.7799C19.7602 21.3878 22.3411 20.3121 25.0485 19.5654C25.5672 19.4262 26.0985 19.3123 26.6172 19.1477C27.6167 18.8061 28.4263 17.9834 28.3251 16.6293C28.2745 15.9206 28.0215 15.2878 27.6167 14.7183C26.8323 13.6047 25.7443 12.9339 24.4539 12.5796C24.2008 12.5163 24.0237 12.4403 23.9352 12.124C23.505 10.5041 22.3917 9.51693 20.7976 9.14992C20.5446 9.08664 20.3169 9.06133 20.1018 9.06133C19.0265 9.04868 18.3054 9.71942 18.065 10.9217Z" fill="white"/>
</mask>
<g mask="url(#mask5_1184_110)">
<path d="M31.3741 9.70671L27.7685 25.8804L11.4864 22.2483L15.092 6.07458L31.3741 9.70671Z" fill="url(#paint5_radial_1184_110)"/>
</g>
<mask id="mask6_1184_110" style="mask-type:luminance" maskUnits="userSpaceOnUse" x="5" y="7" width="12" height="18">
<path d="M8.34883 24.6149C10.9044 22.995 12.8527 20.8309 14.2316 18.1606C15.598 15.503 16.1673 12.6681 16.142 9.71941C14.257 8.80821 12.0556 9.1246 10.626 10.5673C9.98083 11.2254 9.51274 11.9847 9.12055 12.8073C9.04464 12.9592 8.96874 13.0984 8.89283 13.2376L8.76632 13.1997C8.19701 11.2254 7.90603 9.2385 8.50064 7.21362C4.50285 12.9845 5.35049 19.8818 8.34883 24.6149Z" fill="white"/>
</mask>
<g mask="url(#mask6_1184_110)">
<path d="M19.8615 8.03623L15.6107 27.0954L0.796143 23.7923L5.04696 4.73315L19.8615 8.03623Z" fill="url(#paint6_radial_1184_110)"/>
</g>
<mask id="mask7_1184_110" style="mask-type:luminance" maskUnits="userSpaceOnUse" x="37" y="23" width="1" height="1">
<path d="M37.2695 23.7669C37.3201 23.7416 37.3581 23.7037 37.396 23.6783C37.3581 23.7037 37.3075 23.729 37.2695 23.7669Z" fill="white"/>
</mask>
<g mask="url(#mask7_1184_110)">
<path d="M37.4213 23.6783L37.396 23.7922L37.2442 23.7543L37.2822 23.6404L37.4213 23.6783Z" fill="url(#paint7_radial_1184_110)"/>
</g>
<mask id="mask8_1184_110" style="mask-type:luminance" maskUnits="userSpaceOnUse" x="158" y="35" width="17" height="34">
<path d="M158.481 35.1063V35.891H159.025C160.885 36.0808 160.986 37.1185 160.935 38.2955V64.8847C160.935 66.6058 160.341 67.479 159.126 67.479H158.481V68.3143H174.965V59.9237H174.08C173.738 63.1129 173.005 65.2264 171.967 66.1502C170.993 66.9855 170.196 67.2259 168.88 67.2259H166.679C165.895 67.2259 165.502 66.783 165.502 65.8465V49.3817L166.135 49.3311C168.728 49.3311 170.057 50.1663 170.057 51.7862C170.057 53.0138 169.171 53.8997 167.805 53.8997C168.4 54.3427 169.083 54.5831 169.918 54.5831C171.929 54.5831 173.055 53.2037 173.055 51.685C173.055 49.4703 170.411 48.2047 167.312 48.2047C166.97 48.2047 166.375 48.2047 165.502 48.2554V36.182H168.248C171.777 36.182 173.106 38.5866 173.498 42.5604H174.384V35.1063H158.481Z" fill="white"/>
</mask>
<g mask="url(#mask8_1184_110)">
<path d="M174.75 33.246L178.71 67.8967L158.696 70.1873L154.736 35.5366L174.75 33.246Z" fill="url(#paint8_radial_1184_110)"/>
</g>
<mask id="mask9_1184_110" style="mask-type:luminance" maskUnits="userSpaceOnUse" x="177" y="34" width="19" height="36">
<path d="M182.075 37.0046C180.696 38.422 180.013 40.1432 180.013 42.1554C180.013 43.7753 180.608 45.4458 181.139 46.5721C181.43 47.1163 181.873 47.6985 182.518 48.4325L184.036 50.0018L185.845 51.6217C186.68 52.3557 187.262 52.8493 187.566 53.1403L188.401 53.9756C188.743 54.3046 189.059 54.6337 189.35 54.9627C191.21 57.0635 192.133 59.2276 192.133 61.4423C192.133 63.4545 191.501 65.0745 190.172 66.4033C188.894 67.7321 187.376 68.3649 185.567 68.3649C183.265 68.3649 181.443 67.6309 180.077 66.1122C178.66 64.5935 177.964 62.7712 177.964 60.5691C177.964 58.848 178.495 57.342 179.583 56.0891C179.684 55.9625 179.697 55.7853 179.608 55.6461C179.533 55.5575 179.431 55.4943 179.317 55.4943C179.229 55.4943 179.128 55.5322 179.064 55.6082C177.863 56.8484 177.281 58.443 177.281 60.4299C177.281 62.9357 178.065 65.0365 179.634 66.707C181.203 68.3269 183.214 69.1622 185.668 69.1622C188.566 69.1115 190.817 68.0865 192.538 66.0742C194.259 64.062 195.081 61.6069 195.081 58.81C195.081 58.7594 195.081 58.7087 195.068 58.6328V58.5822C195.056 58.4556 195.03 58.3038 195.03 58.2278L194.954 57.2534C194.461 54.0136 192.424 51.4951 189.337 48.8501C187.136 46.9898 185.567 45.4205 184.58 44.1929C183.594 42.9653 183.113 41.5479 183.113 39.9786C183.113 37.8272 184.884 36.0048 187.237 36.0048C188.755 36.0048 189.881 36.6376 190.628 37.9158C191.361 39.1434 191.855 40.5608 192.007 42.1807H192.943V35.5619C190.64 35.1189 188.869 34.8785 187.591 34.8785C185.264 34.8405 183.454 35.5745 182.075 37.0046Z" fill="white"/>
</mask>
<g mask="url(#mask9_1184_110)">
<path d="M194.84 32.8409L198.939 68.6939L177.496 71.1491L173.397 35.2834L194.84 32.8409Z" fill="url(#paint9_radial_1184_110)"/>
</g>
<mask id="mask10_1184_110" style="mask-type:luminance" maskUnits="userSpaceOnUse" x="197" y="34" width="18" height="36">
<path d="M201.811 37.0046C200.432 38.422 199.749 40.1432 199.749 42.1554C199.749 43.7753 200.344 45.4458 200.875 46.5721C201.166 47.1163 201.609 47.6985 202.254 48.4325L203.772 50.0018L205.581 51.6217C206.416 52.3557 206.998 52.8493 207.302 53.1403L208.137 53.9756C208.479 54.3046 208.795 54.6337 209.086 54.9627C210.946 57.0635 211.869 59.2276 211.869 61.4423C211.869 63.4545 211.236 65.0745 209.908 66.4033C208.63 67.7321 207.112 68.3649 205.303 68.3649C203.001 68.3649 201.179 67.6309 199.812 66.1122C198.395 64.5935 197.7 62.7712 197.7 60.5691C197.7 58.848 198.231 57.342 199.319 56.0891C199.42 55.9625 199.433 55.7853 199.344 55.6461C199.268 55.5575 199.167 55.4943 199.053 55.4943C198.965 55.4943 198.864 55.5322 198.8 55.6082C197.598 56.8484 197.017 58.443 197.017 60.4299C197.017 62.9357 197.801 65.0365 199.37 66.707C200.938 68.3269 202.95 69.1622 205.404 69.1622C208.301 69.1115 210.553 68.0865 212.274 66.0742C213.994 64.062 214.817 61.6069 214.817 58.81C214.817 58.7594 214.817 58.7087 214.804 58.6328V58.5822C214.791 58.4556 214.766 58.3038 214.766 58.2278L214.69 57.2534C214.197 54.0136 212.16 51.4951 209.073 48.8501C206.872 46.9898 205.29 45.4205 204.316 44.1929C203.329 42.9653 202.849 41.5479 202.849 39.9786C202.849 37.8272 204.62 36.0048 206.973 36.0048C208.491 36.0048 209.617 36.6376 210.364 37.9158C211.097 39.1434 211.591 40.5608 211.743 42.1807H212.679V35.5619C210.376 35.1189 208.605 34.8785 207.327 34.8785C204.999 34.8405 203.19 35.5745 201.811 37.0046Z" fill="white"/>
</mask>
<g mask="url(#mask10_1184_110)">
<path d="M214.576 32.8409L218.675 68.6939L197.244 71.1491L193.145 35.2834L214.576 32.8409Z" fill="url(#paint10_radial_1184_110)"/>
</g>
<mask id="mask11_1184_110" style="mask-type:luminance" maskUnits="userSpaceOnUse" x="48" y="33" width="31" height="36">
<path d="M53.3366 38.8397C50.1485 42.2693 48.5291 46.395 48.5291 51.2041C48.5291 56.165 50.0979 60.3287 53.2354 63.7583C56.4235 67.15 60.396 68.8585 65.2034 68.8585C66.7722 68.8585 68.3409 68.5168 69.9097 67.8714C71.529 67.188 72.5538 66.8463 72.9966 66.8463C74.8563 66.9475 75.16 68.2257 75.1093 68.3143H76.0961V52.6215C76.0961 51.5964 76.5389 50.9004 77.4245 50.6093L78.0571 50.3688V49.3437L66.5318 53.2163C64.2293 54.001 63.1033 55.1779 63.1033 56.7978C63.1033 58.3671 64.2799 59.3542 65.6968 59.3542C67.0758 59.3542 68.2018 58.4683 68.2018 56.9497C68.2018 56.3169 67.8096 55.5702 67.0758 55.5323C67.1264 55.6841 67.177 55.8233 67.177 55.9752C67.177 56.57 66.8354 56.8611 66.1902 56.8611C65.7474 56.8611 65.3046 56.4182 65.3046 55.9752C65.3046 55.3424 65.7474 54.7983 66.5824 54.4059L67.2656 54.1149C68.2524 53.7225 69.6693 53.229 70.2133 53.229C71.1495 53.229 71.4405 53.6213 71.4405 55.431V63.037C71.4405 65.9351 68.9861 67.555 65.6083 67.555C61.484 67.555 58.1567 65.5934 56.3349 62.5054C54.5258 59.3669 53.5896 55.7348 53.5896 51.8116C53.5896 47.8377 54.5258 43.9145 56.2843 40.5735C58.0934 37.2325 61.484 34.9798 65.6462 34.9798C67.8096 34.9798 69.6693 35.524 71.1875 36.6503C72.7562 37.7766 73.5406 39.2953 73.5406 41.3075C73.5406 42.3959 73.3255 44.1044 72.2881 45.2181C72.2881 45.2434 72.3008 45.256 72.3008 45.2813C72.3008 46.1166 72.3387 46.9392 72.4905 47.7492C72.8448 47.4834 73.1611 47.1923 73.452 46.8506C74.6792 45.4332 75.3118 43.7121 75.3118 41.8011C75.3118 39.2447 74.325 37.2324 72.364 35.815C70.4031 34.3976 68.1512 33.6509 65.6462 33.6509C60.6996 33.6383 56.5753 35.3594 53.3366 38.8397Z" fill="white"/>
</mask>
<g mask="url(#mask11_1184_110)">
<path d="M77.6776 30.3098L82.0296 68.4155L48.9087 72.1994L44.5567 34.0938L77.6776 30.3098Z" fill="url(#paint11_radial_1184_110)"/>
</g>
<mask id="mask12_1184_110" style="mask-type:luminance" maskUnits="userSpaceOnUse" x="61" y="39" width="11" height="11">
<path d="M61.6231 43.3577C61.6231 46.8886 64.5202 49.002 68.2017 49.002C69.2644 49.002 70.2006 48.8375 71.023 48.5338C70.8458 47.7491 70.7573 46.9519 70.7193 46.1546C70.3651 46.2558 69.9729 46.3064 69.5175 46.3064C67.3541 46.3064 65.9878 44.7371 65.9878 42.8262C65.9878 41.3075 66.8734 40.0293 68.0499 39.8395L67.8475 39.637C67.6071 39.3965 66.8607 39.0422 66.0384 39.0422C63.6347 39.0295 61.6231 40.8519 61.6231 43.3577Z" fill="white"/>
</mask>
<g mask="url(#mask12_1184_110)">
<path d="M70.8965 37.9791L72.1489 48.8628L61.7496 50.0525L60.4972 39.1687L70.8965 37.9791Z" fill="url(#paint12_radial_1184_110)"/>
</g>
<mask id="mask13_1184_110" style="mask-type:luminance" maskUnits="userSpaceOnUse" x="77" y="35" width="22" height="34">
<path d="M82.2193 38.055C80.6 39.6749 79.3728 41.7378 78.5884 44.1423C77.8041 46.5469 77.4119 49.0527 77.4119 51.647C77.4119 53.0644 77.5637 54.6843 77.8041 56.4055L77.9559 57.0889C78.639 60.4679 79.8662 63.2647 81.6374 65.5301C83.4465 67.7448 85.7111 68.8711 88.4058 68.8711C90.9613 68.8711 93.0614 67.6942 94.782 65.3909C96.5026 63.037 97.6791 60.0882 98.3623 56.608L98.4635 56.1144C98.7545 54.4439 98.9063 52.824 98.9063 51.2041C98.9063 50.9257 98.9063 50.6472 98.8937 50.3688C97.2743 50.7105 95.5411 50.2676 94.1874 49.2678C94.2253 50.1916 94.238 51.1408 94.238 52.1406C94.238 53.8617 94.1368 55.6208 93.9976 57.5445L93.947 57.9874C93.2132 64.505 91.3915 67.7954 88.4058 67.7954C85.1165 67.7954 83.1049 64.7581 82.3711 58.6202L82.3205 58.1266C82.1687 56.5067 82.0802 54.5451 82.0802 52.1912C82.0802 43.9525 83.5983 36.5364 88.0136 36.5364C88.4058 36.5364 88.7474 36.6376 88.8992 36.6376C89.1396 36.6376 89.2408 36.5364 89.2408 36.2959C89.2408 35.8024 88.8486 35.5619 88.0136 35.5619C85.8123 35.5493 83.8893 36.3845 82.2193 38.055Z" fill="white"/>
</mask>
<g mask="url(#mask13_1184_110)">
<path d="M98.628 33.1321L102.664 68.4409L77.7028 71.2883L73.6671 35.9796L98.628 33.1321Z" fill="url(#paint13_radial_1184_110)"/>
</g>
<mask id="mask14_1184_110" style="mask-type:luminance" maskUnits="userSpaceOnUse" x="73" y="31" width="26" height="18">
<path d="M74.325 35.448C74.1479 35.6252 73.9834 35.815 73.8063 36.0049C73.9328 36.1567 74.034 36.3086 74.1352 36.4731C74.2111 36.3845 74.287 36.2833 74.3629 36.1947C76.5136 33.6889 79.4108 32.4613 83.0417 32.4613C87.3557 32.4613 90.3541 34.3723 91.9734 37.9538C93.0868 40.4216 93.7446 43.3071 94.0356 46.8759C95.0477 48.4199 97.0719 49.2678 98.8051 48.7616C98.5268 44.6612 97.502 41.0291 95.6549 37.8652C93.441 34.0939 89.4811 31.6387 84.2309 31.5881C80.1698 31.5755 76.8805 32.8537 74.325 35.448Z" fill="white"/>
</mask>
<g mask="url(#mask14_1184_110)">
<path d="M98.4888 28.7533L100.817 49.04L74.1352 52.09L71.82 31.8033L98.4888 28.7533Z" fill="url(#paint14_radial_1184_110)"/>
</g>
<mask id="mask15_1184_110" style="mask-type:luminance" maskUnits="userSpaceOnUse" x="70" y="37" width="4" height="13">
<path d="M70.5043 45.0662C70.5043 46.5848 70.77 48.0782 71.2887 49.4829C71.352 49.6474 71.5164 49.7234 71.6809 49.6728C71.858 49.6221 71.9466 49.4323 71.8833 49.2551C71.3899 47.9136 71.1369 46.5722 71.1369 45.2054C71.1369 42.4465 71.7948 40.0166 73.1231 37.8905C73.0219 37.688 72.9207 37.4855 72.7942 37.3083C71.2761 39.5357 70.5043 42.1048 70.5043 45.0662Z" fill="white"/>
</mask>
<g mask="url(#mask15_1184_110)">
<path d="M73.0852 37.0173L74.5275 49.5716L70.5423 50.0272L69.1001 37.4729L73.0852 37.0173Z" fill="url(#paint15_radial_1184_110)"/>
</g>
<mask id="mask16_1184_110" style="mask-type:luminance" maskUnits="userSpaceOnUse" x="91" y="36" width="12" height="15">
<path d="M93.7319 36.9793C92.1125 38.9409 91.2776 41.1429 91.2776 43.5981C91.2776 45.5091 91.9101 47.1796 93.2385 48.6982C94.5669 50.1663 96.1862 50.9129 97.9954 50.9129C100.994 50.9129 102.853 49.3437 102.853 47.3314C102.853 46.2051 101.968 45.3192 100.994 45.3192C100.209 45.3192 99.6147 45.6103 99.2225 46.2051C99.9563 46.357 100.298 46.8885 100.298 47.9263C100.298 49.1032 99.4123 49.9385 97.8435 49.9385C96.4266 49.9385 95.1488 49.3437 94.0608 48.1161C92.9981 46.8885 92.4541 45.3699 92.4541 43.4968C92.4541 41.3834 93.074 39.5104 94.3012 37.8652C94.2126 37.4728 94.1114 37.0805 93.9596 36.7135C93.8837 36.8021 93.8078 36.8907 93.7319 36.9793Z" fill="white"/>
</mask>
<g mask="url(#mask16_1184_110)">
<path d="M102.702 35.41L104.46 50.7232L91.4293 52.2165L89.6834 36.9034L102.702 35.41Z" fill="url(#paint16_radial_1184_110)"/>
</g>
<mask id="mask17_1184_110" style="mask-type:luminance" maskUnits="userSpaceOnUse" x="95" y="30" width="32" height="19">
<path d="M95.1488 35.4986C95.3133 35.8023 95.4525 36.1313 95.5663 36.4604C95.9712 36.0807 96.4266 35.701 96.9074 35.3467C99.9057 33.132 103.284 32.0563 107.155 32.0563C112.797 32.0563 116.719 34.1697 118.883 38.0929C120.135 40.333 120.957 42.8641 121.425 45.8254C122.311 47.825 124.588 49.3563 126.65 48.7109C126.17 43.2943 124.411 39.118 121.4 36.182C117.82 32.7017 113.202 30.9299 107.572 30.9299C103.005 30.9426 98.4635 32.4866 95.1488 35.4986Z" fill="white"/>
</mask>
<g mask="url(#mask17_1184_110)">
<path d="M126.246 27.3864L128.725 49.1285L95.5664 52.9251L93.0741 31.183L126.246 27.3864Z" fill="url(#paint17_radial_1184_110)"/>
</g>
<mask id="mask18_1184_110" style="mask-type:luminance" maskUnits="userSpaceOnUse" x="98" y="36" width="29" height="38">
<path d="M111.14 36.0934C110.988 38.5992 108.584 39.6749 105.649 39.8268V40.662C106.877 40.662 107.458 41.4973 107.458 43.2184V54.2034C104.814 54.4944 102.55 55.4816 100.741 57.1015C98.9189 58.7214 98.046 60.9741 98.046 63.8215C98.046 66.5172 99.1213 68.8205 101.285 70.8327C103.435 72.8449 106.143 73.832 109.432 73.832C116.251 73.832 121.691 69.6557 124.639 62.9863L124.841 62.4421C126.17 59.1517 126.802 55.6208 126.802 51.8495C126.802 51.3559 126.79 50.8623 126.777 50.3814C126.625 50.4194 126.473 50.4447 126.334 50.4574C124.803 50.8117 123.184 50.5206 121.868 49.6601C121.932 50.7231 121.957 51.8495 121.957 53.0264C121.957 55.2791 121.805 57.4432 121.463 59.5566L121.362 60.1514C120.73 63.9228 119.401 67.0234 117.44 69.3267C115.53 71.6806 112.785 72.8575 109.204 72.8575C106.408 72.8575 104.005 72.0223 101.892 70.3011C99.8298 68.58 98.8051 66.4792 98.8051 63.9228C98.8051 58.8226 102.145 55.2917 107.484 54.6969V64.9099C107.484 66.4792 107.193 67.5043 105.573 67.5043H104.979V68.3395H114.303V67.5043H113.809C112.139 67.3524 112 66.2767 112.038 64.9099V36.0934H111.14Z" fill="white"/>
</mask>
<g mask="url(#mask18_1184_110)">
<path d="M126.423 32.8409L131.04 73.3385L98.4128 77.0592L93.7951 36.5743L126.423 32.8409Z" fill="url(#paint18_radial_1184_110)"/>
</g>
<mask id="mask19_1184_110" style="mask-type:luminance" maskUnits="userSpaceOnUse" x="118" y="36" width="13" height="15">
<path d="M121.223 36.9793C119.604 38.9409 118.769 41.143 118.769 43.5981C118.769 45.5091 119.401 47.1796 120.73 48.6983C122.058 50.1663 123.677 50.913 125.486 50.913C128.485 50.913 130.345 49.3437 130.345 47.3315C130.345 46.2051 129.459 45.3193 128.485 45.3193C127.7 45.3193 127.106 45.6103 126.714 46.2051C127.447 46.357 127.789 46.8885 127.789 47.9263C127.789 49.1033 126.903 49.9385 125.335 49.9385C123.918 49.9385 122.64 49.3437 121.565 48.1161C120.489 46.8885 119.945 45.3699 119.945 43.5095C119.945 41.3961 120.565 39.5231 121.792 37.8778C121.704 37.4855 121.603 37.0932 121.451 36.7262C121.375 36.8021 121.286 36.8907 121.223 36.9793Z" fill="white"/>
</mask>
<g mask="url(#mask19_1184_110)">
<path d="M130.193 35.41L131.939 50.7232L118.921 52.2165L117.162 36.9034L130.193 35.41Z" fill="url(#paint19_radial_1184_110)"/>
</g>
<mask id="mask20_1184_110" style="mask-type:luminance" maskUnits="userSpaceOnUse" x="122" y="30" width="33" height="44">
<path d="M122.64 35.4986C122.804 35.8023 122.944 36.1314 123.057 36.4604C123.462 36.0808 123.918 35.7011 124.398 35.3467C127.397 33.132 130.775 32.0563 134.646 32.0563C140.288 32.0563 144.21 34.1698 146.374 38.093C148.524 41.9655 149.41 46.6734 149.41 53.0138C149.41 55.2665 149.258 57.4305 148.917 59.544L148.815 60.1388C148.183 63.9101 146.854 67.0107 144.893 69.314C142.983 71.668 140.238 72.8449 136.658 72.8449C133.862 72.8449 131.458 72.0097 129.345 70.2885C127.283 68.5674 126.258 66.4666 126.258 63.9101C126.258 58.81 129.598 55.2791 134.937 54.6843V64.8973C134.937 66.4666 134.646 67.4916 133.027 67.4916H132.432V68.3269H141.756V67.4916H141.263C139.593 67.3398 139.453 66.2641 139.491 64.8973V36.0934H138.606C138.454 38.5992 136.05 39.6749 133.115 39.8268V40.662C134.342 40.662 134.924 41.4973 134.924 43.2184V54.2034C132.28 54.4945 130.016 55.4816 128.206 57.1015C126.385 58.7214 125.512 60.9741 125.512 63.8216C125.512 66.5172 126.587 68.8205 128.751 70.8327C130.901 72.8449 133.609 73.832 136.885 73.832C143.704 73.832 149.144 69.6557 152.092 62.9863L152.294 62.4421C153.623 59.1517 154.255 55.6208 154.255 51.8495C154.255 44.889 152.446 39.6876 148.866 36.1947C145.286 32.7144 140.668 30.9426 135.038 30.9426C130.496 30.9426 125.942 32.4866 122.64 35.4986Z" fill="white"/>
</mask>
<g mask="url(#mask20_1184_110)">
<path d="M153.863 27.3738L159.114 73.2625L123.045 77.3882L117.807 31.4868L153.863 27.3738Z" fill="url(#paint20_radial_1184_110)"/>
</g>
<mask id="mask21_1184_110" style="mask-type:luminance" maskUnits="userSpaceOnUse" x="98" y="56" width="1" height="1">
<path d="M98.3622 56.5953L98.4635 56.1017L98.3622 56.5953Z" fill="white"/>
</mask>
<g mask="url(#mask21_1184_110)">
<path d="M98.4633 56.1017L98.5139 56.5953L98.3621 56.6079L98.3115 56.1143L98.4633 56.1017Z" fill="url(#paint21_radial_1184_110)"/>
</g>
<mask id="mask22_1184_110" style="mask-type:luminance" maskUnits="userSpaceOnUse" x="49" y="76" width="8" height="9">
<path d="M51.0593 77.9577H52.4636C53.21 77.9577 53.7667 78.0716 54.1209 78.312C54.4751 78.5525 54.6523 78.9448 54.6523 79.5143C54.6523 80.0838 54.5131 80.5141 54.2348 80.8052C53.9564 81.0962 53.4377 81.2481 52.666 81.2481H51.0593V77.9577ZM49.6677 76.7048V84.9182H51.0593V82.5137H52.5142C53.7161 82.5137 54.6143 82.2859 55.1963 81.8176C55.7782 81.3494 56.0692 80.628 56.0692 79.6282C56.0692 78.6284 55.7782 77.8944 55.2089 77.4135C54.6396 76.9326 53.7287 76.6921 52.4889 76.6921H49.6677V76.7048Z" fill="white"/>
</mask>
<g mask="url(#mask22_1184_110)">
<path d="M55.9806 75.9834L56.9927 84.8043L49.7562 85.6395L48.7441 76.806L55.9806 75.9834Z" fill="url(#paint22_radial_1184_110)"/>
</g>
<mask id="mask23_1184_110" style="mask-type:luminance" maskUnits="userSpaceOnUse" x="60" y="76" width="8" height="9">
<path d="M62.2557 77.9577H64.0142C64.7606 77.9577 65.2793 78.059 65.5703 78.2615C65.8613 78.464 66.0005 78.831 66.0005 79.3625C66.0005 79.894 65.8613 80.2863 65.583 80.5268C65.3046 80.7672 64.7733 80.8938 63.9889 80.8938H62.2683V77.9577H62.2557ZM60.8767 76.7048V84.9182H62.2683V82.1593H64.0901L66.0511 84.9182H67.8096L65.6589 81.9316C66.8354 81.5772 67.43 80.7293 67.43 79.3751C67.43 78.4386 67.1644 77.7679 66.6204 77.3376C66.0764 76.92 65.1781 76.7048 63.9257 76.7048H60.8767Z" fill="white"/>
</mask>
<g mask="url(#mask23_1184_110)">
<path d="M67.7083 75.9202L68.7204 84.8043L60.9652 85.6902L59.9405 76.806L67.7083 75.9202Z" fill="url(#paint23_radial_1184_110)"/>
</g>
<mask id="mask24_1184_110" style="mask-type:luminance" maskUnits="userSpaceOnUse" x="72" y="76" width="9" height="9">
<path d="M74.3249 82.8555C73.7683 82.2733 73.4899 81.5773 73.4899 80.742C73.4899 79.9194 73.7683 79.2107 74.3249 78.6286C74.8816 78.0464 75.5774 77.7553 76.3871 77.7553C77.1967 77.7553 77.8926 78.0464 78.4492 78.6286C79.0059 79.2107 79.2842 79.9068 79.2842 80.742C79.2842 81.5646 79.0059 82.2733 78.4492 82.8555C77.8926 83.4376 77.1967 83.7287 76.3871 83.7287C75.5647 83.7287 74.8816 83.4376 74.3249 82.8555ZM73.3128 77.7174C72.4778 78.5273 72.073 79.5398 72.073 80.742C72.073 81.957 72.4905 82.9567 73.3128 83.7667C74.1478 84.5766 75.1725 84.9816 76.3871 84.9816C77.6142 84.9816 78.639 84.5766 79.4613 83.7667C80.2963 82.9567 80.7011 81.9443 80.7011 80.742C80.7011 79.5271 80.2836 78.5273 79.4613 77.7174C78.6263 76.9074 77.6016 76.5024 76.3871 76.5024C75.1599 76.5024 74.1351 76.9074 73.3128 77.7174Z" fill="white"/>
</mask>
<g mask="url(#mask24_1184_110)">
<path d="M80.5999 75.528L81.6626 84.8804L72.1742 85.9687L71.1115 76.6163L80.5999 75.528Z" fill="url(#paint24_radial_1184_110)"/>
</g>
<mask id="mask25_1184_110" style="mask-type:luminance" maskUnits="userSpaceOnUse" x="84" y="76" width="9" height="9">
<path d="M90.9866 76.7048L88.4564 82.8301L85.9261 76.7048H84.3827L87.6847 84.9182H89.2281L92.5301 76.7048H90.9866Z" fill="white"/>
</mask>
<g mask="url(#mask25_1184_110)">
<path d="M92.4288 75.7809L93.4536 84.8042L84.4839 85.8293L83.4591 76.806L92.4288 75.7809Z" fill="url(#paint25_radial_1184_110)"/>
</g>
<mask id="mask26_1184_110" style="mask-type:luminance" maskUnits="userSpaceOnUse" x="96" y="76" width="7" height="9">
<path d="M96.8821 76.7048V84.9182H102.79V83.6021H98.2611V81.4127H102.196V80.1724H98.2611V78.0084H102.638V76.7048H96.8821Z" fill="white"/>
</mask>
<g mask="url(#mask26_1184_110)">
<path d="M102.714 76.0341L103.714 84.8043L96.958 85.5763L95.9459 76.806L102.714 76.0341Z" fill="url(#paint26_radial_1184_110)"/>
</g>
<mask id="mask27_1184_110" style="mask-type:luminance" maskUnits="userSpaceOnUse" x="107" y="76" width="9" height="9">
<path d="M113.885 76.7048V82.8301L109.116 76.7048H107.724V84.9182H109.116V78.9195L113.759 84.9182H115.264V76.7048H113.885Z" fill="white"/>
</mask>
<g mask="url(#mask27_1184_110)">
<path d="M115.176 75.8442L116.188 84.8043L107.825 85.7661L106.801 76.8061L115.176 75.8442Z" fill="url(#paint27_radial_1184_110)"/>
</g>
<mask id="mask28_1184_110" style="mask-type:luminance" maskUnits="userSpaceOnUse" x="119" y="76" width="10" height="9">
<path d="M123.93 78.3754L125.423 81.7544H122.438L123.93 78.3754ZM123.197 76.7048L119.578 84.9182H121.059L121.881 83.0452H125.993L126.815 84.9182H128.295L124.677 76.7048H123.197Z" fill="white"/>
</mask>
<g mask="url(#mask28_1184_110)">
<path d="M128.181 75.7177L129.219 84.8043L119.692 85.8927L118.655 76.806L128.181 75.7177Z" fill="url(#paint28_radial_1184_110)"/>
</g>
<mask id="mask29_1184_110" style="mask-type:luminance" maskUnits="userSpaceOnUse" x="132" y="76" width="9" height="9">
<path d="M138.758 76.7048V82.8301L133.988 76.7048H132.596V84.9182H133.988V78.9195L138.631 84.9182H140.137V76.7048H138.758Z" fill="white"/>
</mask>
<g mask="url(#mask29_1184_110)">
<path d="M140.048 75.8442L141.06 84.8043L132.698 85.7661L131.673 76.8061L140.048 75.8442Z" fill="url(#paint29_radial_1184_110)"/>
</g>
<mask id="mask30_1184_110" style="mask-type:luminance" maskUnits="userSpaceOnUse" x="145" y="76" width="8" height="9">
<path d="M146.31 77.7173C145.475 78.5273 145.058 79.5524 145.058 80.7673C145.058 81.9949 145.463 82.9947 146.285 83.792C147.107 84.5893 148.132 84.9942 149.372 84.9942C150.612 84.9942 151.662 84.5133 152.535 83.5515L151.637 82.6403C151.257 82.9947 150.903 83.2478 150.561 83.4123C150.22 83.5768 149.802 83.6528 149.334 83.6528C148.562 83.6528 147.904 83.3743 147.348 82.8175C146.791 82.2607 146.513 81.5646 146.513 80.7293C146.513 79.8941 146.791 79.2107 147.36 78.6791C147.93 78.1476 148.626 77.8692 149.448 77.8692C149.916 77.8692 150.321 77.9451 150.675 78.097C151.029 78.2489 151.396 78.502 151.788 78.8816L152.674 77.9198C151.826 76.9833 150.764 76.5151 149.486 76.5151C148.195 76.5024 147.145 76.9074 146.31 77.7173Z" fill="white"/>
</mask>
<g mask="url(#mask30_1184_110)">
<path d="M152.56 75.6418L153.623 84.893L145.159 85.8675L144.096 76.6163L152.56 75.6418Z" fill="url(#paint30_radial_1184_110)"/>
</g>
<mask id="mask31_1184_110" style="mask-type:luminance" maskUnits="userSpaceOnUse" x="157" y="76" width="7" height="9">
<path d="M157.406 76.7048V84.9182H163.314V83.6021H158.785V81.4127H162.719V80.1724H158.785V78.0084H163.174V76.7048H157.406Z" fill="white"/>
</mask>
<g mask="url(#mask31_1184_110)">
<path d="M163.238 76.0341L164.237 84.8043L157.481 85.5763L156.482 76.806L163.238 76.0341Z" fill="url(#paint31_radial_1184_110)"/>
</g>
<defs>
<linearGradient id="paint0_linear_1184_110" x1="36.3451" y1="1.97316" x2="47.5703" y2="128.402" gradientUnits="userSpaceOnUse">
<stop stop-color="#C88C4A"/>
<stop offset="0.5" stop-color="#945232"/>
<stop offset="1" stop-color="#713C25"/>
</linearGradient>
<radialGradient id="paint1_radial_1184_110" cx="0" cy="0" r="1" gradientUnits="userSpaceOnUse" gradientTransform="translate(27.4754 -8.01225) rotate(102.571) scale(144.225 144.181)">
<stop stop-color="#D49128"/>
<stop offset="0.0333333" stop-color="#D49128"/>
<stop offset="0.2472" stop-color="#BC7C2A"/>
<stop offset="0.3427" stop-color="#DEA826"/>
<stop offset="0.4101" stop-color="#EED067"/>
<stop offset="0.558" stop-color="#F1D578"/>
<stop offset="0.6828" stop-color="#DB9829"/>
<stop offset="0.6854" stop-color="#DB9727"/>
<stop offset="0.7928" stop-color="#C78529"/>
<stop offset="0.8884" stop-color="#E6B650"/>
<stop offset="1" stop-color="#BC6E29"/>
</radialGradient>
<radialGradient id="paint2_radial_1184_110" cx="0" cy="0" r="1" gradientUnits="userSpaceOnUse" gradientTransform="translate(27.4754 -8.01226) rotate(102.571) scale(144.225 144.181)">
<stop stop-color="#D49128"/>
<stop offset="0.0333333" stop-color="#D49128"/>
<stop offset="0.2472" stop-color="#BC7C2A"/>
<stop offset="0.3427" stop-color="#DEA826"/>
<stop offset="0.4101" stop-color="#EED067"/>
<stop offset="0.558" stop-color="#F1D578"/>
<stop offset="0.6828" stop-color="#DB9829"/>
<stop offset="0.6854" stop-color="#DB9727"/>
<stop offset="0.7928" stop-color="#C78529"/>
<stop offset="0.8884" stop-color="#E6B650"/>
<stop offset="1" stop-color="#BC6E29"/>
</radialGradient>
<radialGradient id="paint3_radial_1184_110" cx="0" cy="0" r="1" gradientUnits="userSpaceOnUse" gradientTransform="translate(27.4755 -8.01215) rotate(102.571) scale(144.225 144.181)">
<stop stop-color="#D49128"/>
<stop offset="0.0333333" stop-color="#D49128"/>
<stop offset="0.2472" stop-color="#BC7C2A"/>
<stop offset="0.3427" stop-color="#DEA826"/>
<stop offset="0.4101" stop-color="#EED067"/>
<stop offset="0.558" stop-color="#F1D578"/>
<stop offset="0.6828" stop-color="#DB9829"/>
<stop offset="0.6854" stop-color="#DB9727"/>
<stop offset="0.7928" stop-color="#C78529"/>
<stop offset="0.8884" stop-color="#E6B650"/>
<stop offset="1" stop-color="#BC6E29"/>
</radialGradient>
<radialGradient id="paint4_radial_1184_110" cx="0" cy="0" r="1" gradientUnits="userSpaceOnUse" gradientTransform="translate(27.4754 -8.0122) rotate(102.571) scale(144.225 144.181)">
<stop stop-color="#D49128"/>
<stop offset="0.0333333" stop-color="#D49128"/>
<stop offset="0.2472" stop-color="#BC7C2A"/>
<stop offset="0.3427" stop-color="#DEA826"/>
<stop offset="0.4101" stop-color="#EED067"/>
<stop offset="0.558" stop-color="#F1D578"/>
<stop offset="0.6828" stop-color="#DB9829"/>
<stop offset="0.6854" stop-color="#DB9727"/>
<stop offset="0.7928" stop-color="#C78529"/>
<stop offset="0.8884" stop-color="#E6B650"/>
<stop offset="1" stop-color="#BC6E29"/>
</radialGradient>
<radialGradient id="paint5_radial_1184_110" cx="0" cy="0" r="1" gradientUnits="userSpaceOnUse" gradientTransform="translate(27.4755 -8.01224) rotate(102.571) scale(144.225 144.181)">
<stop stop-color="#D49128"/>
<stop offset="0.0333333" stop-color="#D49128"/>
<stop offset="0.2472" stop-color="#BC7C2A"/>
<stop offset="0.3427" stop-color="#DEA826"/>
<stop offset="0.4101" stop-color="#EED067"/>
<stop offset="0.558" stop-color="#F1D578"/>
<stop offset="0.6828" stop-color="#DB9829"/>
<stop offset="0.6854" stop-color="#DB9727"/>
<stop offset="0.7928" stop-color="#C78529"/>
<stop offset="0.8884" stop-color="#E6B650"/>
<stop offset="1" stop-color="#BC6E29"/>
</radialGradient>
<radialGradient id="paint6_radial_1184_110" cx="0" cy="0" r="1" gradientUnits="userSpaceOnUse" gradientTransform="translate(27.4756 -8.01219) rotate(102.571) scale(144.225 144.181)">
<stop stop-color="#D49128"/>
<stop offset="0.0333333" stop-color="#D49128"/>
<stop offset="0.2472" stop-color="#BC7C2A"/>
<stop offset="0.3427" stop-color="#DEA826"/>
<stop offset="0.4101" stop-color="#EED067"/>
<stop offset="0.558" stop-color="#F1D578"/>
<stop offset="0.6828" stop-color="#DB9829"/>
<stop offset="0.6854" stop-color="#DB9727"/>
<stop offset="0.7928" stop-color="#C78529"/>
<stop offset="0.8884" stop-color="#E6B650"/>
<stop offset="1" stop-color="#BC6E29"/>
</radialGradient>
<radialGradient id="paint7_radial_1184_110" cx="0" cy="0" r="1" gradientUnits="userSpaceOnUse" gradientTransform="translate(27.4755 -8.01218) rotate(102.571) scale(144.225 144.18)">
<stop stop-color="#D49128"/>
<stop offset="0.0333333" stop-color="#D49128"/>
<stop offset="0.2472" stop-color="#BC7C2A"/>
<stop offset="0.3427" stop-color="#DEA826"/>
<stop offset="0.4101" stop-color="#EED067"/>
<stop offset="0.558" stop-color="#F1D578"/>
<stop offset="0.6828" stop-color="#DB9829"/>
<stop offset="0.6854" stop-color="#DB9727"/>
<stop offset="0.7928" stop-color="#C78529"/>
<stop offset="0.8884" stop-color="#E6B650"/>
<stop offset="1" stop-color="#BC6E29"/>
</radialGradient>
<radialGradient id="paint8_radial_1184_110" cx="0" cy="0" r="1" gradientUnits="userSpaceOnUse" gradientTransform="translate(118.33 -8.40781) rotate(83.4824) scale(111.89 111.854)">
<stop stop-color="#D49128"/>
<stop offset="0.0333333" stop-color="#D49128"/>
<stop offset="0.2472" stop-color="#BC7C2A"/>
<stop offset="0.3427" stop-color="#DEA826"/>
<stop offset="0.4101" stop-color="#EED067"/>
<stop offset="0.558" stop-color="#F1D578"/>
<stop offset="0.6828" stop-color="#DB9829"/>
<stop offset="0.6854" stop-color="#DB9727"/>
<stop offset="0.7928" stop-color="#C78529"/>
<stop offset="0.8884" stop-color="#E6B650"/>
<stop offset="1" stop-color="#BC6E29"/>
</radialGradient>
<radialGradient id="paint9_radial_1184_110" cx="0" cy="0" r="1" gradientUnits="userSpaceOnUse" gradientTransform="translate(118.33 -8.40786) rotate(83.4824) scale(111.89 111.854)">
<stop stop-color="#D49128"/>
<stop offset="0.0333333" stop-color="#D49128"/>
<stop offset="0.2472" stop-color="#BC7C2A"/>
<stop offset="0.3427" stop-color="#DEA826"/>
<stop offset="0.4101" stop-color="#EED067"/>
<stop offset="0.558" stop-color="#F1D578"/>
<stop offset="0.6828" stop-color="#DB9829"/>
<stop offset="0.6854" stop-color="#DB9727"/>
<stop offset="0.7928" stop-color="#C78529"/>
<stop offset="0.8884" stop-color="#E6B650"/>
<stop offset="1" stop-color="#BC6E29"/>
</radialGradient>
<radialGradient id="paint10_radial_1184_110" cx="0" cy="0" r="1" gradientUnits="userSpaceOnUse" gradientTransform="translate(118.33 -8.40788) rotate(83.4824) scale(111.89 111.854)">
<stop stop-color="#D49128"/>
<stop offset="0.0333333" stop-color="#D49128"/>
<stop offset="0.2472" stop-color="#BC7C2A"/>
<stop offset="0.3427" stop-color="#DEA826"/>
<stop offset="0.4101" stop-color="#EED067"/>
<stop offset="0.558" stop-color="#F1D578"/>
<stop offset="0.6828" stop-color="#DB9829"/>
<stop offset="0.6854" stop-color="#DB9727"/>
<stop offset="0.7928" stop-color="#C78529"/>
<stop offset="0.8884" stop-color="#E6B650"/>
<stop offset="1" stop-color="#BC6E29"/>
</radialGradient>
<radialGradient id="paint11_radial_1184_110" cx="0" cy="0" r="1" gradientUnits="userSpaceOnUse" gradientTransform="translate(118.33 -8.4079) rotate(83.4824) scale(111.89 111.854)">
<stop stop-color="#D49128"/>
<stop offset="0.0333333" stop-color="#D49128"/>
<stop offset="0.2472" stop-color="#BC7C2A"/>
<stop offset="0.3427" stop-color="#DEA826"/>
<stop offset="0.4101" stop-color="#EED067"/>
<stop offset="0.558" stop-color="#F1D578"/>
<stop offset="0.6828" stop-color="#DB9829"/>
<stop offset="0.6854" stop-color="#DB9727"/>
<stop offset="0.7928" stop-color="#C78529"/>
<stop offset="0.8884" stop-color="#E6B650"/>
<stop offset="1" stop-color="#BC6E29"/>
</radialGradient>
<radialGradient id="paint12_radial_1184_110" cx="0" cy="0" r="1" gradientUnits="userSpaceOnUse" gradientTransform="translate(118.33 -8.4078) rotate(83.4824) scale(111.89 111.854)">
<stop stop-color="#D49128"/>
<stop offset="0.0333333" stop-color="#D49128"/>
<stop offset="0.2472" stop-color="#BC7C2A"/>
<stop offset="0.3427" stop-color="#DEA826"/>
<stop offset="0.4101" stop-color="#EED067"/>
<stop offset="0.558" stop-color="#F1D578"/>
<stop offset="0.6828" stop-color="#DB9829"/>
<stop offset="0.6854" stop-color="#DB9727"/>
<stop offset="0.7928" stop-color="#C78529"/>
<stop offset="0.8884" stop-color="#E6B650"/>
<stop offset="1" stop-color="#BC6E29"/>
</radialGradient>
<radialGradient id="paint13_radial_1184_110" cx="0" cy="0" r="1" gradientUnits="userSpaceOnUse" gradientTransform="translate(118.33 -8.4078) rotate(83.4824) scale(111.89 111.854)">
<stop stop-color="#D49128"/>
<stop offset="0.0333333" stop-color="#D49128"/>
<stop offset="0.2472" stop-color="#BC7C2A"/>
<stop offset="0.3427" stop-color="#DEA826"/>
<stop offset="0.4101" stop-color="#EED067"/>
<stop offset="0.558" stop-color="#F1D578"/>
<stop offset="0.6828" stop-color="#DB9829"/>
<stop offset="0.6854" stop-color="#DB9727"/>
<stop offset="0.7928" stop-color="#C78529"/>
<stop offset="0.8884" stop-color="#E6B650"/>
<stop offset="1" stop-color="#BC6E29"/>
</radialGradient>
<radialGradient id="paint14_radial_1184_110" cx="0" cy="0" r="1" gradientUnits="userSpaceOnUse" gradientTransform="translate(118.33 -8.4078) rotate(83.4824) scale(111.89 111.854)">
<stop stop-color="#D49128"/>
<stop offset="0.0333333" stop-color="#D49128"/>
<stop offset="0.2472" stop-color="#BC7C2A"/>
<stop offset="0.3427" stop-color="#DEA826"/>
<stop offset="0.4101" stop-color="#EED067"/>
<stop offset="0.558" stop-color="#F1D578"/>
<stop offset="0.6828" stop-color="#DB9829"/>
<stop offset="0.6854" stop-color="#DB9727"/>
<stop offset="0.7928" stop-color="#C78529"/>
<stop offset="0.8884" stop-color="#E6B650"/>
<stop offset="1" stop-color="#BC6E29"/>
</radialGradient>
<radialGradient id="paint15_radial_1184_110" cx="0" cy="0" r="1" gradientUnits="userSpaceOnUse" gradientTransform="translate(118.33 -8.40777) rotate(83.4824) scale(111.89 111.854)">
<stop stop-color="#D49128"/>
<stop offset="0.0333333" stop-color="#D49128"/>
<stop offset="0.2472" stop-color="#BC7C2A"/>
<stop offset="0.3427" stop-color="#DEA826"/>
<stop offset="0.4101" stop-color="#EED067"/>
<stop offset="0.558" stop-color="#F1D578"/>
<stop offset="0.6828" stop-color="#DB9829"/>
<stop offset="0.6854" stop-color="#DB9727"/>
<stop offset="0.7928" stop-color="#C78529"/>
<stop offset="0.8884" stop-color="#E6B650"/>
<stop offset="1" stop-color="#BC6E29"/>
</radialGradient>
<radialGradient id="paint16_radial_1184_110" cx="0" cy="0" r="1" gradientUnits="userSpaceOnUse" gradientTransform="translate(118.33 -8.40784) rotate(83.4824) scale(111.89 111.854)">
<stop stop-color="#D49128"/>
<stop offset="0.0333333" stop-color="#D49128"/>
<stop offset="0.2472" stop-color="#BC7C2A"/>
<stop offset="0.3427" stop-color="#DEA826"/>
<stop offset="0.4101" stop-color="#EED067"/>
<stop offset="0.558" stop-color="#F1D578"/>
<stop offset="0.6828" stop-color="#DB9829"/>
<stop offset="0.6854" stop-color="#DB9727"/>
<stop offset="0.7928" stop-color="#C78529"/>
<stop offset="0.8884" stop-color="#E6B650"/>
<stop offset="1" stop-color="#BC6E29"/>
</radialGradient>
<radialGradient id="paint17_radial_1184_110" cx="0" cy="0" r="1" gradientUnits="userSpaceOnUse" gradientTransform="translate(118.33 -8.40794) rotate(83.4824) scale(111.89 111.854)">
<stop stop-color="#D49128"/>
<stop offset="0.0333333" stop-color="#D49128"/>
<stop offset="0.2472" stop-color="#BC7C2A"/>
<stop offset="0.3427" stop-color="#DEA826"/>
<stop offset="0.4101" stop-color="#EED067"/>
<stop offset="0.558" stop-color="#F1D578"/>
<stop offset="0.6828" stop-color="#DB9829"/>
<stop offset="0.6854" stop-color="#DB9727"/>
<stop offset="0.7928" stop-color="#C78529"/>
<stop offset="0.8884" stop-color="#E6B650"/>
<stop offset="1" stop-color="#BC6E29"/>
</radialGradient>
<radialGradient id="paint18_radial_1184_110" cx="0" cy="0" r="1" gradientUnits="userSpaceOnUse" gradientTransform="translate(118.33 -8.40787) rotate(83.4824) scale(111.89 111.854)">
<stop stop-color="#D49128"/>
<stop offset="0.0333333" stop-color="#D49128"/>
<stop offset="0.2472" stop-color="#BC7C2A"/>
<stop offset="0.3427" stop-color="#DEA826"/>
<stop offset="0.4101" stop-color="#EED067"/>
<stop offset="0.558" stop-color="#F1D578"/>
<stop offset="0.6828" stop-color="#DB9829"/>
<stop offset="0.6854" stop-color="#DB9727"/>
<stop offset="0.7928" stop-color="#C78529"/>
<stop offset="0.8884" stop-color="#E6B650"/>
<stop offset="1" stop-color="#BC6E29"/>
</radialGradient>
<radialGradient id="paint19_radial_1184_110" cx="0" cy="0" r="1" gradientUnits="userSpaceOnUse" gradientTransform="translate(118.33 -8.40784) rotate(83.4824) scale(111.89 111.854)">
<stop stop-color="#D49128"/>
<stop offset="0.0333333" stop-color="#D49128"/>
<stop offset="0.2472" stop-color="#BC7C2A"/>
<stop offset="0.3427" stop-color="#DEA826"/>
<stop offset="0.4101" stop-color="#EED067"/>
<stop offset="0.558" stop-color="#F1D578"/>
<stop offset="0.6828" stop-color="#DB9829"/>
<stop offset="0.6854" stop-color="#DB9727"/>
<stop offset="0.7928" stop-color="#C78529"/>
<stop offset="0.8884" stop-color="#E6B650"/>
<stop offset="1" stop-color="#BC6E29"/>
</radialGradient>
<radialGradient id="paint20_radial_1184_110" cx="0" cy="0" r="1" gradientUnits="userSpaceOnUse" gradientTransform="translate(118.33 -8.40787) rotate(83.4824) scale(111.89 111.854)">
<stop stop-color="#D49128"/>
<stop offset="0.0333333" stop-color="#D49128"/>
<stop offset="0.2472" stop-color="#BC7C2A"/>
<stop offset="0.3427" stop-color="#DEA826"/>
<stop offset="0.4101" stop-color="#EED067"/>
<stop offset="0.558" stop-color="#F1D578"/>
<stop offset="0.6828" stop-color="#DB9829"/>
<stop offset="0.6854" stop-color="#DB9727"/>
<stop offset="0.7928" stop-color="#C78529"/>
<stop offset="0.8884" stop-color="#E6B650"/>
<stop offset="1" stop-color="#BC6E29"/>
</radialGradient>
<radialGradient id="paint21_radial_1184_110" cx="0" cy="0" r="1" gradientUnits="userSpaceOnUse" gradientTransform="translate(118.33 -8.40789) rotate(83.4822) scale(111.89 111.856)">
<stop stop-color="#D49128"/>
<stop offset="0.0333333" stop-color="#D49128"/>
<stop offset="0.2472" stop-color="#BC7C2A"/>
<stop offset="0.3427" stop-color="#DEA826"/>
<stop offset="0.4101" stop-color="#EED067"/>
<stop offset="0.558" stop-color="#F1D578"/>
<stop offset="0.6828" stop-color="#DB9829"/>
<stop offset="0.6854" stop-color="#DB9727"/>
<stop offset="0.7928" stop-color="#C78529"/>
<stop offset="0.8884" stop-color="#E6B650"/>
<stop offset="1" stop-color="#BC6E29"/>
</radialGradient>
<radialGradient id="paint22_radial_1184_110" cx="0" cy="0" r="1" gradientUnits="userSpaceOnUse" gradientTransform="translate(118.33 -8.40793) rotate(83.4824) scale(111.89 111.854)">
<stop stop-color="#D49128"/>
<stop offset="0.0333333" stop-color="#D49128"/>
<stop offset="0.2472" stop-color="#BC7C2A"/>
<stop offset="0.3427" stop-color="#DEA826"/>
<stop offset="0.4101" stop-color="#EED067"/>
<stop offset="0.558" stop-color="#F1D578"/>
<stop offset="0.6828" stop-color="#DB9829"/>
<stop offset="0.6854" stop-color="#DB9727"/>
<stop offset="0.7928" stop-color="#C78529"/>
<stop offset="0.8884" stop-color="#E6B650"/>
<stop offset="1" stop-color="#BC6E29"/>
</radialGradient>
<radialGradient id="paint23_radial_1184_110" cx="0" cy="0" r="1" gradientUnits="userSpaceOnUse" gradientTransform="translate(118.33 -8.40784) rotate(83.4824) scale(111.89 111.854)">
<stop stop-color="#D49128"/>
<stop offset="0.0333333" stop-color="#D49128"/>
<stop offset="0.2472" stop-color="#BC7C2A"/>
<stop offset="0.3427" stop-color="#DEA826"/>
<stop offset="0.4101" stop-color="#EED067"/>
<stop offset="0.558" stop-color="#F1D578"/>
<stop offset="0.6828" stop-color="#DB9829"/>
<stop offset="0.6854" stop-color="#DB9727"/>
<stop offset="0.7928" stop-color="#C78529"/>
<stop offset="0.8884" stop-color="#E6B650"/>
<stop offset="1" stop-color="#BC6E29"/>
</radialGradient>
<radialGradient id="paint24_radial_1184_110" cx="0" cy="0" r="1" gradientUnits="userSpaceOnUse" gradientTransform="translate(118.33 -8.40778) rotate(83.4824) scale(111.89 111.854)">
<stop stop-color="#D49128"/>
<stop offset="0.0333333" stop-color="#D49128"/>
<stop offset="0.2472" stop-color="#BC7C2A"/>
<stop offset="0.3427" stop-color="#DEA826"/>
<stop offset="0.4101" stop-color="#EED067"/>
<stop offset="0.558" stop-color="#F1D578"/>
<stop offset="0.6828" stop-color="#DB9829"/>
<stop offset="0.6854" stop-color="#DB9727"/>
<stop offset="0.7928" stop-color="#C78529"/>
<stop offset="0.8884" stop-color="#E6B650"/>
<stop offset="1" stop-color="#BC6E29"/>
</radialGradient>
<radialGradient id="paint25_radial_1184_110" cx="0" cy="0" r="1" gradientUnits="userSpaceOnUse" gradientTransform="translate(118.33 -8.40799) rotate(83.4824) scale(111.89 111.854)">
<stop stop-color="#D49128"/>
<stop offset="0.0333333" stop-color="#D49128"/>
<stop offset="0.2472" stop-color="#BC7C2A"/>
<stop offset="0.3427" stop-color="#DEA826"/>
<stop offset="0.4101" stop-color="#EED067"/>
<stop offset="0.558" stop-color="#F1D578"/>
<stop offset="0.6828" stop-color="#DB9829"/>
<stop offset="0.6854" stop-color="#DB9727"/>
<stop offset="0.7928" stop-color="#C78529"/>
<stop offset="0.8884" stop-color="#E6B650"/>
<stop offset="1" stop-color="#BC6E29"/>
</radialGradient>
<radialGradient id="paint26_radial_1184_110" cx="0" cy="0" r="1" gradientUnits="userSpaceOnUse" gradientTransform="translate(118.33 -8.40794) rotate(83.4824) scale(111.89 111.854)">
<stop stop-color="#D49128"/>
<stop offset="0.0333333" stop-color="#D49128"/>
<stop offset="0.2472" stop-color="#BC7C2A"/>
<stop offset="0.3427" stop-color="#DEA826"/>
<stop offset="0.4101" stop-color="#EED067"/>
<stop offset="0.558" stop-color="#F1D578"/>
<stop offset="0.6828" stop-color="#DB9829"/>
<stop offset="0.6854" stop-color="#DB9727"/>
<stop offset="0.7928" stop-color="#C78529"/>
<stop offset="0.8884" stop-color="#E6B650"/>
<stop offset="1" stop-color="#BC6E29"/>
</radialGradient>
<radialGradient id="paint27_radial_1184_110" cx="0" cy="0" r="1" gradientUnits="userSpaceOnUse" gradientTransform="translate(118.33 -8.40792) rotate(83.4824) scale(111.89 111.854)">
<stop stop-color="#D49128"/>
<stop offset="0.0333333" stop-color="#D49128"/>
<stop offset="0.2472" stop-color="#BC7C2A"/>
<stop offset="0.3427" stop-color="#DEA826"/>
<stop offset="0.4101" stop-color="#EED067"/>
<stop offset="0.558" stop-color="#F1D578"/>
<stop offset="0.6828" stop-color="#DB9829"/>
<stop offset="0.6854" stop-color="#DB9727"/>
<stop offset="0.7928" stop-color="#C78529"/>
<stop offset="0.8884" stop-color="#E6B650"/>
<stop offset="1" stop-color="#BC6E29"/>
</radialGradient>
<radialGradient id="paint28_radial_1184_110" cx="0" cy="0" r="1" gradientUnits="userSpaceOnUse" gradientTransform="translate(118.33 -8.40795) rotate(83.4824) scale(111.89 111.854)">
<stop stop-color="#D49128"/>
<stop offset="0.0333333" stop-color="#D49128"/>
<stop offset="0.2472" stop-color="#BC7C2A"/>
<stop offset="0.3427" stop-color="#DEA826"/>
<stop offset="0.4101" stop-color="#EED067"/>
<stop offset="0.558" stop-color="#F1D578"/>
<stop offset="0.6828" stop-color="#DB9829"/>
<stop offset="0.6854" stop-color="#DB9727"/>
<stop offset="0.7928" stop-color="#C78529"/>
<stop offset="0.8884" stop-color="#E6B650"/>
<stop offset="1" stop-color="#BC6E29"/>
</radialGradient>
<radialGradient id="paint29_radial_1184_110" cx="0" cy="0" r="1" gradientUnits="userSpaceOnUse" gradientTransform="translate(118.33 -8.40791) rotate(83.4824) scale(111.89 111.854)">
<stop stop-color="#D49128"/>
<stop offset="0.0333333" stop-color="#D49128"/>
<stop offset="0.2472" stop-color="#BC7C2A"/>
<stop offset="0.3427" stop-color="#DEA826"/>
<stop offset="0.4101" stop-color="#EED067"/>
<stop offset="0.558" stop-color="#F1D578"/>
<stop offset="0.6828" stop-color="#DB9829"/>
<stop offset="0.6854" stop-color="#DB9727"/>
<stop offset="0.7928" stop-color="#C78529"/>
<stop offset="0.8884" stop-color="#E6B650"/>
<stop offset="1" stop-color="#BC6E29"/>
</radialGradient>
<radialGradient id="paint30_radial_1184_110" cx="0" cy="0" r="1" gradientUnits="userSpaceOnUse" gradientTransform="translate(118.33 -8.40778) rotate(83.4824) scale(111.89 111.854)">
<stop stop-color="#D49128"/>
<stop offset="0.0333333" stop-color="#D49128"/>
<stop offset="0.2472" stop-color="#BC7C2A"/>
<stop offset="0.3427" stop-color="#DEA826"/>
<stop offset="0.4101" stop-color="#EED067"/>
<stop offset="0.558" stop-color="#F1D578"/>
<stop offset="0.6828" stop-color="#DB9829"/>
<stop offset="0.6854" stop-color="#DB9727"/>
<stop offset="0.7928" stop-color="#C78529"/>
<stop offset="0.8884" stop-color="#E6B650"/>
<stop offset="1" stop-color="#BC6E29"/>
</radialGradient>
<radialGradient id="paint31_radial_1184_110" cx="0" cy="0" r="1" gradientUnits="userSpaceOnUse" gradientTransform="translate(118.33 -8.40794) rotate(83.4824) scale(111.89 111.854)">
<stop stop-color="#D49128"/>
<stop offset="0.0333333" stop-color="#D49128"/>
<stop offset="0.2472" stop-color="#BC7C2A"/>
<stop offset="0.3427" stop-color="#DEA826"/>
<stop offset="0.4101" stop-color="#EED067"/>
<stop offset="0.558" stop-color="#F1D578"/>
<stop offset="0.6828" stop-color="#DB9829"/>
<stop offset="0.6854" stop-color="#DB9727"/>
<stop offset="0.7928" stop-color="#C78529"/>
<stop offset="0.8884" stop-color="#E6B650"/>
<stop offset="1" stop-color="#BC6E29"/>
</radialGradient>
</defs>
</svg>
