<svg width="97" height="265" viewBox="0 0 97 265" fill="none" xmlns="http://www.w3.org/2000/svg">
<g opacity="0.12">
<mask id="mask0_1184_79" style="mask-type:luminance" maskUnits="userSpaceOnUse" x="3" y="48" width="43" height="73">
<path d="M15.567 69.0405C15.4777 68.5368 15.448 68.0923 15.4777 67.6479C15.567 66.1367 15.7158 64.5959 15.7455 63.0847C15.805 60.0623 15.5968 57.0696 14.6743 54.1657C14.2577 52.8027 13.7221 51.4693 12.8295 50.3137C12.7104 50.4322 12.6212 50.4618 12.5914 50.5507C12.4724 50.9063 12.3534 51.2619 12.2343 51.6471C11.0739 55.4991 10.2407 59.4401 9.85387 63.4402C9.37777 68.4775 9.40753 73.5148 10.7465 78.4632C10.8953 79.0558 10.9251 79.5892 10.6573 80.1818C7.83046 86.8785 5.71779 93.7825 4.17048 100.864C3.93243 101.961 3.69438 103.057 3.48609 104.183C3.30756 106.05 3.21829 107.917 3.18853 109.783C3.15878 113.428 3.60512 117.013 4.34902 120.539C5.2417 110.139 8.24704 98.7013 9.88362 94.3159C11.55 89.8416 13.6626 85.6339 16.4894 81.7523C16.8763 81.2189 17.3524 80.9522 17.9177 80.8041C17.6202 81.7226 17.3226 82.819 17.0846 84.0339L18.7806 80.6559C21.3694 77.7521 24.226 75.3223 27.7372 74.2852C30.5045 73.4852 35.6523 73.5445 39.0742 73.5741C40.8893 73.7519 44.0434 73.7519 45.9776 72.0333C44.8171 72.4185 41.2464 72.2111 37.6757 72.0036C33.8372 71.7962 29.9986 71.5592 29.0762 72.0629C25.684 72.0036 22.2918 72.3 18.8997 73.3963C19.0484 73.1296 19.2567 72.9815 19.4353 72.8333C21.4884 70.8777 23.6309 69.0109 25.5352 66.9367C27.6777 64.6255 29.6713 62.2254 31.5757 59.7364C33.5693 57.1288 35.1762 54.2842 36.2176 51.1433C36.4854 50.3433 36.6937 49.484 36.9318 48.684C27.5289 53.1583 20.1494 59.6178 15.567 69.0405Z" fill="white"/>
</mask>
<g mask="url(#mask0_1184_79)">
<path d="M61.3316 52.0323L43.9839 129.547L-12.1358 117.102L5.24169 39.5576L61.3316 52.0323Z" fill="url(#paint0_radial_1184_79)"/>
</g>
<mask id="mask1_1184_79" style="mask-type:luminance" maskUnits="userSpaceOnUse" x="9" y="64" width="88" height="211">
<path d="M63.5038 64.5958C62.5814 65.7218 60.2902 69.7812 58.5048 71.0554C56.7195 72.3295 52.9107 74.0777 52.9107 74.0777C52.9107 74.0777 51.7502 72.9814 51.2742 72.8332C50.7981 72.6851 49.9946 74.5518 49.0425 75.4704C48.0903 76.3593 47.1678 76.8927 46.2454 77.2779C45.9181 77.426 44.4303 77.3964 42.4664 77.3668C39.0742 77.3371 34.2538 77.3075 31.6352 78.0779C27.4992 79.2928 24.2558 82.4633 21.2504 86.108C18.2748 89.7526 16.7573 92.0934 15.4778 94.7306C14.228 97.3678 12.8592 102.079 11.1929 108.391C9.52658 114.702 9.34805 120.687 11.1929 125.162C13.0378 129.606 13.99 135.118 14.7041 139.266C13.127 147.385 13.1568 156.926 18.8402 170.201C24.4938 183.476 22.8275 183.476 26.4875 192.276C30.1772 201.077 30.6533 213.462 31.9626 219.003C33.2421 224.544 34.1347 236.427 33.9562 240.575C33.7479 244.723 32.4684 245.612 33.3611 252.842C33.6586 255.361 34.1645 257.465 34.7001 259.183C34.8191 259.539 38.4196 271.243 40.8001 273.969C43.2103 276.725 43.5674 265.85 43.002 261.643C42.7937 259.005 42.764 254.65 44.5196 251.064C47.1976 245.523 52.4644 244.516 52.1668 239.686C51.8693 234.826 47.5844 237.315 46.3049 234.826C45.0254 232.337 45.5015 221.967 47.5547 216.9C49.1912 212.84 49.0127 203.388 46.543 195.654L42.0201 184.187C40.6215 177.875 41.663 171.683 41.7225 168.779C41.9606 160.986 39.1337 152.571 39.342 150.556C39.4908 148.896 40.6215 146.911 41.5737 144.452C41.9606 144.096 44.222 136.422 41.8713 132.718C41.3357 131.858 40.7703 131.029 40.2645 130.14C36.9615 124.451 31.7245 118.198 32.5874 115.591C33.7182 112.124 45.4717 104.361 46.2752 103.738C45.7693 104.746 48.12 127.562 49.4888 134.11C50.8873 140.748 50.1732 151.178 50.5303 156.986C50.8576 162.793 51.0064 168.038 50.4112 169.52C52.1073 169.905 52.2263 168.394 52.2263 168.394C52.2263 168.394 52.7619 175.09 53.5058 175.475C54.2497 175.861 54.6961 173.194 54.6961 173.194C54.6961 173.194 55.0829 173.638 55.3805 173.253C55.678 172.868 56.3624 170.942 56.5707 170.231C56.779 169.549 56.7195 167.653 56.5707 166.112C57.7609 168.245 57.5229 170.468 56.8683 172.246C58.118 173.727 59.0702 171.208 59.3083 169.845C59.5463 168.453 59.2487 164.838 58.9809 164.156C59.0702 164.304 60.2307 166.734 60.2307 167.742C60.2307 168.808 59.9034 169.905 59.9034 169.905C59.9034 169.905 61.2424 171.031 61.9565 169.194C62.6409 167.356 61.0936 164.067 60.677 162.704C60.2902 161.341 60.2604 156.245 59.338 153.756C58.4156 151.267 58.4156 152.452 58.2073 150.348C58.1775 150.082 58.1775 149.519 58.1775 148.748C58.5644 148.422 58.9512 148.126 59.338 147.8C59.3083 147.711 59.3083 147.652 59.2785 147.563C58.8917 147.8 58.5346 148.067 58.1478 148.304C58.2073 142.703 58.7429 128.332 58.2966 126.317C57.7609 123.947 56.5112 122.88 57.4336 119.976C58.3561 117.072 59.4273 101.368 59.6058 97.8715C59.8141 94.4343 58.3263 86.9969 58.2966 86.7895C58.3858 86.9969 61.1234 94.4343 60.6175 98.9975C60.0819 103.62 58.8917 119.532 58.5644 120.45C58.237 121.369 59.9034 124.539 59.9034 126.643C59.9034 128.747 59.4273 142.555 59.8439 147.118C60.32 142.97 60.8258 140.777 60.8258 140.777C60.8258 140.777 62.4921 143.415 62.6707 147.504C62.879 151.593 63.9204 158.141 68.8302 158.408C65.438 156.304 66.1819 151.474 66.777 149.815C68.5028 155.563 71.2106 156.482 71.0916 158.467C70.9726 160.452 67.9077 166.468 73.7994 170.082C69.9609 166.853 71.0916 161.845 72.4604 160.038C73.8589 158.26 74.454 155.8 73.3828 154.437C72.3116 153.045 72.1331 149.963 74.3053 148.096C74.5731 152.333 72.8472 161.697 85.5827 163.682C78.3521 161.756 75.7038 154.763 75.9716 151.682C76.2394 148.57 76.2989 143.77 74.8409 142.17C77.6974 143.829 81.3276 147.504 81.2681 150.407C81.2086 153.311 85.6423 154.822 85.5827 157.4C85.5232 159.978 83.8569 159.386 84.7793 161.371C85.2554 159.652 87.1003 159.267 87.3681 157.134C87.6359 155.03 86.892 153.963 85.5232 152.304C84.1247 150.644 82.8154 147.03 82.5476 144.452C82.3096 141.992 78.6794 138.407 77.9355 137.844C83.2023 141.459 86.7432 145.755 86.3862 149.341C86.0291 152.956 88.3203 155.297 88.3203 155.297C88.3203 155.297 86.8623 152.245 87.6061 150.348C88.3203 148.422 88.4096 143.148 86.2076 140.303C84.0354 137.459 83.0832 133.518 83.0237 131.266C84.0057 135.355 85.553 138.466 87.7252 139.592C88.8261 140.155 90.8198 139.859 92.6647 139.562C94.3607 139.296 95.9378 139.029 96.5627 139.414C94.1227 137.548 89.332 138.911 87.8442 137.37C86.3266 135.799 83.5891 130.318 84.6603 126.88C85.9696 131.503 87.6954 133.162 87.6954 133.162C87.6954 133.162 86.3564 129.725 86.4457 126.88C86.5052 124.036 83.5891 118.969 83.2618 115.976C83.0832 114.257 83.4106 112.361 83.7379 111.057C83.4106 112.954 83.4106 116.243 86.2671 119.68C90.6413 124.954 92.6944 128.125 91.8315 130.318C90.9686 132.51 89.57 133.547 90.7008 135.325C91.2959 132.895 92.0993 132.273 93.8251 130.851C95.551 129.399 94.8964 125.102 92.0993 122.465C89.332 119.828 84.8091 114.82 86.3862 110.109C87.3086 113.606 92.6051 119.206 92.6051 119.206C92.6051 119.206 88.112 111.561 86.9813 106.465C85.4042 100.805 85.8208 96.9529 86.3564 94.8491C86.892 92.6861 87.2788 90.4637 87.3383 88.2414C87.4574 85.219 87.3383 82.3448 86.6242 81.1299C85.2257 78.7002 83.6486 77.752 81.774 77.8409C80.1077 77.9001 75.7038 78.552 74.216 78.9669C75.5252 78.552 79.7208 77.2186 82.3393 77.2186C80.2267 74.6111 79.7506 74.0185 79.2447 73.811C78.7389 73.6036 77.9057 73.3369 77.1916 72.8925C76.4477 72.4184 75.8228 71.3517 75.4955 71.0257C75.1682 70.6998 74.3945 68.0626 73.8589 67.5885C73.5614 67.3515 72.996 67.8256 72.4604 68.2997C71.9843 68.7145 71.5379 69.1293 71.2999 69.0701C70.7643 68.9812 69.9014 67.707 69.217 67.144C68.7409 66.7588 68.6814 66.7588 68.5028 66.7588C68.4136 66.7588 68.3243 66.7588 68.1458 66.7292C67.6102 66.6403 67.6399 66.1366 67.1043 65.9588C65.7951 64.8921 64.9619 64.1513 64.2477 64.1513C64.0692 64.092 63.7716 64.2698 63.5038 64.5958Z" fill="white"/>
</mask>
<g mask="url(#mask1_1184_79)">
<path d="M142 74.1962L92.4861 295.185L-36 266.65L13.5139 45.6318L142 74.1962Z" fill="url(#paint1_radial_1184_79)"/>
</g>
<mask id="mask2_1184_79" style="mask-type:luminance" maskUnits="userSpaceOnUse" x="28" y="47" width="59" height="24">
<path d="M55.4697 51.0248C50.3517 53.6916 45.3824 56.6547 40.4429 59.6178C36.6342 61.8698 33.0337 64.4181 29.7903 67.4404C29.4928 67.7071 29.2547 68.0034 28.8381 68.4775C31.0103 68.6257 32.9147 68.7738 34.8191 68.922C38.6576 69.1887 42.4664 69.6331 46.2156 70.3443C46.7215 69.6035 47.138 68.9516 47.4058 69.0405C47.8819 69.1887 49.0424 70.285 49.0424 70.285C49.0424 70.285 52.8512 68.5368 54.6365 67.2626C56.4219 65.9885 58.7131 61.929 59.6355 60.8031C60.558 59.6771 61.4506 60.566 63.355 62.1068C63.5336 62.1661 63.6526 62.255 63.7419 62.3735C63.7419 62.3735 64.337 62.4031 65.3189 62.3439C66.0628 62.3439 66.8067 62.3439 67.5209 62.1957C72.1628 61.8105 80.2266 60.4179 86.8027 55.6473C84.2734 57.2177 74.7813 58.4918 72.3116 58.8178C73.7696 57.0399 74.9003 55.0843 75.3169 52.7434C75.7632 50.2248 74.6325 48.2691 72.1925 47.558C71.3891 47.3209 70.5262 47.232 69.693 47.2024C69.6335 47.2024 69.574 47.2024 69.5443 47.2024C64.5155 47.2024 59.8438 48.7728 55.4697 51.0248Z" fill="white"/>
</mask>
<g mask="url(#mask2_1184_79)">
<path d="M91.7719 48.2988L84.0949 82.582L23.8987 69.2183L31.5757 34.9055L91.7719 48.2988Z" fill="url(#paint2_radial_1184_79)"/>
</g>
<mask id="mask3_1184_79" style="mask-type:luminance" maskUnits="userSpaceOnUse" x="0" y="0" width="14" height="79">
<path d="M11.7285 1.68897C8.12808 5.36323 5.80712 9.83753 4.08128 14.6081C1.58178 21.5714 0.718857 28.8311 0.599834 36.1796C0.540322 40.2094 0.659346 44.2392 1.13544 48.2394C1.76032 53.6619 2.62324 59.0548 3.63494 64.418C4.49786 69.0108 5.74761 73.5444 6.78907 78.1372C6.84858 78.1076 6.90809 78.0779 6.9676 78.0483C6.43199 73.9 5.86663 69.7516 5.42029 65.6033C5.03347 62.166 4.73591 58.6992 4.43835 55.2324C4.28957 53.4249 4.23006 51.5877 4.11103 49.7803C3.78372 43.7059 3.90274 37.6611 4.97395 31.6756C5.09298 31.0534 5.30127 30.4311 5.4798 29.8089C5.59883 29.8089 5.6881 29.8385 5.80712 29.8385C5.77737 32.8016 5.9559 35.7351 6.75931 38.5797C7.59248 41.4835 8.84223 44.18 11.1334 46.5505C8.75296 38.7575 7.91979 30.9941 8.4554 23.053C8.991 15.1119 10.8656 7.46704 13.6924 0C13.0081 0.503729 12.3237 1.06672 11.7285 1.68897Z" fill="white"/>
</mask>
<g mask="url(#mask3_1184_79)">
<path d="M30.3855 3.67427L13.0973 80.9226L-16.1528 74.4037L1.16518 -2.81494L30.3855 3.67427Z" fill="url(#paint3_radial_1184_79)"/>
</g>
<mask id="mask4_1184_79" style="mask-type:luminance" maskUnits="userSpaceOnUse" x="33" y="21" width="33" height="33">
<path d="M41.663 25.5716C41.425 26.7569 41.3357 28.0014 41.1571 29.2163C40.324 34.7573 38.4196 39.8538 34.7894 44.2392C34.2538 44.8911 33.6884 45.5726 33.123 46.2245C33.1528 46.2838 33.1826 46.343 33.2123 46.4319C36.1582 45.6023 39.1337 44.743 42.3474 43.8244C41.1869 47.2023 40.1157 50.3432 39.0445 53.4841C39.104 53.5434 39.1933 53.6027 39.2528 53.6619C39.4611 53.5434 39.6991 53.4545 39.9074 53.336C45.6503 50.0766 51.7205 47.5579 58.0883 45.8097C59.3083 45.4837 60.558 45.2171 61.778 44.8319C64.1287 44.0318 66.0331 42.1058 65.7951 38.9353C65.676 37.2759 65.0809 35.7944 64.1287 34.461C62.2839 31.8534 59.7248 30.283 56.6897 29.4533C56.0946 29.3052 55.678 29.1274 55.4697 28.3866C54.458 24.5938 51.8395 22.2826 48.0903 21.4233C47.4952 21.2751 46.9596 21.2159 46.4537 21.2159C43.9245 21.1862 42.2284 22.7567 41.663 25.5716Z" fill="white"/>
</mask>
<g mask="url(#mask4_1184_79)">
<path d="M72.9662 22.727L64.4858 60.5956L26.1899 52.0914L34.6704 14.2229L72.9662 22.727Z" fill="url(#paint4_radial_1184_79)"/>
</g>
<mask id="mask5_1184_79" style="mask-type:luminance" maskUnits="userSpaceOnUse" x="12" y="16" width="26" height="42">
<path d="M18.8105 57.6325C24.8212 53.8398 29.4036 48.7728 32.647 42.5207C35.8606 36.2981 37.1997 29.6608 37.1401 22.7567C32.7065 20.6233 27.529 21.3641 24.1666 24.742C22.649 26.2828 21.548 28.0607 20.6256 29.9867C20.4471 30.3423 20.2685 30.6682 20.09 30.9942L19.7924 30.9053C18.4534 26.2828 17.769 21.6307 19.1676 16.8898C9.76468 30.4016 11.7583 46.5505 18.8105 57.6325Z" fill="white"/>
</mask>
<g mask="url(#mask5_1184_79)">
<path d="M45.8884 18.8157L35.8904 63.4402L1.0462 55.7065L11.0442 11.082L45.8884 18.8157Z" fill="url(#paint5_radial_1184_79)"/>
</g>
</g>
<defs>
<radialGradient id="paint0_radial_1184_79" cx="0" cy="0" r="1" gradientUnits="userSpaceOnUse" gradientTransform="translate(63.7967 -18.7594) rotate(102.627) scale(337.756 339.043)">
<stop stop-color="#D49128"/>
<stop offset="0.0333333" stop-color="#D49128"/>
<stop offset="0.2472" stop-color="#BC7C2A"/>
<stop offset="0.3427" stop-color="#DEA826"/>
<stop offset="0.4101" stop-color="#EED067"/>
<stop offset="0.558" stop-color="#F1D578"/>
<stop offset="0.6828" stop-color="#DB9829"/>
<stop offset="0.6854" stop-color="#DB9727"/>
<stop offset="0.7928" stop-color="#C78529"/>
<stop offset="0.8884" stop-color="#E6B650"/>
<stop offset="1" stop-color="#BC6E29"/>
</radialGradient>
<radialGradient id="paint1_radial_1184_79" cx="0" cy="0" r="1" gradientUnits="userSpaceOnUse" gradientTransform="translate(63.7967 -18.7596) rotate(102.627) scale(337.756 339.043)">
<stop stop-color="#D49128"/>
<stop offset="0.0333333" stop-color="#D49128"/>
<stop offset="0.2472" stop-color="#BC7C2A"/>
<stop offset="0.3427" stop-color="#DEA826"/>
<stop offset="0.4101" stop-color="#EED067"/>
<stop offset="0.558" stop-color="#F1D578"/>
<stop offset="0.6828" stop-color="#DB9829"/>
<stop offset="0.6854" stop-color="#DB9727"/>
<stop offset="0.7928" stop-color="#C78529"/>
<stop offset="0.8884" stop-color="#E6B650"/>
<stop offset="1" stop-color="#BC6E29"/>
</radialGradient>
<radialGradient id="paint2_radial_1184_79" cx="0" cy="0" r="1" gradientUnits="userSpaceOnUse" gradientTransform="translate(63.7967 -18.7594) rotate(102.627) scale(337.756 339.043)">
<stop stop-color="#D49128"/>
<stop offset="0.0333333" stop-color="#D49128"/>
<stop offset="0.2472" stop-color="#BC7C2A"/>
<stop offset="0.3427" stop-color="#DEA826"/>
<stop offset="0.4101" stop-color="#EED067"/>
<stop offset="0.558" stop-color="#F1D578"/>
<stop offset="0.6828" stop-color="#DB9829"/>
<stop offset="0.6854" stop-color="#DB9727"/>
<stop offset="0.7928" stop-color="#C78529"/>
<stop offset="0.8884" stop-color="#E6B650"/>
<stop offset="1" stop-color="#BC6E29"/>
</radialGradient>
<radialGradient id="paint3_radial_1184_79" cx="0" cy="0" r="1" gradientUnits="userSpaceOnUse" gradientTransform="translate(63.7968 -18.7595) rotate(102.627) scale(337.756 339.043)">
<stop stop-color="#D49128"/>
<stop offset="0.0333333" stop-color="#D49128"/>
<stop offset="0.2472" stop-color="#BC7C2A"/>
<stop offset="0.3427" stop-color="#DEA826"/>
<stop offset="0.4101" stop-color="#EED067"/>
<stop offset="0.558" stop-color="#F1D578"/>
<stop offset="0.6828" stop-color="#DB9829"/>
<stop offset="0.6854" stop-color="#DB9727"/>
<stop offset="0.7928" stop-color="#C78529"/>
<stop offset="0.8884" stop-color="#E6B650"/>
<stop offset="1" stop-color="#BC6E29"/>
</radialGradient>
<radialGradient id="paint4_radial_1184_79" cx="0" cy="0" r="1" gradientUnits="userSpaceOnUse" gradientTransform="translate(63.7968 -18.7595) rotate(102.627) scale(337.756 339.043)">
<stop stop-color="#D49128"/>
<stop offset="0.0333333" stop-color="#D49128"/>
<stop offset="0.2472" stop-color="#BC7C2A"/>
<stop offset="0.3427" stop-color="#DEA826"/>
<stop offset="0.4101" stop-color="#EED067"/>
<stop offset="0.558" stop-color="#F1D578"/>
<stop offset="0.6828" stop-color="#DB9829"/>
<stop offset="0.6854" stop-color="#DB9727"/>
<stop offset="0.7928" stop-color="#C78529"/>
<stop offset="0.8884" stop-color="#E6B650"/>
<stop offset="1" stop-color="#BC6E29"/>
</radialGradient>
<radialGradient id="paint5_radial_1184_79" cx="0" cy="0" r="1" gradientUnits="userSpaceOnUse" gradientTransform="translate(63.7968 -18.7595) rotate(102.627) scale(337.756 339.043)">
<stop stop-color="#D49128"/>
<stop offset="0.0333333" stop-color="#D49128"/>
<stop offset="0.2472" stop-color="#BC7C2A"/>
<stop offset="0.3427" stop-color="#DEA826"/>
<stop offset="0.4101" stop-color="#EED067"/>
<stop offset="0.558" stop-color="#F1D578"/>
<stop offset="0.6828" stop-color="#DB9829"/>
<stop offset="0.6854" stop-color="#DB9727"/>
<stop offset="0.7928" stop-color="#C78529"/>
<stop offset="0.8884" stop-color="#E6B650"/>
<stop offset="1" stop-color="#BC6E29"/>
</radialGradient>
</defs>
</svg>
