<svg width="126" height="37" viewBox="0 0 126 37" fill="none" xmlns="http://www.w3.org/2000/svg">
<path d="M38.9577 17.7193C39.7364 18.0706 40.3205 18.5779 40.7098 19.2024C41.1381 19.8269 41.3328 20.6075 41.3328 21.4661C41.3328 22.3248 41.1381 23.0663 40.7098 23.7298C40.2815 24.3933 39.6975 24.8617 38.9577 25.213C38.1789 25.5642 37.2834 25.7204 36.2321 25.7204H33.8569V28.9598H31.1313V17.2119H36.1932C37.3223 17.2119 38.2179 17.368 38.9577 17.7193ZM37.9843 22.9883C38.4126 22.637 38.6072 22.1296 38.6072 21.4661C38.6072 20.8026 38.4126 20.2952 37.9843 19.944C37.5559 19.5927 36.933 19.3976 36.1153 19.3976H33.8959V23.4957H36.1153C36.933 23.4957 37.5559 23.3396 37.9843 22.9883Z" fill="white"/>
<path d="M45.8495 28.3744C44.8761 27.867 44.0974 27.1255 43.5522 26.1888C43.0071 25.252 42.7346 24.2373 42.7346 23.0664C42.7346 21.8955 43.0071 20.8807 43.5522 19.944C44.0974 19.0073 44.8761 18.3048 45.8495 17.7584C46.8229 17.251 47.9132 16.9778 49.1592 16.9778C50.3662 16.9778 51.4564 17.251 52.4299 17.7584C53.4033 18.2658 54.182 19.0073 54.7271 19.944C55.2723 20.8807 55.5838 21.8955 55.5838 23.0664C55.5838 24.2373 55.3112 25.252 54.7271 26.1888C54.182 27.1255 53.4033 27.828 52.4299 28.3744C51.4564 28.8818 50.3662 29.155 49.1592 29.155C47.9132 29.155 46.8229 28.9208 45.8495 28.3744ZM51.0281 26.3839C51.5732 26.0717 52.0405 25.6033 52.352 25.0569C52.6635 24.4715 52.8192 23.847 52.8192 23.1054C52.8192 22.3639 52.6635 21.7394 52.352 21.1539C52.0405 20.5685 51.6122 20.1392 51.0281 19.8269C50.483 19.5147 49.86 19.3586 49.1592 19.3586C48.4583 19.3586 47.8353 19.5147 47.2902 19.8269C46.7451 20.1392 46.2778 20.6075 45.9663 21.1539C45.6548 21.7394 45.4991 22.3639 45.4991 23.1054C45.4991 23.847 45.6548 24.4715 45.9663 25.0569C46.2778 25.6423 46.7061 26.0717 47.2902 26.3839C47.8353 26.6961 48.4583 26.8523 49.1592 26.8523C49.8211 26.8523 50.4441 26.6961 51.0281 26.3839Z" fill="white"/>
<path d="M57.6085 17.2119H62.9428C64.2278 17.2119 65.3569 17.4461 66.3304 17.9535C67.3038 18.4218 68.0825 19.1244 68.6276 20.022C69.1728 20.9197 69.4453 21.9345 69.4453 23.1054C69.4453 24.2763 69.1728 25.3301 68.6276 26.1887C68.0825 27.0864 67.3427 27.7499 66.3304 28.2573C65.3569 28.7256 64.2278 28.9988 62.9428 28.9988H57.6085V17.2119ZM62.7871 26.7351C63.9552 26.7351 64.8897 26.4229 65.5906 25.7594C66.2914 25.0959 66.6418 24.1982 66.6418 23.1054C66.6418 21.9735 66.2914 21.1149 65.5906 20.4514C64.8897 19.7879 63.9552 19.4756 62.7871 19.4756H60.2951V26.7741H62.7871V26.7351Z" fill="white"/>
<path d="M73.8062 28.3744C72.8328 27.867 72.093 27.1255 71.509 26.1888C70.9638 25.252 70.6913 24.2373 70.6913 23.0664C70.6913 21.8955 70.9638 20.8417 71.509 19.944C72.0541 19.0073 72.8328 18.3048 73.8062 17.7584C74.7797 17.251 75.8699 16.9778 77.0769 16.9778C78.0893 16.9778 79.0238 17.1729 79.8415 17.5242C80.6591 17.8755 81.36 18.3828 81.9051 19.0854L80.153 20.6856C79.3742 19.7489 78.3619 19.3196 77.1938 19.3196C76.454 19.3196 75.831 19.4757 75.2469 19.7879C74.6629 20.1001 74.2345 20.5685 73.9231 21.1149C73.6116 21.7004 73.4558 22.3248 73.4558 23.0664C73.4558 23.808 73.6116 24.4324 73.9231 25.0179C74.2345 25.6033 74.7018 26.0326 75.2469 26.3449C75.831 26.6571 76.454 26.8132 77.1938 26.8132C78.3619 26.8132 79.3353 26.3449 80.153 25.4082L81.9051 27.0084C81.36 27.7109 80.6591 28.2183 79.8415 28.5696C79.0238 28.9208 78.0893 29.116 77.0769 29.116C75.8699 29.155 74.7797 28.9208 73.8062 28.3744Z" fill="white"/>
<path d="M91.25 26.4619H85.7988L84.7475 28.9989H81.983L87.2006 17.251H89.8872L95.1437 28.9989H92.3013L91.25 26.4619ZM90.3934 24.3934L88.5244 19.905L86.6554 24.3934H90.3934Z" fill="white"/>
<path d="M97.5189 28.8037C96.6622 28.5695 95.9614 28.2183 95.4163 27.828L96.3507 25.7594C96.8569 26.1107 97.441 26.4229 98.1418 26.6571C98.8427 26.8913 99.5436 27.0083 100.206 27.0083C100.984 27.0083 101.529 26.8913 101.919 26.6571C102.269 26.4229 102.464 26.1107 102.464 25.7594C102.464 25.4862 102.347 25.252 102.152 25.0569C101.919 24.8617 101.646 24.7056 101.296 24.6275C100.945 24.5105 100.478 24.3934 99.894 24.2763C98.9985 24.0811 98.2587 23.847 97.7135 23.6518C97.1295 23.4567 96.6622 23.1054 96.2339 22.637C95.8446 22.1687 95.6109 21.5442 95.6109 20.7636C95.6109 20.0611 95.8056 19.4757 96.1561 18.8902C96.5065 18.3438 97.0906 17.9145 97.8304 17.5632C98.5702 17.251 99.4657 17.0948 100.556 17.0948C101.296 17.0948 102.036 17.1729 102.736 17.3681C103.437 17.5632 104.06 17.7974 104.605 18.1486L103.749 20.2172C102.659 19.5927 101.568 19.2805 100.478 19.2805C99.6993 19.2805 99.1542 19.3976 98.8038 19.6318C98.4533 19.8659 98.2587 20.2172 98.2587 20.6075C98.2587 20.9978 98.4533 21.31 98.8816 21.5052C99.31 21.7003 99.933 21.8955 100.79 22.0906C101.685 22.2858 102.425 22.52 102.97 22.7151C103.554 22.9103 104.021 23.2615 104.45 23.7299C104.839 24.1982 105.073 24.8227 105.073 25.6033C105.073 26.2668 104.878 26.8913 104.528 27.4377C104.138 27.9841 103.593 28.4134 102.853 28.7647C102.113 29.0769 101.179 29.233 100.128 29.233C99.271 29.155 98.3755 29.0379 97.5189 28.8037Z" fill="white"/>
<path d="M109.317 19.4366H105.579V17.2119H115.819V19.4366H112.003V28.9988H109.278V19.4366H109.317Z" fill="white"/>
<path d="M118.311 28.8037C117.455 28.5695 116.754 28.2183 116.209 27.828L117.143 25.7594C117.649 26.1107 118.233 26.4229 118.934 26.6571C119.635 26.8913 120.336 27.0083 120.998 27.0083C121.777 27.0083 122.322 26.8913 122.711 26.6571C123.061 26.4229 123.256 26.1107 123.256 25.7594C123.256 25.4862 123.139 25.252 122.945 25.0569C122.711 24.8617 122.439 24.7056 122.088 24.6275C121.738 24.5105 121.27 24.3934 120.686 24.2763C119.791 24.0811 119.051 23.847 118.506 23.6518C117.922 23.4567 117.455 23.1054 117.026 22.637C116.637 22.1687 116.403 21.5442 116.403 20.7636C116.403 20.0611 116.598 19.4757 116.948 18.8902C117.299 18.3438 117.883 17.9145 118.623 17.5632C119.362 17.251 120.258 17.0948 121.348 17.0948C122.088 17.0948 122.828 17.1729 123.529 17.3681C124.23 17.5632 124.853 17.7974 125.398 18.1486L124.541 20.2172C123.451 19.5927 122.361 19.2805 121.27 19.2805C120.492 19.2805 119.947 19.3976 119.596 19.6318C119.246 19.8659 119.051 20.2172 119.051 20.6075C119.051 20.9978 119.246 21.31 119.674 21.5052C120.102 21.7003 120.725 21.8955 121.582 22.0906C122.477 22.2858 123.217 22.52 123.762 22.7151C124.346 22.9103 124.814 23.2615 125.242 23.7299C125.631 24.1982 125.865 24.8227 125.865 25.6033C125.865 26.2668 125.67 26.8913 125.32 27.4377C124.93 27.9841 124.385 28.4134 123.646 28.7647C122.906 29.0769 121.971 29.233 120.92 29.233C120.063 29.155 119.168 29.0379 118.311 28.8037Z" fill="white"/>
<path d="M30.8227 14.7824L30.809 5.68445L34.2397 5.67929C34.8476 5.67838 35.3036 5.69945 35.6294 5.76425C36.0855 5.82887 36.4549 5.98067 36.7591 6.17611C37.0634 6.3933 37.3027 6.6759 37.477 7.04565C37.6512 7.4154 37.7604 7.82878 37.7611 8.28586C37.7623 9.06941 37.5244 9.72273 37.0258 10.2459C36.5272 10.7907 35.6591 11.0532 34.378 11.0552L32.0547 11.0587L32.0603 14.7588L30.8227 14.7824ZM32.0097 10.014L34.3547 10.0104C35.1364 10.0093 35.679 9.85609 36.0043 9.57265C36.3296 9.28921 36.4809 8.87545 36.4801 8.35307C36.4796 7.98306 36.3922 7.65671 36.1964 7.37405C36.0006 7.11316 35.7614 6.91763 35.4356 6.83106C35.2401 6.78782 34.8709 6.74484 34.3064 6.74569L31.9831 6.74918L32.0097 10.014Z" fill="white"/>
<path d="M45.0748 5.66319L46.269 5.66138L46.2768 10.9068C46.2782 11.8209 46.1707 12.5394 45.9761 13.0838C45.7815 13.6282 45.3913 14.0641 44.8707 14.3914C44.3283 14.7187 43.6338 14.8939 42.7435 14.8952C41.8967 14.8965 41.2016 14.7452 40.6584 14.463C40.1151 14.1809 39.7236 13.7462 39.5056 13.1806C39.2659 12.6151 39.1563 11.8753 39.1548 10.8958L39.147 5.65039L40.3412 5.64858L40.349 10.894C40.3502 11.6776 40.4162 12.2651 40.5688 12.6349C40.7213 13.0047 40.9606 13.2873 41.3301 13.5044C41.6778 13.6997 42.1339 13.8079 42.6333 13.8071C43.5236 13.8058 44.153 13.6089 44.5215 13.1948C44.89 12.8025 45.0843 12.0186 45.0826 10.8869L45.0748 5.66319Z" fill="white"/>
<path d="M48.5799 11.8174L49.7088 11.7068C49.7529 12.1638 49.8838 12.5336 50.0796 12.8163C50.2754 13.0989 50.5798 13.3379 50.9926 13.5114C51.4054 13.6849 51.8615 13.7713 52.3826 13.7705C52.8386 13.7698 53.2511 13.7039 53.5983 13.5728C53.9455 13.4416 54.2058 13.2454 54.3791 13.0057C54.5525 12.766 54.639 12.5047 54.6385 12.2217C54.6381 11.9388 54.5509 11.6777 54.3986 11.4821C54.2246 11.2647 53.9637 11.091 53.5727 10.9392C53.3337 10.8525 52.7906 10.701 51.9652 10.5063C51.1398 10.3117 50.5533 10.1167 50.2056 9.9431C49.771 9.7261 49.4449 9.44364 49.2272 9.09573C49.0096 8.76958 48.9004 8.37796 48.8998 7.96442C48.8991 7.50735 49.0288 7.07186 49.2887 6.67969C49.5487 6.28752 49.9174 5.98225 50.4165 5.76384C50.9156 5.5672 51.48 5.45751 52.0879 5.45659C52.7611 5.45557 53.3475 5.56351 53.8689 5.78037C54.3904 5.99724 54.7817 6.32313 55.0646 6.73624C55.3475 7.14935 55.5002 7.62795 55.5227 8.17205L54.3721 8.26086C54.3061 7.69506 54.11 7.26005 53.7404 6.9559C53.3926 6.67348 52.8495 6.52194 52.1547 6.52299C51.4381 6.52408 50.8955 6.65549 50.5702 6.91716C50.2449 7.17884 50.0717 7.50559 50.0722 7.8756C50.0727 8.20208 50.1817 8.46308 50.4208 8.68037C50.66 8.89767 51.2466 9.11443 52.224 9.3306C53.2015 9.54678 53.8749 9.74165 54.2225 9.91524C54.744 10.1539 55.1353 10.458 55.3965 10.8494C55.6576 11.219 55.7668 11.6541 55.7675 12.133C55.7682 12.6118 55.6386 13.0691 55.357 13.5048C55.0754 13.9405 54.685 14.2676 54.1643 14.5078C53.6435 14.748 53.0574 14.8577 52.4277 14.8587C51.6026 14.8599 50.9293 14.7304 50.3644 14.4918C49.7995 14.2532 49.3646 13.8839 49.0599 13.4055C48.7553 12.9707 48.6025 12.4268 48.5799 11.8174Z" fill="white"/>
<path d="M57.1394 14.7426L57.1258 5.64478L58.32 5.64297L58.3256 9.36482L63.0374 9.35769L63.0319 5.63584L64.2261 5.63403L64.2397 14.7319L63.0455 14.7337L63.039 10.446L58.3272 10.4531L58.3336 14.7408L57.1394 14.7426Z" fill="white"/>
<path d="M71.3184 14.7214L71.3048 5.62354L74.7138 5.61838C75.4086 5.61732 75.9516 5.70356 76.3861 5.89879C76.799 6.07229 77.1251 6.35475 77.3645 6.74616C77.6039 7.13757 77.7131 7.52918 77.7137 7.94272C77.7143 8.3345 77.6063 8.70467 77.3896 9.03148C77.173 9.38005 76.8694 9.64169 76.4355 9.86C76.9786 10.0115 77.4132 10.2938 77.6961 10.6852C78.0007 11.0765 78.1316 11.5334 78.1324 12.0557C78.1331 12.491 78.0468 12.8829 77.8736 13.2532C77.7005 13.6235 77.4838 13.9068 77.2018 14.1031C76.9415 14.2994 76.6161 14.4522 76.2037 14.5617C75.813 14.6711 75.3136 14.7154 74.7491 14.7162L71.3184 14.7214ZM72.5047 9.43065L74.4589 9.42769C74.98 9.4269 75.3708 9.38278 75.6096 9.31712C75.9134 9.2296 76.152 9.07687 76.3037 8.85899C76.4554 8.64111 76.5418 8.3798 76.5414 8.07508C76.5409 7.77037 76.4754 7.50928 76.3231 7.2701C76.1707 7.03091 75.975 6.87885 75.7144 6.79218C75.4537 6.70551 74.9759 6.66271 74.3245 6.6637L72.5223 6.66642L72.5047 9.43065ZM72.511 13.6313L74.7692 13.6279C75.16 13.6273 75.4206 13.6052 75.5942 13.5831C75.8764 13.5392 76.0934 13.4518 76.2887 13.3427C76.484 13.2335 76.6357 13.0592 76.7439 12.8414C76.8522 12.6236 76.9169 12.3623 76.9165 12.0793C76.916 11.7311 76.8287 11.4483 76.6546 11.1873C76.4805 10.9482 76.2414 10.7527 75.9373 10.6661C75.6331 10.5577 75.1771 10.5149 74.6125 10.5157L72.5063 10.5189L72.511 13.6313Z" fill="white"/>
<path d="M86.7648 5.6002L87.959 5.5984L87.9668 10.8438C87.9682 11.758 87.8607 12.4764 87.6661 13.0208C87.4715 13.5652 87.0813 14.0011 86.5607 14.3284C86.0183 14.6557 85.3238 14.8309 84.4335 14.8322C83.5867 14.8335 82.8916 14.6822 82.3484 14.4001C81.8051 14.1179 81.4136 13.6832 81.1956 13.1177C80.9559 12.5521 80.8463 11.8123 80.8448 10.8328L80.837 5.5874L82.0312 5.58559L82.0391 10.831C82.0402 11.6146 82.1062 12.2021 82.2588 12.5719C82.4113 12.9417 82.6506 13.2243 83.0201 13.4414C83.3678 13.6367 83.8239 13.7449 84.3233 13.7441C85.2136 13.7428 85.843 13.5459 86.2115 13.1318C86.58 12.7395 86.7743 11.9557 86.7726 10.8239L86.7648 5.6002Z" fill="white"/>
<path d="M93.553 14.6879L93.541 6.6783L90.5446 6.68284L90.543 5.61633L97.7301 5.60545L97.7317 6.67196L94.7353 6.67649L94.7472 14.6861L93.553 14.6879Z" fill="white"/>
<path d="M101.609 14.6757L101.597 6.66609L98.6003 6.67063L98.5987 5.60413L105.786 5.59325L105.787 6.65975L102.791 6.66429L102.803 14.6739L101.609 14.6757Z" fill="white"/>
<path d="M106.553 10.2281C106.551 8.72632 106.961 7.5286 107.763 6.67854C108.566 5.82848 109.607 5.39161 110.888 5.38967C111.735 5.38839 112.474 5.58315 113.147 5.99567C113.821 6.38643 114.343 6.95154 114.692 7.66927C115.04 8.387 115.215 9.19204 115.216 10.1062C115.218 11.0203 115.023 11.8477 114.655 12.5883C114.287 13.3071 113.767 13.8738 113.073 14.2448C112.4 14.6159 111.662 14.8129 110.881 14.8141C110.034 14.8153 109.274 14.6206 108.6 14.2081C107.926 13.7956 107.426 13.2304 107.077 12.5127C106.729 11.795 106.554 11.0334 106.553 10.2281ZM107.791 10.248C107.792 11.3363 108.097 12.2064 108.685 12.8367C109.272 13.467 110.011 13.7706 110.901 13.7693C111.813 13.7679 112.551 13.4403 113.136 12.8082C113.721 12.1762 114.002 11.2616 114 10.108C113.999 9.368 113.868 8.71525 113.628 8.17148C113.389 7.62771 113.019 7.19296 112.541 6.88896C112.063 6.58497 111.52 6.43344 110.933 6.43433C110.086 6.43561 109.349 6.71968 108.742 7.30826C108.091 7.89691 107.767 8.87684 107.791 10.248Z" fill="white"/>
<path d="M118.762 14.6499L118.749 5.552L119.987 5.55013L124.752 12.6819L124.742 5.54293L125.893 5.54119L125.906 14.6391L124.669 14.6409L119.903 7.50913L119.913 14.6481L118.762 14.6499Z" fill="white"/>
<path fill-rule="evenodd" clip-rule="evenodd" d="M24.8696 16.6075L24.8566 21.0116C24.8778 25.8266 21.4422 29.8535 16.7945 30.9919L16.8 33.8286L15.2036 33.8093L15.2047 37.0192L13.1016 37.0312L13.1005 33.8213L11.504 33.8021L11.4985 30.9654C6.83865 29.8268 3.4202 25.7919 3.43799 20.9774L3.45094 16.5733L4.38546 16.5845L4.37735 20.5781C4.3941 25.7664 8.7453 29.9618 14.1586 29.9524C19.5719 29.943 23.9437 25.7781 23.927 20.5898L23.9351 16.5962L24.8696 16.6075Z" fill="white"/>
<path fill-rule="evenodd" clip-rule="evenodd" d="M4.35767 16.6014L2.02158 16.6122L2.01013 17.5872C2.01013 17.5872 1.89335 17.5858 1.81549 17.5848C0.803386 17.5726 -0.00446783 16.7437 -0.0319465 15.7682C-0.02004 14.7542 0.807048 13.9451 1.78069 13.9178C1.85854 13.9188 1.97532 13.9202 1.97532 13.9202L1.96433 14.8562L4.30042 14.8455L4.35767 16.6014ZM23.8835 14.8484L25.4406 14.8672L25.4516 13.9312C25.4516 13.9312 25.5684 13.9326 25.6463 13.9335C26.6584 13.9458 27.4662 14.7747 27.4937 15.7502C27.4818 16.7642 26.6547 17.5733 25.6811 17.6005C25.6032 17.5996 25.4864 17.5982 25.4864 17.5982L25.4979 16.6231L23.9408 16.6043L23.8835 14.8484Z" fill="white"/>
<path fill-rule="evenodd" clip-rule="evenodd" d="M5.50714 17.3188L5.50507 14.1965L22.7564 14.2088L22.7585 17.3311L15.3595 17.3202C15.1259 17.3174 14.9289 17.5101 14.9262 17.7443C14.9234 17.9784 15.1158 18.1759 15.3494 18.1787L22.7483 18.1896L22.7359 19.2432L15.337 19.2323C15.1033 19.2295 14.9064 19.4223 14.9036 19.6564C14.9008 19.8905 15.0932 20.088 15.3268 20.0908L22.7258 20.1017C22.7216 20.4529 22.6785 20.8037 22.6354 21.1544L15.3144 21.1444C15.0808 21.1416 14.8838 21.3344 14.881 21.5685C14.8782 21.8027 15.0706 22.0001 15.3042 22.0029L22.4696 22.0111C21.9353 24.3854 20.3534 26.4349 18.2759 27.5807L18.2775 24.1462C18.2803 23.9121 18.0879 23.7146 17.8543 23.7118C17.6206 23.709 17.4237 23.9018 17.4209 24.1359L17.4142 27.9997C17.0619 28.1515 16.7491 28.2649 16.3972 28.3777L16.4081 24.1628C16.4108 23.9286 16.2185 23.7312 15.9848 23.7284C15.7512 23.7256 15.5542 23.9183 15.5515 24.1525L15.5383 28.5625C15.187 28.6364 14.8361 28.6712 14.4856 28.667L14.6573 24.0246C14.6601 23.7905 14.4677 23.593 14.2341 23.5902C14.0004 23.5874 13.8034 23.7802 13.8007 24.0143L13.8246 28.581C13.4742 28.5767 13.1242 28.5335 12.7743 28.4903L12.7879 24.0412C12.7906 23.807 12.5982 23.6096 12.3646 23.6068C12.131 23.604 11.934 23.7967 11.9313 24.0309L11.92 28.2848C11.5705 28.2026 11.2214 28.0813 10.8724 27.96L10.88 24.0182C10.8827 23.7841 10.6903 23.5866 10.4567 23.5838C10.2231 23.581 10.0261 23.7738 10.0233 24.0079L10.0203 27.5595C7.85325 26.4016 6.24186 24.3527 5.68684 21.8873L12.8911 21.8959C13.1247 21.8987 13.3217 21.7059 13.3245 21.4717C13.3272 21.2376 13.1348 21.0402 12.9012 21.0373L5.54123 21.0269C5.50644 20.6752 5.47165 20.3235 5.4758 19.9723L12.9137 19.9837C13.1473 19.9865 13.3443 19.7938 13.347 19.5596C13.3498 19.3255 13.1574 19.128 12.9238 19.1252L5.48594 19.1138L5.49838 18.0602L12.9362 18.0716C13.1699 18.0744 13.3669 17.8816 13.3696 17.6475C13.3724 17.4134 13.18 17.2159 12.9464 17.2131L5.50714 17.3188ZM13.0853 15.3414L6.38725 15.3389L6.37757 16.1584L13.0756 16.1609C13.2703 16.1632 13.4284 15.97 13.4311 15.7358C13.4724 15.5412 13.3189 15.3442 13.0853 15.3414ZM15.2273 15.3281L21.9254 15.3306L21.9157 16.1501L15.2176 16.1476C15.0229 16.1453 14.8695 15.9483 14.8723 15.7141C14.8746 15.519 15.0322 15.3648 15.2273 15.3281Z" fill="#D83E47"/>
<path fill-rule="evenodd" clip-rule="evenodd" d="M10.8685 11.8791C10.8508 10.0839 12.3085 8.65771 14.0999 8.64024C15.8914 8.62276 17.3149 10.0836 17.3327 11.8788L22.7845 11.8663L22.7711 12.9977L5.63743 12.9868L5.65079 11.8554L10.8685 11.8791Z" fill="#D83E47"/>
<path d="M24.8245 10.6802L23.6564 10.6661C23.6401 5.43686 19.3677 1.17083 14.1493 1.1859C8.93087 1.20098 4.63627 5.44167 4.65214 10.71L3.48405 10.6959C3.47552 4.8033 8.28319 -0.0165501 14.1631 0.0153806C20.0434 0.00829391 24.816 4.78766 24.8245 10.6802Z" fill="#D83E47"/>
<path d="M22.2929 10.689L21.1248 10.6749C21.1314 6.81163 18.0138 3.69114 14.1587 3.68369C10.3035 3.67624 7.19033 6.79967 7.18375 10.663L6.01566 10.6489C6.02959 6.16129 9.65541 2.49771 14.1729 2.47412C18.6506 2.52809 22.2679 6.20094 22.2929 10.689Z" fill="#D83E47"/>
<path d="M19.7614 10.6978L18.5934 10.6837C18.5834 8.22511 16.5821 6.21075 14.1676 6.22067C11.7142 6.23012 9.70453 8.23515 9.71496 10.6548L8.54687 10.6407C8.54425 7.55775 11.0665 5.01256 14.1429 5.01063C17.2185 5.08672 19.7588 7.61489 19.7614 10.6978Z" fill="#D83E47"/>
</svg>
