<svg width="62" height="65" viewBox="0 0 62 65" fill="none" xmlns="http://www.w3.org/2000/svg">
<path d="M62.0033 60.2931C61.6572 60.3335 61.2467 60.3497 60.8523 60.3093C60.3774 60.2609 60.0473 60.0913 59.7898 59.9621C59.5241 59.8249 59.2746 59.6957 59.0009 59.8168C58.7514 59.9218 58.6468 60.172 58.5824 60.382C58.4616 60.7614 58.518 61.1409 58.5743 61.4477C57.7936 60.9794 57.5038 60.5273 57.0208 59.7764C56.9242 59.623 56.8116 59.4535 56.6989 59.2759C55.9905 58.2102 54.268 56.8135 52.9318 56.5067C52.6662 56.4501 52.3603 56.3613 52.0383 56.2725C50.8149 55.9254 49.5431 55.5701 48.8911 56.0949C48.7221 56.2322 48.6416 56.4179 48.6657 56.6197C48.7221 57.201 49.6075 57.7661 51.2093 58.6058C51.3783 58.6946 51.5232 58.7673 51.5795 58.8076C51.8371 58.961 52.2476 59.074 52.6501 59.1871C52.7386 59.2113 52.8352 59.2355 52.9318 59.2678C52.7145 59.3566 52.4489 59.4616 52.1832 59.5423L51.6359 59.7119L52.0303 60.1236C52.1269 60.2205 52.7869 60.9067 53.3182 61.3669C52.304 60.9229 51.8452 60.8583 51.6037 61.1732C51.4105 61.4315 51.3864 61.8433 51.3542 62.3277C51.3461 62.3923 51.3461 62.4649 51.3381 62.5376C51.2576 62.3115 51.1771 62.0693 51.1046 61.8594C50.5251 60.164 50.1307 59.1306 49.5511 59.0014C49.2855 58.9449 49.1004 59.0175 48.9877 59.0902C48.6738 59.292 48.5933 59.7038 48.5208 60.0671C48.5128 60.0913 48.5128 60.1155 48.5047 60.1398C48.3759 59.8572 48.215 59.4374 48.0781 59.0821C47.4422 57.4432 46.581 55.1987 45.3414 54.7224C43.1278 53.8666 41.9124 53.5114 41.4295 53.9231C41.3329 54.0119 41.1719 54.2057 41.2443 54.5448C41.357 55.0857 42.2263 55.78 43.643 56.8457C44.1662 57.2414 44.8584 57.7661 45.1241 58.0487C44.9711 58.0891 44.7377 58.1133 44.5767 58.1375C43.9891 58.2102 43.2647 58.299 43.2647 58.9126C43.2647 59.3728 43.9408 60.3174 47.41 63.7648C47.732 64.0796 48.0379 64.338 48.3196 64.5479C47.5147 64.3945 46.5649 64.0635 45.7921 63.3934C44.8826 62.5941 44.3352 61.6899 43.9408 61.0359C43.5303 60.3577 43.2325 59.8653 42.7334 59.9864C42.2183 60.1155 41.9848 60.6726 41.6709 61.4557C41.518 61.8352 41.3329 62.2712 41.0914 62.7475C40.5923 63.7163 39.5298 64.1684 38.7491 64.3784C38.8859 64.2169 39.0388 64.0473 39.1837 63.8859C39.9806 62.9897 40.8901 61.9805 41.0431 61.2055C41.1316 60.7614 41.2765 60.3174 41.3973 59.9298C41.6548 59.1144 41.8561 58.4766 41.5582 58.0487C41.4697 57.9276 41.349 57.8469 41.2041 57.8307C40.866 57.7823 40.544 58.0487 40.1255 58.3797C39.9484 58.517 39.6586 58.7511 39.4735 58.8399C39.5218 58.6946 39.6264 58.4847 39.715 58.3232C40.0691 57.6047 40.6004 56.5309 40.2865 55.3683C39.9001 53.9474 39.0227 52.6879 38.3063 52.4941C38.081 52.4376 37.8556 52.486 37.7107 52.6394C37.5739 52.7767 34.4427 55.9415 34.6037 57.4513C34.6278 57.6854 34.6439 57.9437 34.66 58.2183C34.7003 58.9206 34.7566 59.728 34.9901 60.4385C34.4991 59.9702 34.008 59.3243 33.7907 58.5573L33.6136 57.9115L33.179 58.4201C32.3741 59.3728 31.9796 60.382 31.9796 61.48C31.6577 60.8583 31.3438 59.9137 31.6013 59.3163C31.8589 58.735 32.2453 58.1294 32.5914 57.5966C33.1951 56.6681 33.5895 56.0465 33.1226 55.6993C32.6799 55.3683 31.545 54.3107 31.5933 53.4306C31.6094 53.1723 31.7221 52.9382 31.9474 52.7202C32.3097 53.9796 32.7041 54.6336 33.2273 54.8758C33.5734 55.0373 33.9598 55.005 34.3864 54.7951C34.8774 54.5448 35.7467 53.9958 36.0204 53.0754C36.1974 52.4941 36.0928 51.8725 35.7225 51.2346C35.0705 50.1205 33.7424 49.6442 32.6799 49.2647C32.1326 49.0709 31.6094 48.8853 31.384 48.6673C31.1908 48.4896 31.0218 48.312 30.8688 48.1586C30.3939 47.6742 30.0237 47.2867 29.4683 47.3351C28.9209 47.3836 25.0412 48.2717 24.9848 50.5645C24.9366 52.6394 25.7656 53.8182 27.456 54.0765C28.3575 54.2138 29.2751 53.9151 29.9029 53.6244C29.6776 54.0927 29.2751 54.682 28.5668 55.1099L28.3414 55.2472L28.5346 55.9496C28.9129 57.3544 29.1463 58.2183 29.1705 58.9933C28.5829 57.2414 28.0194 55.99 27.2306 55.4732C26.6108 55.0696 26.1198 54.6497 25.9427 54.4641C25.9266 54.4156 25.9105 54.3752 25.8944 54.343C25.822 54.238 25.7093 54.1734 25.5805 54.1734C25.4115 54.1734 25.2746 54.2784 25.2263 54.4398C25.1941 54.5609 25.2022 54.6578 25.2988 54.7951C25.3471 55.2149 25.3229 56.5067 25.2102 56.7973C25.1458 56.9588 25.0975 57.0637 25.0573 57.1283C24.8319 56.7327 24.4455 55.7639 24.3812 55.0776C24.349 54.7628 24.357 54.4964 24.357 54.2541C24.357 53.7697 24.3651 53.358 24.1236 52.9059C24.0189 52.7121 23.9545 52.3972 23.8982 52.1227C23.7936 51.5899 23.6728 50.9924 23.1496 50.9924C22.715 50.9924 21.8376 51.6948 21.3144 52.3246C20.767 52.9785 20.5336 53.6163 20.6383 54.1653C20.759 54.8032 20.9844 55.0857 21.2339 55.2553C21.1454 55.2956 21.0246 55.3279 20.9602 55.3441C20.6946 55.4248 20.4209 55.5055 20.3243 55.7639C20.2921 55.8446 20.2599 56.0142 20.3807 56.1999C20.4048 56.2402 20.4451 56.329 20.4853 56.4259C20.7429 57.0072 21.2741 58.2183 22.9886 59.1225C23.9062 59.6069 24.9848 59.946 25.8944 60.2205C24.8158 60.1075 23.9626 60.1075 23.5118 60.4708C23.3348 60.6161 23.2221 60.8099 23.1979 61.0278C23.0691 62.2469 22.6023 63.7163 22.1032 64.4591C21.9986 64.6125 21.9342 64.6448 21.91 64.6448C21.8859 64.6448 21.8376 64.6125 21.7973 64.5721C22.1676 63.8536 23.1657 61.6899 22.3608 60.6645C22.1435 60.382 21.9181 60.0348 21.7088 59.7038C21.1856 58.8884 20.8153 58.299 20.3243 58.299C20.2036 58.299 19.9782 58.3394 19.8011 58.6058C19.6562 58.8238 19.1974 59.2517 18.7064 59.7038C17.7808 60.5596 16.7263 61.5284 16.4527 62.2712C16.187 62.9897 16.2836 63.4499 16.3722 63.8536C16.4285 64.1039 16.4768 64.3218 16.4285 64.6044L16.4124 64.7174C16.3963 64.8385 16.3722 64.9516 16.3641 65.0565C16.026 64.6367 15.5914 64.3541 15.0843 64.451C14.5933 64.5398 13.8125 64.5721 13.1766 64.5802C13.8286 64.0554 14.553 63.4176 14.6818 63.0624C14.7382 62.909 14.7221 62.7556 14.6335 62.6183C14.4323 62.3035 13.7803 62.1097 13.08 61.9967C14.1184 61.2781 15.688 60.2931 16.4124 60.2366C17.6842 60.1478 18.4811 58.3474 18.7789 57.6693C18.8111 57.5966 18.8433 57.5159 18.8594 57.4916C19.0606 57.1445 19.2699 54.569 19.0284 53.7536C18.964 53.5275 18.8594 53.3822 18.7145 53.3095C18.3523 53.1319 17.6842 53.3822 17.1851 53.6325C16.1307 54.1573 14.9313 55.1422 14.714 56.3129C14.4886 57.5481 13.4744 58.2586 13.0478 58.5654C12.9915 58.6058 12.9512 58.6381 12.911 58.6623C12.8949 58.6623 12.8788 58.6542 12.8627 58.6542C12.7259 58.6219 12.5327 58.5896 12.3234 58.6139C12.5085 58.412 12.7098 58.186 12.911 57.9599C14.215 56.4501 14.3357 55.9334 14.2794 55.6266C14.2472 55.441 14.1425 55.3037 13.9735 55.223C13.7803 55.1342 13.2571 54.8839 11.0838 56.6358C10.0052 57.5078 8.91051 58.5654 8.5322 59.1144C8.29877 59.4535 8.11364 59.7522 7.98485 60.0025C7.92045 59.9137 7.84801 59.833 7.75947 59.7522C7.55824 59.5827 7.21212 59.3889 6.66477 59.4535C6.17377 59.51 5.68277 59.5746 5.2642 59.6392C5.62642 59.3485 6.04498 59.0175 6.38305 58.743C7.12358 58.1537 7.55019 57.8146 7.66288 57.7015C7.89631 57.4674 8.009 57.0314 7.79972 56.7085C7.52604 56.3048 6.95455 56.2806 6.08523 56.6358C4.71686 57.201 2.125 58.4766 1.08665 59.6553C0.829072 59.9541 0.668087 60.1478 0.571496 60.2851C0.603693 59.9379 0.668087 59.4535 0.772727 58.9852L0.812973 58.7915L0 57.9518C0.410511 57.8711 0.949811 57.7581 1.49716 57.6289C3.7107 57.1041 3.93608 56.8054 3.98438 56.4986C4.06487 56.0061 3.52557 55.7155 2.87358 55.441C4.39489 55.5378 7.17187 55.6993 10.1984 54.7386C13.8608 53.576 16.8712 52.0016 18.6662 51.0651C19.0204 50.8794 19.3182 50.726 19.5758 50.5968C19.8575 50.4515 20.2841 50.29 20.767 50.0963C22.9725 49.2243 26.6671 47.7711 26.973 44.8162C27.0696 43.92 27.1179 42.9028 27.1742 41.8209C27.3352 38.753 27.5204 35.2813 28.6714 32.3587C29.3395 30.6552 29.2509 28.9436 29.1544 27.2886C29.0175 24.8826 28.8968 22.6059 31.0298 20.4099C32.4787 18.9244 34.0724 18.004 35.5294 17.35C38.411 17.8102 39.554 20.5714 39.4493 22.4041C39.4332 22.5978 39.5862 22.7674 39.7794 22.7755C39.7874 22.7755 39.7955 22.7755 39.8035 22.7755C39.9886 22.7755 40.1416 22.6301 40.1577 22.4444C40.214 21.5241 40.0208 20.5633 39.6103 19.6914C39.9242 19.7721 40.2382 19.8044 40.5521 19.8044C41.6951 19.8044 42.7415 19.3603 43.1439 19.0778C43.3049 18.9647 43.3452 18.7468 43.2325 18.5853C43.1198 18.4238 42.9025 18.3834 42.7415 18.4965C42.2263 18.8517 40.3267 19.5622 38.9744 18.6418C38.3868 17.8748 37.59 17.2532 36.608 16.8979C36.946 16.7607 37.268 16.6396 37.5658 16.5265C38.9342 16.0098 39.9242 15.6304 40.214 14.928C40.4313 14.4113 40.3991 13.7815 40.2623 13.0872C41.0592 12.6512 43.9489 11.3595 45.8726 14.274C45.937 14.379 46.0497 14.4355 46.1705 14.4355C46.2348 14.4355 46.3073 14.4193 46.3636 14.379C46.5246 14.274 46.5729 14.048 46.4602 13.8865C44.3513 10.6974 41.2202 11.8277 40.0933 12.3848C40.0047 12.0619 39.9081 11.7309 39.8116 11.3998C39.5298 10.4552 39.232 9.47027 39.1757 8.56604C39.1757 8.51759 39.1676 8.46915 39.1676 8.42071C40.375 8.00089 41.5743 9.09889 41.5824 9.10696C41.6468 9.17155 41.7353 9.20384 41.8239 9.20384C41.9205 9.20384 42.009 9.16348 42.0814 9.09081C42.2183 8.94549 42.2102 8.72751 42.0653 8.59026C42.0009 8.53374 40.6728 7.29849 39.1596 7.67795C39.232 5.66764 40.0047 4.74725 40.0128 4.73918C40.1416 4.59386 40.1335 4.3678 39.9806 4.23862C39.8357 4.10945 39.6103 4.11752 39.4815 4.27092C39.4332 4.31936 38.3868 5.53039 38.4432 8.20273V8.21887C38.4432 8.34805 38.4512 8.47723 38.4593 8.61448C38.5237 9.59945 38.8215 10.6248 39.1193 11.6098C39.4815 12.8369 39.8276 13.9914 39.5459 14.6616C39.3688 15.0814 38.411 15.4447 37.3002 15.8645C35.4006 16.5831 32.7926 17.5761 30.5147 19.9174C28.3253 22.1619 28.3011 24.5193 28.4138 26.8122C27.7779 28.2574 25.9347 29.2666 24.0994 29.1697C22.6586 29.089 21.6122 28.3139 21.25 27.0302C21.1937 26.8445 21.0005 26.7315 20.8153 26.788C20.6302 26.8445 20.5175 27.0383 20.5739 27.224C21.0327 28.8145 22.3045 29.7752 24.0672 29.8721C24.1638 29.8802 24.2604 29.8802 24.349 29.8802C25.9588 29.8802 27.5445 29.1455 28.4782 28.0232C28.5426 29.4038 28.5346 30.7279 28.0275 32.0439C27.3755 32.8189 25.9347 33.4487 24.4858 33.5778C22.9242 33.7151 21.4754 33.2953 20.3968 32.391C20.276 31.7613 19.6804 29.1374 17.974 28.5642C17.5473 28.4188 17.1771 28.3139 16.8551 28.2251C15.8087 27.9183 15.6477 27.8376 15.6477 27.5711C15.6477 27.3774 15.8248 26.9898 16.0019 26.6104C16.3883 25.7869 16.8632 24.7535 16.4527 23.8735C16.2353 23.3971 15.8812 23.0257 15.5753 22.6866C15.0199 22.0973 14.7221 21.734 14.9233 21.1527C15.1648 20.4422 16.3319 19.9659 17.3622 19.538C17.9337 19.3038 18.473 19.0778 18.8835 18.8194C19.447 18.4642 20.0426 17.6891 20.0346 16.5831C20.0185 15.372 19.2618 13.4909 15.7524 11.3433C15.4062 8.80824 16.2031 7.72639 19.0767 6.74949L19.1974 6.70912L19.2618 6.60417C19.3343 6.48306 19.4148 6.36196 19.4872 6.24893C21.1856 3.51201 22.224 1.84078 26.6832 2.38978C26.7798 3.50393 27.0294 4.67459 27.2789 5.82103C27.6572 7.56492 28.0114 9.21192 27.6974 10.1727C27.5445 10.6571 27.1742 11.2222 26.7235 11.8277C26.2647 11.0608 25.2424 10.4552 23.9223 10.2211C23.4716 10.1404 22.9725 10.1081 22.4654 10.1404C21.5398 9.0343 22.3366 7.16931 22.3447 7.15317C22.4252 6.97555 22.3447 6.76564 22.1596 6.6849C21.9825 6.60417 21.7732 6.6849 21.6927 6.86252C21.6525 6.95133 20.8556 8.82439 21.6766 10.2453C20.7107 10.4552 19.8011 10.9639 19.2699 11.9246C19.1733 12.0942 19.2377 12.3122 19.4067 12.409C19.5758 12.5059 19.7931 12.4413 19.8897 12.2718C20.6544 10.8912 22.4654 10.6813 23.7936 10.9235C25.0492 11.1496 26.0232 11.7712 26.2325 12.4656C26.0876 12.6512 25.9347 12.8369 25.7898 13.0146C24.8239 14.2175 23.9948 15.2509 23.9143 16.0663C23.8982 16.1955 23.8902 16.3489 23.8741 16.5185C23.6648 18.6579 23.4555 20.9831 23.5843 21.847C23.0128 22.5978 21.2178 23.494 19.4067 22.7755C19.2216 22.7028 19.0204 22.7916 18.9479 22.9773C18.8755 23.163 18.964 23.3648 19.1491 23.4375C19.7126 23.6635 20.2599 23.7523 20.7912 23.7523C22.071 23.7523 23.1899 23.2033 23.8338 22.614C24.0189 23.0257 24.3168 23.4698 24.8561 23.6878C25.0653 23.7685 25.2907 23.8089 25.5322 23.8089C26.0715 23.8089 26.6993 23.607 27.4077 23.2033C27.5767 23.1065 27.6411 22.8885 27.5445 22.7189C27.4479 22.5494 27.2306 22.4848 27.0616 22.5817C26.2244 23.058 25.5724 23.2033 25.1217 23.0177C24.6065 22.8077 24.4053 22.1619 24.3007 21.8066C24.1236 21.2092 24.4455 17.9556 24.5824 16.5669C24.5985 16.3974 24.6146 16.244 24.6226 16.1148C24.6548 15.7918 24.9044 15.3478 25.2585 14.8472C26.0795 15.7353 26.8362 16.3247 27.5606 16.6557C28.0033 16.8576 28.446 16.9544 28.8646 16.9544C29.4039 16.9544 29.9271 16.793 30.4181 16.4619C31.054 16.0341 31.4725 15.4689 31.875 14.9118C32.5914 13.9349 33.2675 13.0146 35.0866 12.8854C35.2798 12.8692 35.4247 12.6997 35.4167 12.5059C35.4006 12.3122 35.2315 12.1668 35.0383 12.1749C32.8973 12.3283 32.0521 13.4747 31.3116 14.492C30.9252 15.0168 30.5549 15.5173 30.0317 15.8726C28.8082 16.688 27.4318 16.1794 25.6932 14.2659C25.9025 13.9914 26.1278 13.7169 26.3452 13.4424C26.5303 13.2083 26.7154 12.9742 26.9006 12.7401C27.5445 11.9166 28.1321 11.0931 28.3655 10.3745C28.6151 9.59945 28.5265 8.54989 28.3172 7.37923C29.0095 7.72639 29.8707 7.82327 30.6113 7.82327C31.4564 7.82327 32.1406 7.69409 32.205 7.68602C32.3982 7.64565 32.527 7.46804 32.4867 7.27427C32.4465 7.08051 32.2694 6.95133 32.0762 6.9917C31.2391 7.14509 28.937 7.33079 28.116 6.34581C28.0677 6.11976 28.0194 5.88562 27.9711 5.65956C27.7216 4.4889 27.464 3.27787 27.3755 2.1718C29.5971 -0.686232 31.7543 -0.427878 35.1027 1.17068C35.0464 1.95381 34.8854 2.88227 34.7244 3.77843C34.6842 4.01256 34.6439 4.2467 34.6037 4.47275C34.1771 4.03678 33.5814 3.71384 32.857 3.53623C31.7462 3.26173 30.563 3.39898 29.9915 3.87531C29.8385 3.99642 29.8224 4.22248 29.9432 4.37587C30.0639 4.52927 30.2893 4.54542 30.4422 4.42431C30.7803 4.14174 31.6818 3.98027 32.688 4.23055C33.5331 4.44046 34.169 4.89258 34.4508 5.4658C34.322 6.37811 34.2576 7.22583 34.3542 7.92823C33.5814 9.89009 31.2794 10.5198 30.2571 10.4068C30.0639 10.3826 29.8868 10.5279 29.8627 10.7217C29.8385 10.9154 29.9834 11.0931 30.1766 11.1173C30.2732 11.1253 30.3859 11.1334 30.4986 11.1334C31.6818 11.1334 33.6297 10.5198 34.66 8.88898C34.6922 8.94549 34.7325 9.01008 34.7727 9.0666C35.5696 10.1646 36.3021 10.8993 36.6965 11.2949C36.8172 11.4079 36.9219 11.5209 36.9541 11.5613C37.0265 11.6501 37.1312 11.6986 37.2358 11.6986C37.3082 11.6986 37.3887 11.6743 37.4531 11.6259C37.6061 11.5048 37.6383 11.2868 37.5175 11.1253C37.4612 11.0446 37.3565 10.9477 37.1955 10.7863C36.8172 10.4068 36.1089 9.69633 35.3442 8.64677C34.7325 7.79905 35.1027 5.73223 35.4247 3.91568C35.5938 2.97915 35.7628 2.0184 35.8111 1.18683C39.0549 -0.532834 40.6567 0.605534 42.6851 2.04262C42.7898 2.11528 42.8944 2.18795 42.9991 2.26868C43.804 3.95605 43.3613 5.41736 42.9508 6.37811C42.8783 6.55573 42.9588 6.76564 43.1359 6.84637C43.1842 6.86252 43.2325 6.87867 43.2727 6.87867C43.4096 6.87867 43.5383 6.79793 43.5947 6.66068C44.2628 5.08634 44.3191 3.65733 43.7718 2.28483C45.2689 1.98611 46.6212 2.21217 47.3456 2.89842C47.9413 3.46356 48.1506 4.31936 47.9735 5.44965C47.7401 5.56268 47.5308 5.69993 47.3376 5.86948C46.5327 6.55573 46.2268 7.54877 46.4924 8.67099C46.8063 9.99505 47.5066 10.754 48.1184 11.4241C48.7301 12.0861 49.2131 12.6109 49.2533 13.5474C49.3419 15.6062 48.6335 16.3247 48.0057 16.7203C47.8205 16.8414 47.4503 16.9302 47.0639 17.0352C45.9934 17.3097 44.5204 17.6891 44.0213 19.1908C43.9006 19.5541 43.804 19.8771 43.7074 20.2C43.3291 21.4595 43.0795 22.2991 42.0573 23.0419C41.4777 23.4617 40.8821 23.607 40.2543 23.7604C39.5701 23.9219 38.8617 24.0995 38.1776 24.6162C38.1373 24.5597 38.089 24.5032 38.0488 24.4467C37.4934 23.7523 36.455 22.4606 36.7609 21.1607C36.8092 20.967 36.6884 20.7813 36.4953 20.7328C36.3021 20.6844 36.117 20.8055 36.0687 20.9912C35.6742 22.6382 36.8977 24.156 37.4934 24.8907C37.5417 24.9553 37.598 25.028 37.6463 25.0845C36.9138 25.8111 36.2055 26.6669 35.8352 27.7164C34.4588 27.5792 33.4607 26.8526 32.9214 25.6254C32.9134 25.585 32.8973 25.5447 32.8731 25.5124C32.6236 24.8988 32.4867 24.1641 32.4787 23.3164C32.4787 23.1226 32.3177 22.9692 32.1245 22.9692H32.1165C31.9233 22.9692 31.7623 23.1307 31.7704 23.3325C31.7784 24.0914 31.8911 24.7858 32.0923 25.3993C31.4806 25.5205 30.901 25.8757 30.4583 26.4166C29.9915 26.9898 29.7661 27.6599 29.8788 28.1686C29.911 28.3381 30.0639 28.4511 30.2249 28.4511C30.2491 28.4511 30.2732 28.4511 30.2973 28.4431C30.4905 28.4027 30.6113 28.217 30.571 28.0232C30.5227 27.7891 30.6354 27.3208 31.0057 26.8687C31.3759 26.4166 31.8589 26.134 32.358 26.0775C32.5189 26.4166 32.7121 26.7234 32.9455 26.9979C33.6136 27.7972 34.5393 28.2816 35.642 28.4188C35.5535 28.9033 35.5294 29.428 35.6018 30.0013C35.6259 30.1789 35.7789 30.3081 35.956 30.3081C35.9721 30.3081 35.9882 30.3081 36.0043 30.3081C36.1974 30.2838 36.3343 30.1062 36.3101 29.9125C36.0526 27.9102 37.1875 26.5216 38.3224 25.4236C38.9744 24.8019 39.6747 24.6324 40.4152 24.4467C41.0833 24.2852 41.7836 24.1157 42.4678 23.6151C42.5724 23.5424 42.661 23.4698 42.7576 23.389C43.1842 23.8008 44.0938 24.81 44.0052 26.0452C43.9006 27.5873 42.1619 28.0475 42.0814 28.0636C41.8883 28.1121 41.7756 28.3058 41.8239 28.4915C41.8641 28.653 42.009 28.7579 42.17 28.7579C42.2022 28.7579 42.2263 28.7579 42.2585 28.7499C42.3551 28.7256 44.5687 28.1444 44.7135 26.0937C44.8182 24.5678 43.7879 23.381 43.2647 22.8885C43.8603 22.178 44.1018 21.3626 44.3916 20.4099C44.4882 20.095 44.5848 19.7721 44.6974 19.4249C44.7216 19.3523 44.7457 19.2877 44.7779 19.2231C44.794 19.2231 44.8101 19.2231 44.8262 19.2231C46.1785 19.0213 47.1364 19.5864 47.6998 20.087C48.5933 20.8943 49.1245 22.1296 49.0762 23.3164C49.0682 23.5101 49.2211 23.6797 49.4143 23.6878H49.4304C49.6236 23.6878 49.7765 23.5344 49.7846 23.3487C49.8409 21.96 49.2211 20.5068 48.1667 19.5622C47.3859 18.8598 46.42 18.4803 45.3977 18.4723C45.929 18.0767 46.6293 17.891 47.241 17.7376C47.6998 17.6165 48.1023 17.5196 48.384 17.342C49.5431 16.6073 50.0421 15.4043 49.9616 13.5393C49.9536 13.2729 49.9053 13.0307 49.849 12.8127C52.5776 13.2568 55.0005 15.6384 55.2741 18.2623C55.2902 18.448 55.4432 18.5772 55.6283 18.5772C55.6444 18.5772 55.6525 18.5772 55.6686 18.5772C55.8617 18.553 56.0066 18.3834 55.9825 18.1897C55.6605 15.1217 52.7306 12.3606 49.527 12.0538C49.2775 11.6421 48.9635 11.303 48.6496 10.9639C48.062 10.3341 47.4583 9.68018 47.1927 8.53374C46.9351 7.44381 47.3859 6.78986 47.8045 6.43462C48.5772 5.78067 49.857 5.62727 50.9195 6.07131C52.4006 6.69298 52.4891 8.2108 52.4569 8.80824C51.9418 8.92127 51.5795 9.16348 51.3783 9.53486C51 10.2211 51.3864 11.0527 51.4025 11.085C51.483 11.2626 51.6922 11.3353 51.8693 11.2545C52.0464 11.1738 52.1188 10.9639 52.0383 10.7863C51.9659 10.6409 51.8291 10.1807 51.9981 9.87395C52.1188 9.65596 52.4006 9.51871 52.8272 9.47027C53.5275 9.38146 54.2921 9.65596 55.0246 10.2453C56.7391 11.634 58.027 14.4759 58.3087 17.4873C58.5099 19.6348 57.5923 20.6521 56.7874 21.1204C55.5961 21.8147 54.0829 21.6694 53.3021 21.1285C52.0142 20.2323 51.4669 17.6488 51.4105 17.1966C51.4105 17.1563 51.4025 17.1159 51.3944 17.0755L51.3139 16.8253L50.7988 16.8333L50.7263 17.0836C50.6619 17.2935 50.9437 18.3996 51.161 19.0374C51.5715 20.2242 52.1027 21.0881 52.7467 21.5967C52.6742 22.7997 51.974 24.2045 50.992 25.0603C50.4929 25.4962 49.688 25.9887 48.6979 25.8595C46.5971 25.585 46.7258 23.6635 46.7339 23.5828C46.75 23.389 46.6051 23.2195 46.4119 23.1953C46.2187 23.1791 46.0497 23.3244 46.0256 23.5182C45.9531 24.2933 46.2509 25.6981 47.6515 26.3036C48.0298 29.7591 45.2367 31.5352 44.3594 32.0035C43.5866 32.4152 42.4517 32.2215 41.357 32.0439C40.3508 31.8743 39.4091 31.7209 38.6525 31.9874C37.9441 32.2376 37.3646 32.714 36.8011 33.1742C36.1411 33.7232 35.5133 34.2399 34.7325 34.3125C33.3802 34.4336 32.8329 33.8927 32.8168 33.8685L32.3419 33.3437L32.2131 34.038C32.1728 34.2399 31.2955 39.0113 32.2211 42.3376C32.3338 42.7332 32.4304 43.1207 32.527 43.5002C33.2353 46.3179 33.8551 48.7561 38.5639 50.7341C43.5705 52.8332 46.2429 53.8747 48.883 54.4802C50.7022 54.9 52.473 55.0373 53.8977 55.1503C54.4692 55.1987 54.9602 55.2391 55.3707 55.2876C56.1998 55.3925 57.2462 55.3764 58.0189 55.3521C57.7936 55.5136 57.544 55.667 57.3106 55.7639C57.0611 55.8689 56.6103 55.9173 56.2562 55.9657C55.6042 56.0465 55.2017 56.0868 55.1293 56.4501C55.081 56.6681 55.1937 56.8538 55.4673 57.0153C55.8215 57.2252 56.224 57.5562 56.6425 57.9115C57.0691 58.2667 57.5118 58.6219 57.9626 58.9206C58.7434 59.3808 60.7476 59.9702 62.0033 60.2931Z" fill="#52C0D0"/>
<path d="M19.6724 32.3345C16.4205 33.2064 13.732 32.609 12.0739 30.6229C10.2386 28.4188 9.96497 24.8584 11.3897 21.9358C11.5587 21.7824 11.7358 21.7501 11.937 21.8308C12.6615 22.1215 13.4583 23.6878 13.4905 24.8826C13.4986 25.0764 13.6515 25.2298 13.8447 25.2298H13.8528C14.0459 25.2217 14.1989 25.0603 14.1989 24.8665C14.1667 23.5182 13.2893 21.6129 12.2027 21.1769C11.8807 21.0477 11.5587 21.0558 11.2689 21.185C10.456 19.0132 10.4882 16.7203 11.3736 14.9764C12.1463 13.4505 13.5308 12.409 15.3821 11.9569C18.803 14.0399 19.3343 15.7595 19.3423 16.6073C19.3504 17.4227 18.9238 17.9878 18.5213 18.2381C18.1591 18.4722 17.6439 18.6822 17.1047 18.9001C17.0644 18.9163 17.0322 18.9324 16.992 18.9486C16.9276 18.4965 16.7666 17.8667 16.34 17.455C16.0663 17.1886 15.7202 17.0594 15.3338 17.0755C14.8348 17.0917 14.4243 16.9544 14.1264 16.6557C13.7159 16.252 13.5147 15.5577 13.5388 14.6454C13.5469 14.4516 13.3859 14.2902 13.1927 14.2821C12.9995 14.2821 12.8386 14.4355 12.8305 14.6292C12.8064 15.7353 13.08 16.6153 13.6354 17.1563C14.0701 17.5922 14.6738 17.8102 15.366 17.786C15.5672 17.7779 15.7202 17.8344 15.857 17.9717C16.1629 18.2704 16.2836 18.8679 16.3158 19.2473C15.3741 19.6671 14.5369 20.1596 14.2633 20.9508C13.9091 21.96 14.5289 22.622 15.0682 23.2033C15.358 23.5101 15.6558 23.825 15.8248 24.1964C16.0904 24.7777 15.696 25.6415 15.3741 26.3359C15.1487 26.8203 14.9555 27.2401 14.9555 27.5953C14.9555 28.435 15.6397 28.6288 16.67 28.9275C16.9839 29.0163 17.3461 29.1212 17.7566 29.2585C18.964 29.646 19.5033 31.5756 19.6724 32.3345Z" fill="#52C0D0"/>
</svg>
