<svg width="107" height="46" viewBox="0 0 107 46" fill="none" xmlns="http://www.w3.org/2000/svg">
<path d="M19.6577 18.2424H20.036V23.1834H19.5772C19.5772 22.9089 19.6013 22.7474 19.223 22.5052C19.0057 22.4003 18.6515 22.4245 18.4422 22.4245L0.0980225 22.4003L0.122169 22.0208C0.419991 22.0208 0.693666 21.9966 0.822454 21.6171C0.878799 21.5364 0.846601 20.9632 0.846601 20.834V2.41826C0.846601 2.36175 0.902946 1.68357 0.846601 1.60284C0.741961 1.30411 0.444138 1.22338 0.146316 1.22338V0.819702H5.93372V1.25567C5.77274 1.25567 5.36222 1.31219 5.20124 1.65935C5.0966 1.87734 5.12075 2.31331 5.12075 2.55551V18.9529H18.4342C18.4342 18.9529 19.3035 19.0094 19.5128 18.6784C19.5772 18.5411 19.6094 18.2908 19.6577 18.2424Z" fill="white"/>
<path d="M22.1207 4.33972H26.8537V4.79991C26.6122 4.79991 26.4512 4.85643 26.3385 5.23588C26.3144 5.39735 26.3144 5.75259 26.3144 5.97057V14.4397C26.3144 15.6346 26.1534 17.9678 27.9081 19.0013C29.3731 19.8732 34.4602 19.9216 36.0298 18.9447C37.7041 17.8629 37.4948 15.7718 37.4948 14.5204V5.88984C37.4948 5.78488 37.4706 5.31662 37.4384 5.21166C37.3338 4.88872 37.2775 4.91294 36.8428 4.80799L36.8991 4.40431H41.5516V4.84028C41.1733 4.84028 41.1733 4.8645 40.9801 5.27625C40.9238 5.43772 40.956 5.89791 40.956 6.05938V14.69C40.956 16.668 41.2296 19.7359 38.1951 21.4718C35.4583 23.0461 28.6406 23.2641 25.6382 21.496C22.6037 19.7279 22.821 17.3139 22.821 14.9806V6.08361C22.821 5.8091 22.821 5.59112 22.821 5.32469C22.7164 5.00175 22.5232 4.80799 22.1207 4.80799V4.33972Z" fill="white"/>
<path d="M62.9063 6.02709L63.0995 5.86562L63.5583 6.08361C63.3409 6.40655 63.1558 6.68105 63.019 6.97977L62.3992 8.09392C62.2623 8.25539 62.206 8.47337 62.1013 8.63485L61.4252 9.85395L61.1837 9.7167V9.25651C58.6965 7.10895 54.7202 6.51151 52.1766 7.2462C50.1724 7.78712 48.3613 9.0143 47.5483 11.3153C46.9285 13.1318 47.0332 15.4651 48.305 17.2332C50.0919 19.5906 52.7723 19.9459 54.8812 19.8651C55.992 19.8086 57.6179 19.4615 58.5919 19.1062C59.1634 18.864 59.7832 18.5653 60.4593 18.1051C60.9503 17.7822 61.2401 17.5319 61.3528 17.3704C61.7311 16.8537 61.8116 16.9344 61.5942 16.4177L61.8921 16.224L64.1378 19.6714L63.8158 19.9459L63.5985 19.7844C58.8656 22.9331 52.9091 23.6355 48.7396 21.6009C45.1416 19.8893 43.7893 17.0394 43.6283 14.0037C43.4915 11.4767 44.4091 8.08584 47.9588 5.88984C52.4745 3.06411 57.8916 3.99256 62.4877 6.02709H62.9063Z" fill="white"/>
<path d="M73.7566 4.33972H78.8679V4.79991L78.5459 4.96138C78.5459 5.23588 78.5701 5.36506 78.7632 5.66378L85.8788 21.165C86.0398 21.4637 86.2329 22.0853 86.6113 22.0853L86.5871 22.3841H81.8542V22.0853L82.1761 21.7624C82.1761 21.4637 82.0715 21.2457 81.9829 20.9228L81.3873 19.7037C81.3632 19.6471 81.1941 19.3242 81.17 19.1869L80.357 17.5561H72.026L71.3258 19.0255L70.6255 20.624C70.4645 20.9793 70.3276 21.3829 70.3035 21.4395C70.1667 21.7382 70.384 22.0127 70.7382 22.0127V22.3921H66.2225V22.0127C66.6813 22.0127 66.794 21.714 67.0355 21.173L73.9337 5.54268C74.0705 5.30047 74.0705 4.96946 74.0705 4.96946L73.7727 4.80799V4.33972H73.7566ZM73.2656 14.7384H79.0289L76.0829 8.19887L73.2656 14.7384Z" fill="white"/>
<path d="M106.034 6.05138L106.251 5.80917L106.63 6.02716L104.762 9.66025L104.36 9.49878C104.255 8.84482 104.521 8.95785 103.821 8.44115C103.603 8.24738 103.249 8.03747 102.686 7.81948C102.009 7.54498 101.253 7.327 100.335 7.14131C99.3613 6.97984 94.2178 6.64882 92.785 8.49766C92.4631 8.93363 92.2457 9.49878 92.5436 10.0962C93.2197 11.4284 95.5781 11.3476 96.3831 11.4284L99.8442 11.5656C101.357 11.6221 104.795 11.6706 106.34 14.1734C107.121 15.4247 107.209 17.5158 106.638 18.8721C105.664 21.2296 103.394 22.0208 101.414 22.4245C99.7396 22.804 97.3248 22.9412 95.2159 22.699C94.1856 22.594 93.6463 22.481 92.1331 21.9966C91.2959 21.6979 90.9418 21.5041 90.6198 21.3749L89.839 20.9713C89.5975 20.8905 89.3802 20.7291 89.0824 21.0278L88.6799 20.834L90.821 16.9022L91.1993 17.096C91.0384 17.4754 91.1189 17.5562 91.4167 18.0729C91.6582 18.3151 92.1733 18.5654 92.4148 18.6945C93.0346 19.0175 93.6866 19.2678 94.3868 19.4292C95.4413 19.7037 101.317 20.5111 103.048 18.4281C103.482 17.9114 103.7 16.9345 103.402 16.2563C102.831 14.9565 100.665 15.0614 99.8603 15.0049L96.206 14.8677C94.6605 14.7869 91.0384 14.6255 89.5734 12.1227C88.8973 10.9036 88.9536 9.2162 89.6297 7.85985C90.9015 5.33284 94.0971 4.51741 96.1496 4.2752C99.4096 3.8796 102.356 4.33979 106.034 6.05138Z" fill="white"/>
<path d="M18.4422 43.9162C18.7401 44.1341 18.7642 44.1907 19.1747 44.1907V44.5701H13.9266V44.2956C13.9266 44.2956 14.2003 44.2956 14.2486 44.2149C14.3291 44.0776 14.1922 43.8354 14.1922 43.8354L9.64442 37.1344H4.33996V41.6394V42.3741C4.33996 42.5356 4.33996 42.8343 4.33996 43.0765V43.7547C4.33996 44.0776 4.58144 44.0776 5.0161 44.2149V44.5701H0.146311V44.1907C0.580971 44.1907 0.661465 44.2149 0.82245 43.8919C0.878794 43.7305 0.846597 42.8908 0.846597 42.7778V28.2535C0.846597 28.1728 0.790251 27.5996 0.709758 27.4381C0.709758 27.0586 0.57292 27.1151 0.0899658 26.8972V26.5177H10.5862C12.2363 26.5419 16.6231 26.6792 18.0559 29.6664C18.7884 31.1842 18.7884 33.4932 17.5971 35.1241C16.5185 36.5612 14.973 36.9164 13.6449 37.1021L17.8949 43.1815C18.0076 43.3429 18.2813 43.7547 18.4422 43.9162ZM4.31582 34.2037H10.3769C11.4072 34.2037 13.8944 34.5024 14.812 33.0088C15.1903 32.3872 15.1903 31.491 14.8362 30.8936C13.8864 29.1577 10.7472 29.4242 10.0469 29.4242H4.30777V34.2037H4.31582Z" fill="white"/>
<path d="M29.3167 26.3563C31.7235 26.0818 37.3821 26.655 40.0625 29.8602C42.2036 32.468 42.5819 35.9396 41.7931 38.4666C40.795 41.7203 38.8148 43.4641 35.3778 44.4653C32.0776 45.4179 26.9342 45.7167 23.2798 42.5357C20.8167 40.3881 19.8669 36.8116 20.1648 34.5267C20.5672 31.5961 22.1127 28.9883 25.276 27.4463C26.749 26.76 27.6184 26.542 29.3167 26.3563ZM23.6662 34.3895C23.3442 36.0688 23.7708 38.6523 25.5899 40.2832C27.892 42.2935 31.8684 42.4307 34.3073 41.6395C36.5289 40.9856 38.1468 39.5243 38.6619 37.3767C39.0402 35.8589 38.7183 32.8959 37.1487 31.3215C34.8466 29.0125 30.7656 28.9076 28.6809 29.4243C25.7187 30.1267 24.2055 31.5961 23.6662 34.3895Z" fill="white"/>
<path d="M52.3457 26.3563C54.7524 26.0818 60.411 26.655 63.0914 29.8602C65.2325 32.468 65.6108 35.9396 64.822 38.4666C63.8239 41.7203 61.8438 43.4641 58.4068 44.4653C55.1066 45.4179 49.9631 45.7167 46.3087 42.5357C43.8457 40.3881 42.8959 36.8116 43.1937 34.5267C43.5961 31.5961 45.1416 28.9883 48.305 27.4463C49.778 26.76 50.6473 26.542 52.3457 26.3563ZM46.6951 34.3895C46.3731 36.0688 46.7997 38.6523 48.6189 40.2832C50.9209 42.2935 54.8973 42.4307 57.3362 41.6395C59.5578 40.9856 61.1757 39.5243 61.6908 37.3767C62.0692 35.8589 61.7472 32.8959 60.1776 31.3215C57.8755 29.0125 53.7945 28.9076 51.7098 29.4243C48.7477 30.1267 47.2344 31.5961 46.6951 34.3895Z" fill="white"/>
<path d="M66.2064 26.1625H66.5847L66.8021 26.4854H83.2789L83.5767 26.1867L83.8745 26.2109V29.7956H83.4962C83.4157 29.4968 83.2789 29.4403 82.9569 29.4403C82.7637 29.4403 82.5544 29.4646 82.3371 29.4161H76.8958V42.8262C76.8958 43.0442 76.92 43.3672 76.92 43.6417C76.92 44.0211 77.1131 44.1826 77.5156 44.1826V44.5621H72.6458V44.1826C72.8068 44.1826 73.0805 44.0776 73.2415 43.7466C73.2978 43.6417 73.2656 43.0927 73.2656 42.9877V29.4242H66.7699L66.5767 29.6987H66.1984V26.1625H66.2064Z" fill="white"/>
</svg>
