<svg width="88" height="72" viewBox="0 0 88 72" fill="none" xmlns="http://www.w3.org/2000/svg">
<path d="M2.73344 21.1078C2.8729 21.1078 2.99842 21.1078 3.12393 21.1078C12.7816 21.1078 22.4393 21.1078 32.097 21.1078C37.1036 21.1078 41.1899 24.4266 42.2079 29.2992C43.3724 34.8469 39.5721 40.4367 34.0076 41.3508C28.5756 42.2438 23.5271 38.7492 22.3975 33.3281C22.3696 33.1805 22.3487 33.0328 22.3208 32.85C23.1924 32.85 24.0431 32.85 24.8868 32.85C25.2704 32.85 25.6539 32.8641 26.0374 32.843C26.2815 32.8289 26.4 32.9063 26.4767 33.1594C27.3135 35.8172 29.7471 37.5539 32.5014 37.4766C35.5975 37.3922 38.1984 34.8609 38.4006 31.725C38.6029 28.575 36.3715 25.7273 33.3173 25.2422C32.8919 25.1789 32.4596 25.1578 32.0342 25.1578C23.6666 25.1508 15.2989 25.1578 6.93122 25.1508C4.84628 25.1508 2.9775 23.4773 2.72647 21.382C2.72647 21.3047 2.73344 21.2203 2.73344 21.1078Z" fill="#389EAD"/>
<path d="M85.4269 21.1078C85.3154 22.3594 84.8063 23.3508 83.8998 24.1313C83.1119 24.8063 82.1984 25.1508 81.1525 25.1508C72.7639 25.1508 64.3683 25.1508 55.9797 25.1508C53.2323 25.1508 50.9591 26.7328 50.0735 29.25C48.93 32.4914 50.6384 36.0352 53.8669 37.1391C57.0954 38.243 60.6029 36.4781 61.6349 33.2086C61.7255 32.9203 61.8441 32.8359 62.1369 32.8359C63.2387 32.857 64.3474 32.843 65.4491 32.843C65.5607 32.843 65.6792 32.843 65.8187 32.843C65.6583 33.9258 65.3376 34.9172 64.8634 35.8664C62.9109 39.7969 58.6155 42.0609 54.3689 41.393C49.9829 40.7039 46.5591 37.3008 45.8618 32.9273C44.9623 27.3094 48.8393 22.0008 54.4178 21.2273C54.9686 21.15 55.5265 21.1148 56.0843 21.1148C65.7211 21.1078 75.3509 21.1078 84.9876 21.1078C85.1201 21.1078 85.2456 21.1078 85.4269 21.1078Z" fill="#389EAD"/>
<path d="M61.3559 18.7453C60.296 18.7453 59.278 18.7524 58.2529 18.7313C58.1344 18.7313 57.974 18.5836 57.9113 18.4641C56.5864 15.8906 54.7246 13.8094 52.277 12.2766C49.3553 10.4414 46.1547 9.63282 42.7309 9.97735C37.0618 10.5469 32.9128 13.4438 30.2003 18.4781C30.1445 18.5836 30.019 18.7313 29.9284 18.7383C28.8824 18.7594 27.8434 18.7524 26.7905 18.7524C28.4501 13.7672 34.1471 7.37579 42.9052 6.84142C52.3189 6.26485 59.1246 12.5649 61.3559 18.7453Z" fill="#389EAD"/>
<path d="M22.0697 18.7453C24.7544 9.59765 33.645 1.85624 45.0669 2.3414C56.1959 2.81249 63.8523 10.9125 66.0418 18.7453C65.3933 18.7453 64.7588 18.7594 64.1312 18.7312C64.0406 18.7242 63.943 18.4992 63.8872 18.3586C62.7994 15.3281 61.1258 12.6633 58.8456 10.4062C55.4637 7.0664 51.4193 5.08359 46.7334 4.45781C37.0269 3.14999 27.5227 9.02109 24.2523 18.3445C24.1407 18.6609 24.0013 18.7805 23.6666 18.7594C23.1436 18.7172 22.6276 18.7453 22.0697 18.7453Z" fill="#389EAD"/>
<path d="M12.3493 27C12.5027 27 12.6491 27 12.7956 27C19.3363 27 25.877 27.0141 32.4247 26.993C33.9727 26.9859 35.0745 27.7102 35.9322 28.9195C36.3645 29.5313 36.5946 30.2273 36.6434 31.0289C36.504 31.0289 36.3785 31.0289 36.2599 31.0289C29.6704 31.0289 23.0808 31.0289 16.4913 31.0289C14.4621 31.0289 12.5864 29.3484 12.3493 27.3234C12.3423 27.225 12.3493 27.1266 12.3493 27Z" fill="#389EAD"/>
<path d="M75.8181 27C75.7135 28.2375 75.2114 29.2148 74.3189 29.9883C73.5379 30.6703 72.6244 31.0219 71.5784 31.0219C65.0447 31.0148 58.5179 31.0219 51.9841 31.0219C51.8377 31.0219 51.6913 31.0219 51.517 31.0219C51.5239 30.3469 51.7052 29.7563 52.019 29.2219C52.6536 28.125 53.574 27.3727 54.8152 27.0633C54.9686 27.0211 55.136 27.007 55.2964 27.007C62.0114 27.007 68.7265 27.007 75.4485 27.007C75.5601 27 75.6716 27 75.8181 27Z" fill="#389EAD"/>
<path d="M15.9544 69.4336C15.9544 66.3047 15.9544 63.1898 15.9544 60.0539C14.6992 59.843 13.9949 59.1117 13.8345 57.8039C13.981 57.8039 14.0926 57.8039 14.2111 57.8039C16.5819 57.8039 18.9528 57.8039 21.3236 57.8039C22.0488 57.8039 22.7601 57.9094 23.4225 58.2187C24.4057 58.6758 24.9845 59.4422 25.103 60.5391C25.2216 61.6641 24.8311 62.557 23.8897 63.1969C23.813 63.2461 23.7502 63.3094 23.6526 63.3797C23.8548 63.4781 24.0292 63.5625 24.2035 63.6469C25.2634 64.1742 25.7585 65.025 25.7445 66.2133C25.7306 67.4226 25.2425 68.3367 24.1756 68.9062C23.4504 69.293 22.6624 69.4406 21.8536 69.4547C19.936 69.4828 18.0184 69.4687 16.1008 69.4687C16.0659 69.4617 16.038 69.4476 15.9544 69.4336ZM18.4507 64.7016C18.4507 65.5242 18.4507 66.3609 18.4507 67.1976C19.5455 67.1976 20.6124 67.2117 21.6792 67.1906C21.9861 67.1836 22.2998 67.0992 22.5927 66.9937C22.9553 66.8601 23.1715 66.5789 23.2342 66.1851C23.3597 65.3766 22.9693 64.7789 22.0906 64.7156C20.8913 64.6453 19.6849 64.7016 18.4507 64.7016ZM18.4647 62.4375C19.5176 62.4375 20.5496 62.4797 21.5746 62.4234C22.258 62.3812 22.6206 61.9172 22.6276 61.2984C22.6345 60.6726 22.2789 60.2016 21.6025 60.1453C20.5705 60.0539 19.5246 60.0539 18.4647 60.0187C18.4647 60.8836 18.4647 61.6851 18.4647 62.4375Z" fill="#389EAD"/>
<path d="M52.9883 65.3484C53.8878 66.7336 54.7664 68.0976 55.652 69.4547C54.613 70.2281 52.8907 69.8484 52.1515 68.6812C51.5937 67.8023 51.0498 66.9164 50.5128 66.0234C50.3804 65.7984 50.2339 65.7281 49.9899 65.7351C49.4599 65.7562 48.923 65.7422 48.3442 65.7422C48.3442 66.9797 48.3442 68.2031 48.3442 69.4406C47.4796 69.4406 46.6637 69.4406 45.827 69.4406C45.827 65.5664 45.827 61.7062 45.827 57.8179C45.9315 57.8109 46.0292 57.7969 46.1268 57.7969C47.7794 57.7969 49.425 57.7898 51.0777 57.7969C52.019 57.7969 52.9325 57.9445 53.7553 58.4297C54.8292 59.0625 55.3382 60.0469 55.4289 61.2633C55.5613 63.1054 54.8292 64.4625 53.1347 65.25C53.0929 65.2711 53.058 65.3062 52.9883 65.3484ZM48.3442 63.4219C49.4041 63.4219 50.4222 63.4711 51.4403 63.4078C52.3398 63.3515 52.8418 62.7398 52.8558 61.8469C52.8697 60.8836 52.4235 60.2648 51.4891 60.1875C50.464 60.0961 49.432 60.1383 48.4 60.1312C48.3861 60.1312 48.3651 60.1594 48.3512 60.1734C48.3442 61.2633 48.3442 62.3461 48.3442 63.4219Z" fill="#389EAD"/>
<path d="M63.671 69.4617C63.671 65.5594 63.671 61.6992 63.671 57.8461C63.7059 57.825 63.7268 57.8039 63.7407 57.8039C65.5189 57.825 67.297 57.7477 69.0682 57.8812C71.8225 58.0922 73.9144 60.1664 74.2491 62.8312C74.6536 66.0375 72.6663 68.7516 69.4796 69.307C68.852 69.4195 68.2105 69.4336 67.5759 69.4477C66.2859 69.4758 65.0029 69.4617 63.671 69.4617ZM66.2162 60.1734C66.2162 62.4726 66.2162 64.7859 66.2162 67.1203C66.3277 67.1273 66.4184 67.1414 66.509 67.1414C67.2621 67.1273 68.0222 67.1414 68.7683 67.0851C69.0821 67.0641 69.4098 66.9516 69.6957 66.818C71.0276 66.2133 71.683 64.9969 71.6203 63.3094C71.5575 61.7414 70.4558 60.3914 68.9217 60.1875C68.0501 60.075 67.1436 60.1734 66.2162 60.1734Z" fill="#389EAD"/>
<path d="M58.3506 43.7133C50.5616 50.3578 37.9613 50.5828 29.775 43.6992C30.6954 43.7555 31.6926 43.8539 32.6967 43.868C33.1778 43.875 33.5823 43.9664 34.0076 44.2055C37.5918 46.1883 41.4409 47.0109 45.5132 46.7508C48.6998 46.5469 51.6913 45.6258 54.4805 44.0508C54.6758 43.9383 54.9338 43.8961 55.1639 43.882C56.2586 43.8047 57.3604 43.7625 58.3506 43.7133Z" fill="#389EAD"/>
<path d="M34.3493 57.8109C35.1861 57.8109 35.9949 57.8109 36.8387 57.8109C36.8387 61.6852 36.8387 65.5523 36.8387 69.4406C36.0158 69.4406 35.2 69.4406 34.3493 69.4406C34.3493 65.5805 34.3493 61.7133 34.3493 57.8109Z" fill="#389EAD"/>
</svg>
