<svg width="166" height="37" viewBox="0 0 166 37" fill="none" xmlns="http://www.w3.org/2000/svg">
<path d="M155.773 30.7522C157.67 30.7522 157.835 29.0476 157.835 27.728L157.752 12.9642C157.45 12.1669 156.845 12.0019 156.295 12.0019C155.855 12.0019 155.498 11.9745 155.113 12.2769C154.068 13.1017 153.821 14.2289 153.574 15.2186C153.216 16.7032 152.914 18.1329 152.914 18.9577V24.9237C152.941 25.8309 153.436 30.7522 155.773 30.7522ZM148.845 31.8794C147.663 29.515 147.25 26.9032 147.085 24.5663L147.168 21.542C147.663 16.3733 148.075 16.2359 149.065 13.789C149.23 13.3491 149.944 12.4693 150.164 12.0844C151.402 10.2699 153.216 9.55506 154.783 9.55506C156.103 9.55506 157.203 10.3249 157.45 10.3249C157.945 10.3249 157.807 9.28014 157.807 9.11518L157.67 5.04621C157.67 4.63381 156.983 4.11145 156.625 4.02897C156.185 3.91899 154.618 3.94649 154.618 3.25916C154.618 2.95674 155.058 2.68181 155.388 2.59933C157.752 1.93949 162.344 0.757294 162.509 0.757294C162.646 0.757294 162.949 0.977239 162.949 1.1147V13.844L163.114 27.8929C163.141 28.1678 163.141 29.7899 163.856 29.7899H165.038C165.203 29.8999 165.396 30.3673 165.396 30.3673C165.396 30.5048 165.313 30.9172 165.093 31.0546C164.021 31.7144 159.54 33.9139 159.237 33.9139C158.165 33.9139 158.687 31.8519 158.055 31.8519C157.752 31.8519 156.57 33.1716 156.433 33.2816C155.471 33.9139 154.206 34.3538 153.106 34.3538C152.419 34.3538 151.512 33.9139 150.962 33.6939C150.302 33.474 149.12 32.4568 148.845 31.8794ZM130.589 28.0579L130.672 20.7447C130.672 20.6622 130.672 20.1674 130.397 20.1674C130.04 20.1674 128.527 21.5695 128.445 21.707C127.153 23.3841 125.971 25.5285 125.971 27.3706C125.971 28.0579 126.548 30.1748 128.033 30.1748C128.967 30.1474 130.204 29.2401 130.589 28.0579ZM137.93 32.5667C139.085 32.5667 139.525 32.1268 139.662 30.8897L139.36 5.65105C139.332 5.21117 139.085 4.30389 138.315 4.05646C138.012 3.97398 137.628 3.97398 137.243 3.8915C136.94 3.80902 136.72 3.53409 136.72 3.36913C136.72 2.46186 138.205 2.3244 138.975 2.18693C141.504 1.80203 144.033 1.38963 144.226 1.38963C144.363 1.38963 144.528 1.38963 144.666 1.5271C144.748 4.16643 144.776 6.03596 144.831 7.74053C144.831 7.87799 144.831 8.89523 144.803 8.97771C144.776 9.08769 144.803 23.1366 144.831 23.2741C144.858 23.3841 144.858 26.6557 144.913 26.8482L144.831 29.405C144.831 30.0649 145.051 32.0444 145.381 32.1818C145.601 32.2643 145.793 32.5392 145.958 32.5942C146.26 32.7042 147.415 32.8142 147.498 33.364C147.525 33.7214 147.525 33.9139 146.92 33.9964L132.239 34.0788C131.992 33.9689 131.689 34.0514 131.469 33.7764C131.249 33.474 131.194 33.1441 131.084 32.8417C131.084 32.8142 131.194 31.412 130.727 31.412C130.562 31.412 130.067 32.1543 129.71 32.4568C129.325 32.8142 128.747 33.1991 128.252 33.5015C127.373 34.0514 126.245 34.2438 125.338 34.2438C124.431 34.2438 123.991 34.1063 123.056 33.6665C121.104 32.7317 120.664 30.0649 120.664 28.6352C120.664 24.0439 125.036 20.5798 130.122 18.0504C130.232 18.0229 130.534 17.6655 130.534 17.528L130.617 13.3216C130.617 12.4143 130.617 10.7923 129.132 10.7923C128.307 10.7923 126.63 11.3696 126.218 12.3319C126.108 12.5793 126.245 12.9917 126.245 13.1292C126.245 14.5588 125.668 17.3631 123.249 17.3631C121.627 17.3631 120.747 16.4558 120.747 14.9712C120.747 14.4488 120.829 13.9539 121.132 13.4041C121.352 13.0192 121.929 12.4418 121.929 12.0019C121.929 11.5071 121.489 11.5071 121.379 11.5071C120.994 11.5071 120.197 12.1944 119.785 12.5243C118.382 13.5965 117.31 16.9232 117.31 18.4628V30.9996C117.31 31.1646 117.42 31.5495 117.585 31.8794C117.723 32.1543 118.135 32.3743 118.41 32.4568C118.575 32.5392 119.592 32.6767 119.702 33.2816C119.785 33.8314 119.262 34.0514 118.905 34.0514H110.987C110.327 34.1338 110.107 33.309 110.107 33.2816C110.355 32.4568 110.987 32.6217 111.317 32.3743C111.592 32.2093 111.894 32.0993 112.059 31.8519C112.169 31.632 112.197 31.0546 112.279 30.7522L112.252 13.8715C112.169 13.624 112.252 13.3216 112.169 13.0742C111.812 12.1394 110.107 12.8542 110.107 11.892C110.107 11.3971 110.767 11.2046 111.069 11.1222C112.801 10.6273 116.238 9.55506 116.375 9.55506H117.255C117.393 9.69253 117.475 9.83 117.475 9.99495L117.31 11.892C117.31 12.0294 117.393 12.1394 117.42 12.2494H117.585C119.4 10.1324 120.719 9.30763 122.506 9.30763C122.671 9.30763 123.331 9.30763 123.689 9.39011C124.184 9.50008 124.926 10.3249 125.448 10.3249C126.026 10.3249 128.252 8.92272 131.029 8.92272C132.211 8.92272 133.751 9.19766 134.906 10.2149C135.703 10.9022 135.731 12.1119 135.868 12.9367L136.006 30.5872C136.033 31.7969 136.473 32.5667 137.93 32.5667ZM105.983 17.9129C105.983 17.748 106.066 17.6655 105.901 16.6758L105.791 14.8337C105.763 14.6688 105.681 13.789 105.433 12.9642C105.186 12.1394 104.773 11.3696 104.031 11.3696C103.729 11.3696 103.591 11.3696 103.344 11.672C103.179 11.892 103.096 12.1944 102.986 12.4418C102.354 13.789 101.832 15.4661 101.777 16.8132C101.694 17.583 101.694 17.858 101.694 17.9954C101.694 18.9577 102.574 18.8202 103.234 18.8202L105.241 18.7377C105.763 18.8202 105.983 18.1329 105.983 17.9129ZM96.4705 26.3258V20.4148C96.4705 20.2499 96.7729 18.6828 96.9654 17.7755C97.8452 13.5965 100.375 9.44509 104.498 9.44509C108.595 9.44509 109.887 13.8165 110.272 17.2256C110.382 18.2429 110.355 18.6828 110.355 18.8202C110.355 19.4526 110.355 21.3221 109.255 21.3221H102.079C101.667 21.3221 101.667 21.8994 101.667 21.9819C101.667 22.1194 101.749 22.7792 101.804 23.9339C101.832 24.4563 102.546 30.7797 105.598 30.7797C108.32 30.7797 108.018 27.0406 109.447 27.0406C109.832 27.0406 110.08 27.398 110.08 27.618C110.08 28.0304 109.557 29.57 109.53 29.7075C109.392 30.1199 109.172 30.6697 108.952 31.1096C107.193 34.1063 104.966 34.6287 102.794 34.6287C99.3848 34.6287 97.1579 30.9721 96.7455 27.3431C96.608 26.9856 96.4705 26.4633 96.4705 26.3258ZM75.7958 3.75404C75.6858 3.67156 75.5758 3.45161 75.5758 3.25916C75.5758 2.68181 76.0982 2.37939 76.6755 2.37939H84.1811C84.5935 2.37939 85.2809 2.87426 85.2809 3.17668C85.2809 3.83651 84.0987 4.08395 83.7962 4.52384C83.6588 4.77128 83.5763 5.0737 83.5213 5.32114L83.3839 14.9437C83.3839 15.4386 83.6313 15.576 83.9612 15.576H88.0577C88.4701 15.576 88.6075 15.3286 88.6075 14.9162L88.745 5.8435C88.745 5.67855 88.7725 5.01872 88.525 4.63381C88.2501 4.22142 86.2981 3.8915 86.2981 3.17668C86.2981 2.87426 86.793 2.37939 87.0404 2.37939H96.1956C96.718 2.37939 97.1029 2.95674 97.1029 3.17668C97.1029 3.34164 97.0754 3.53409 96.9654 3.58908C96.388 4.11144 95.6732 3.94649 95.0959 4.35888C94.601 4.74379 94.546 5.18367 94.4635 5.65105L94.3261 30.8897C94.3536 31.4395 94.8209 32.0719 95.4258 32.2918C95.6732 32.3743 96.0032 32.4568 96.2506 32.5667C96.3881 32.6492 96.5255 32.9241 96.5255 33.0891C96.5255 33.6115 95.8657 33.9139 95.4258 33.9139H87.6728C87.2604 33.9139 86.793 33.529 86.793 33.2266C86.793 33.0891 86.8755 32.7867 86.9304 32.7042C87.2329 32.4293 87.9477 32.2643 88.2501 31.7694C88.6075 31.2471 88.525 30.5597 88.635 29.9549L88.5525 18.3803C88.69 17.9954 88.4151 17.8305 88.1401 17.9404H83.8512C83.7138 17.803 83.3014 18.1604 83.4388 18.4353V30.0374L83.7413 31.7694C83.9062 32.2643 84.621 32.3468 84.896 32.5118C85.2809 32.6492 85.7208 32.7867 85.7208 33.1991C85.7208 33.5565 85.2259 33.9689 84.9784 33.9689H75.7408C75.6033 33.9689 75.1909 33.7214 74.971 33.529C74.9435 33.5015 74.861 33.364 74.861 33.1716C74.861 32.9791 74.9435 32.6767 75.1359 32.5942C75.5758 32.3193 76.2357 32.3193 76.758 32.0169C77.2529 31.7144 77.3904 31.1921 77.4179 30.7797L77.5553 5.54108C77.8577 4.41387 76.2631 4.02897 75.7958 3.75404ZM30.5972 27.9479L30.6797 20.2499C30.5972 20.1674 30.5697 20.1124 30.4323 20.1124C30.0474 20.1124 28.0679 22.2568 27.9579 22.4493C27.6005 22.9717 27.1606 23.549 26.9407 24.1539C26.4183 25.6935 26.3633 25.7485 26.3633 26.9582C26.3633 27.7829 26.5283 29.9824 28.2603 29.9824C29.1401 29.9549 30.4323 28.8827 30.5972 27.9479ZM26.1434 34.1063C22.8167 34.1063 21.1121 31.8244 21.1121 28.8277C21.1121 28.6902 21.1121 28.3878 21.1946 27.508C21.552 23.5765 26.5008 20.1399 28.7002 18.9027C28.7827 18.8752 30.9821 17.9954 30.9821 17.3081L30.8447 12.0294C30.7622 11.0947 30.2673 10.7373 29.525 10.7373C29.1401 10.7373 28.5902 10.9572 28.0954 11.1772C26.9407 11.727 27.1331 13.4591 27.1331 14.2014C27.1331 15.9335 25.731 17.4181 24.1914 17.4181C23.0092 17.4181 22.1294 16.6758 22.1294 15.4386C22.1294 14.0089 23.2841 12.4968 24.9887 11.1772C27.3256 9.33512 29.2226 8.97771 31.2296 8.97771C32.3293 8.97771 33.429 9.08768 34.4463 9.55506C35.1336 9.85749 36.1508 11.8095 36.1508 12.4143V30.8622C36.1508 31.4395 36.5357 32.4843 37.1131 32.5667C37.3605 32.5942 37.8004 32.6492 37.9379 32.6492C38.8726 32.6492 39.56 32.2643 39.6699 31.1096L39.5325 12.8817C39.45 12.5793 39.3125 12.2219 39.1751 11.8645C38.8726 10.9847 37.0306 11.5621 37.0306 10.6823C37.0306 10.1874 37.4705 10.1049 37.8004 10.0224C39.9174 9.47258 44.0963 8.6203 44.2613 8.6203C44.5087 8.6203 45.141 8.86774 45.0036 9.19765L44.8661 30.6147C45.0036 32.3193 45.5534 32.5118 46.4332 32.5118C47.5054 32.5118 48.0553 32.2093 48.0553 30.6697L47.8903 5.8435C47.8629 5.40362 47.7804 4.96373 47.5054 4.55133C47.0106 3.86401 46.1583 4.11144 45.6084 3.86401C45.471 3.78153 45.3335 3.61657 45.3335 3.45161C45.3335 3.06671 45.7734 2.76429 46.1583 2.65432C48.2203 2.15944 52.3167 1.36214 52.4542 1.36214C52.7016 1.36214 53.0865 1.38963 53.0865 1.77454C53.0865 1.80203 53.0865 1.85702 53.0865 1.88451V31.3295C53.114 31.687 54.1588 32.1543 54.4887 32.1543C55.176 32.1543 55.3135 30.0924 57.2655 30.0924C58.6951 30.0924 59.8773 31.0271 59.8773 32.4568C59.8773 32.5942 59.6299 33.2541 59.6299 33.419C59.6299 33.5565 59.7673 33.7214 59.9323 33.7214C60.8671 33.7214 61.4169 31.4395 61.4169 31.2471C61.4169 31.1096 59.6574 24.7862 58.6401 21.5695C57.6779 18.4078 56.963 15.0537 55.6434 11.892C55.341 11.1222 54.4062 11.1222 53.9388 10.9572C53.8013 10.8747 53.5814 10.5998 53.5814 10.4348C53.5814 10.0224 54.1588 9.69253 54.4612 9.69253H62.5991C63.1215 9.69253 63.7813 9.72002 63.7813 10.3799C63.7813 11.2596 61.7743 10.7373 61.7743 12.2769C61.7743 12.4143 62.1317 13.3216 62.2692 13.899C62.9565 16.6483 63.5614 19.3976 64.6061 22.1194H64.7711C65.4584 21.1021 67.9328 14.3114 67.9328 12.1119C67.9328 10.7923 65.8708 11.0397 65.8708 10.2149C65.8708 9.96746 66.2557 9.66504 66.5306 9.69253L72.4691 9.61005C72.8265 9.61005 73.8713 9.63754 73.8713 10.2699C73.8713 10.4348 73.8988 10.6823 73.4864 10.8197C72.7166 11.0947 71.2319 11.3971 70.8745 12.6893C70.5996 13.734 70.0497 14.8337 69.6373 15.8785C67.4379 21.5695 65.1835 27.2881 62.984 33.0066C62.8191 33.419 62.5716 33.9139 62.2967 34.3263C61.3344 35.8934 59.7398 36.4707 58.5027 36.4707C56.6881 36.4707 55.5059 35.1236 54.9011 33.8039L33.2366 33.8864C32.7967 33.7489 32.2743 33.8039 31.9169 33.529C31.0921 32.8692 31.6145 31.1646 31.0096 31.1646C30.4323 31.357 28.9751 34.1063 26.1434 34.1063ZM44.9761 4.82626C44.9761 6.83325 43.6564 8.12543 41.8419 8.12543C39.7799 8.12543 38.9001 6.36587 38.9001 4.82626C38.9001 3.1217 40.2198 1.5271 42.0618 1.5271C44.1788 1.49961 44.9761 3.39663 44.9761 4.82626ZM21.0571 18.4353C20.7547 22.6143 19.9574 27.3156 18.1429 30.3673C16.6858 32.8417 13.3591 34.1063 11.2696 34.0514C10.8847 34.0514 10.1699 34.2163 10.0324 34.2163H0.932249C0.629826 34.2163 0.437378 33.584 0.437378 33.474C0.437378 32.6492 1.86701 32.5942 2.05947 32.5392C2.6918 32.4018 3.1042 31.467 3.1042 31.0546L3.07671 5.29364C2.96673 4.99122 2.96673 4.63381 2.66431 4.38637C2.16944 4.08395 1.06971 4.11144 1.06971 3.45161C1.06971 2.79178 2.22442 2.57184 2.27941 2.57184L12.5343 2.7093C12.8367 2.79178 13.2216 2.84677 13.6065 2.92925C19.1876 4.02897 20.4798 11.3421 21.0022 14.8062L21.0571 18.4353ZM15.0362 23.0267C15.1187 21.0746 15.2011 19.1501 15.2011 17.9679C15.1736 15.7135 15.2286 15.1911 14.9537 12.4693C14.7063 9.99495 14.2664 4.63381 10.3624 4.63381C9.86749 4.63381 8.76776 4.60632 8.82275 5.43111L8.68528 31.2196C8.82275 32.1543 9.59256 32.0444 10.2524 32.0444C10.4173 32.0444 11.2971 32.0719 11.682 31.9069C14.3488 30.5048 14.4588 27.5905 14.7063 25.5835C14.8712 24.7312 15.0087 23.824 15.0362 23.0267Z" fill="#389EAD"/>
</svg>
