<svg width="126" height="31" viewBox="0 0 126 31" fill="none" xmlns="http://www.w3.org/2000/svg">
<g clip-path="url(#clip0_16_20)">
<path d="M64.9428 30.0036C64.9428 29.8651 64.9428 29.7585 64.9428 29.6519C64.9938 24.4409 65.0733 19.2298 65.0846 14.0187C65.0903 11.3546 64.9938 8.69575 64.9371 6.03161C64.9201 5.32295 64.7783 4.64092 64.472 3.99087C64.2167 3.44206 63.8026 3.07974 63.1673 2.95718C62.8724 2.89857 62.5831 2.81332 62.2881 2.76004C62.0045 2.71208 61.8797 2.56289 61.8854 2.3018C61.8854 2.22188 61.8854 2.14196 61.8797 2.06203C61.8627 1.80627 61.9762 1.68372 62.2541 1.63577C64.7272 1.19352 67.2061 0.745943 69.6792 0.298367C70.2351 0.197129 70.7967 0.111877 71.3526 0.0212959C71.6589 -0.0266587 71.7042 0.0106393 71.7042 0.314352C71.7042 1.10294 71.6986 1.89685 71.6929 2.68544C71.6759 4.90734 71.6645 7.12391 71.6475 9.34581C71.6475 9.50033 71.6475 9.66017 71.6475 9.86265C71.8234 9.79338 71.9482 9.75608 72.0616 9.69747C73.6158 8.95151 75.2892 8.72239 77.0079 8.75969C79.8951 8.82363 82.0222 10.1557 83.5935 12.3403C84.8244 14.0507 85.3746 15.9742 85.4767 18.0309C85.5845 20.2208 85.3689 22.3628 84.4841 24.4036C83.0092 27.8137 80.2808 29.8384 76.4974 30.6696C75.0453 30.9893 73.5704 30.9254 72.0956 30.9414C70.116 30.9627 68.193 30.5897 66.2588 30.27C65.8334 30.1954 65.4023 30.0942 64.9428 30.0036ZM71.6759 20.2635C71.6532 20.2635 71.6248 20.2635 71.6021 20.2635C71.6645 23.0075 71.7269 25.7463 71.795 28.4904C71.812 29.1404 71.829 29.1297 72.5154 29.2043C73.9959 29.3642 75.1814 28.8793 76.0946 27.787C76.6392 27.137 77.0419 26.4176 77.3539 25.6557C78.1253 23.7801 78.4714 21.83 78.4714 19.8266C78.4714 18.3986 78.4543 16.9706 78.0346 15.5746C77.6886 14.413 77.2405 13.2941 76.3442 12.3936C75.777 11.8235 75.1077 11.3759 74.2681 11.28C73.4967 11.1894 72.7253 11.2693 71.9708 11.4931C71.7439 11.5624 71.6589 11.6423 71.6589 11.8714C71.6816 14.6741 71.6759 17.4661 71.6759 20.2635Z" fill="#389EAD"/>
<path d="M20.0064 20.6205C19.5583 20.6205 19.1272 20.6311 18.6961 20.6098C18.628 20.6045 18.5316 20.4872 18.5032 20.4073C18.3387 19.9011 18.2139 19.379 18.0267 18.8781C17.8169 18.3027 17.4879 17.7858 17.0397 17.3382C16.5633 16.8587 15.962 16.6562 15.2927 16.6189C14.1355 16.5496 12.9727 16.5017 11.8098 16.4431C11.7815 16.4431 11.7588 16.4537 11.6964 16.4697C11.6964 16.5603 11.6964 16.6562 11.6964 16.7468C11.7701 19.2031 11.8098 21.6648 11.929 24.1211C11.9743 25.011 12.2012 25.8901 12.3657 26.7693C12.3998 26.9665 12.5075 27.1529 12.5926 27.3394C12.9954 28.2346 13.7498 28.6768 14.7538 28.7994C15.2473 28.858 15.7408 28.9646 16.2343 29.0445C16.4442 29.0765 16.5519 29.1777 16.5633 29.3802C16.5689 29.4441 16.586 29.5027 16.5916 29.5667C16.6881 30.286 16.586 30.4085 15.8315 30.4085C10.6924 30.4085 5.54756 30.4032 0.408409 30.4085C0.141808 30.4085 0.0567226 30.3233 0.0283609 30.0782C-0.0623968 29.167 -8.9372e-07 29.0765 0.947282 28.9113C1.22523 28.8633 1.50317 28.8047 1.78112 28.7568C2.89857 28.5756 3.60762 27.9255 3.89123 26.9398C4.12947 26.1246 4.29397 25.2774 4.35069 24.4302C4.69104 19.4802 4.60028 14.5249 4.53221 9.57491C4.50952 8.067 4.46981 6.55377 4.1862 5.06718C4.1238 4.73682 4.02737 4.4118 3.9196 4.0921C3.54522 2.9625 2.72273 2.31778 1.47481 2.15793C1.02102 2.09399 0.561562 2.03538 0.0680673 1.97144C0.0510503 1.54518 0.0226885 1.11891 0.0170162 0.687321C0.0170162 0.644694 0.141808 0.56477 0.209876 0.559442C0.606941 0.5328 1.00401 0.516815 1.40107 0.516815C8.79215 0.516815 16.1832 0.522143 23.5743 0.527472C24.1699 0.527472 24.7655 0.538128 25.3611 0.527472C25.554 0.522143 25.6334 0.586083 25.6447 0.767245C25.6731 1.51321 25.7185 2.25917 25.7355 2.9998C25.7752 4.94463 25.7922 6.88945 25.8319 8.83428C25.8376 9.02077 25.7695 9.10069 25.5823 9.14332C25.2987 9.20726 25.0208 9.29784 24.7371 9.36711C24.3287 9.46302 24.2153 9.42039 24.0508 9.05807C23.7615 8.424 23.5006 7.77395 23.1999 7.14521C22.7972 6.29801 22.298 5.5041 21.64 4.81142C20.4999 3.61255 19.0875 2.94652 17.3631 2.91455C15.65 2.8879 13.9426 2.8879 12.2296 2.86659C12.0367 2.86659 11.963 2.91455 11.9573 3.10104C11.8836 5.30162 11.7872 7.50221 11.7361 9.70279C11.6964 11.2267 11.7077 12.7559 11.6964 14.2851C11.6964 14.381 11.6964 14.4769 11.6964 14.5888C11.7645 14.6048 11.8155 14.6208 11.8666 14.6208C13.0294 14.5728 14.1866 14.5409 15.3494 14.4769C16.2286 14.429 16.8923 13.9867 17.4028 13.3367C17.953 12.6334 18.2026 11.8181 18.4238 10.9869C18.5599 10.4754 18.5599 10.4754 19.1102 10.4647C19.3824 10.4594 19.6604 10.4488 19.9326 10.4434C19.9497 10.4434 19.9667 10.4541 20.0064 10.4647C20.0064 13.8429 20.0064 17.2317 20.0064 20.6205Z" fill="#389EAD"/>
<path d="M44.7379 19.8479C44.7832 21.6435 44.4032 23.6523 43.3708 25.5225C41.7939 28.3785 39.3151 30.1581 35.9627 30.7442C33.7108 31.1385 31.4192 31.1279 29.2183 30.3712C26.2403 29.3482 24.289 27.3661 23.251 24.5687C22.5192 22.6026 22.3264 20.5725 22.5022 18.5051C22.6384 16.8693 23.0241 15.2975 23.8636 13.8482C25.571 10.9123 28.1632 9.12733 31.7028 8.59451C33.881 8.26948 36.0194 8.39203 38.1012 9.10602C41.0565 10.1184 42.9284 12.1218 43.9551 14.8712C44.5166 16.3845 44.7776 17.9457 44.7379 19.8479ZM29.553 19.1285C29.553 20.045 29.5189 20.9561 29.5586 21.8726C29.621 23.3858 29.9273 24.8671 30.4605 26.3004C30.7839 27.1583 31.2036 27.9735 31.9183 28.6129C32.9564 29.5453 34.3915 29.5773 35.4806 28.7035C36.1159 28.192 36.5186 27.5366 36.8022 26.8119C37.3922 25.32 37.5623 23.7588 37.6531 22.187C37.7495 20.4926 37.7495 18.7982 37.5964 17.1038C37.4772 15.809 37.273 14.5302 36.8136 13.2994C36.4335 12.287 35.9003 11.3759 35.0211 10.6619C34.5787 10.3049 34.0738 10.1237 33.4953 10.0971C32.4232 10.0491 31.6517 10.518 31.0732 11.3226C30.5116 12.1005 30.228 12.9797 30.0011 13.8802C29.5643 15.6172 29.5189 17.3702 29.553 19.1285Z" fill="#389EAD"/>
<path d="M107.463 18.8568C102.993 18.8568 98.5458 18.8568 94.0817 18.8568C94.0817 20.0983 94.1838 21.2759 94.5411 22.4268C94.8418 23.3965 95.2275 24.329 95.9195 25.1176C97.054 26.407 98.4324 27.3448 100.259 27.5526C102.244 27.7764 104.144 27.6165 105.852 26.5136C105.954 26.4496 106.062 26.3963 106.169 26.3377C106.391 26.2099 106.584 26.1193 106.81 26.3644C107.156 26.7374 107.259 26.9665 107.02 27.2222C106.538 27.7337 106.05 28.2453 105.494 28.6769C103.589 30.1634 101.371 30.8774 98.8918 30.9361C97.1504 30.9787 95.4601 30.8082 93.8491 30.1528C90.9108 28.9593 89.0049 26.8812 87.9158 24.0839C87.2862 22.4641 87.2125 20.791 87.2522 19.0966C87.3032 16.9386 87.9272 14.9299 89.1411 13.0969C90.7407 10.6726 93.072 9.21793 96.0386 8.65313C97.7687 8.32811 99.4988 8.32278 101.206 8.77568C103.634 9.41508 105.313 10.8963 106.345 13.0277C107.196 14.786 107.525 16.6456 107.497 18.5691C107.485 18.649 107.474 18.7183 107.463 18.8568ZM100.656 16.912C100.594 15.4467 100.52 14.0347 100.14 12.66C99.9696 12.0579 99.7597 11.4718 99.3797 10.9496C99.079 10.5447 98.7103 10.225 98.1715 10.1344C97.4794 10.0225 96.8782 10.2356 96.4187 10.6885C96.016 11.0882 95.6529 11.5464 95.375 12.0313C94.7113 13.2035 94.422 14.4929 94.2235 15.7984C94.1611 16.198 94.1384 16.6029 94.0874 17.0505C96.3052 17.0079 98.4607 16.9599 100.656 16.912Z" fill="#389EAD"/>
<path d="M108.739 26.5189C108.739 25.5438 108.745 24.5634 108.733 23.5883C108.728 23.3805 108.801 23.2739 109 23.2207C109.074 23.1994 109.142 23.1727 109.216 23.1567C109.919 22.9916 109.942 23.0022 110.208 23.6203C110.73 24.8351 111.331 26.002 112.233 27.0144C113.521 28.453 115.166 28.9592 117.1 28.6715C118.507 28.4637 119.59 27.2329 119.675 25.8262C119.743 24.7392 119.307 23.8974 118.348 23.2846C117.446 22.7038 116.442 22.3149 115.444 21.9152C114.508 21.5423 113.544 21.2119 112.642 20.7697C110.339 19.6347 109.181 17.8391 109.164 15.3668C109.142 12.2604 111.433 10.0598 113.714 9.18062C115.41 8.52524 117.185 8.36006 118.995 8.45597C120.668 8.54655 122.319 8.77034 123.913 9.28185C124.707 9.53761 124.701 9.53761 124.718 10.3209C124.758 11.8767 124.792 13.4273 124.837 14.9831C124.843 15.1803 124.786 15.2762 124.576 15.3455C123.703 15.6385 123.674 15.6385 123.34 14.8286C122.926 13.8162 122.472 12.8252 121.757 11.9567C120.884 10.9017 119.738 10.3209 118.325 10.2196C116.777 10.1077 115.415 11.248 115.234 12.7186C115.086 13.9388 115.557 14.8393 116.584 15.5426C117.52 16.1873 118.564 16.6456 119.619 17.0771C120.85 17.578 122.092 18.0522 123.221 18.7449C124.525 19.5388 125.512 20.5832 125.801 22.0431C126.318 24.6486 125.813 27.0144 123.629 28.874C122.54 29.8011 121.218 30.3073 119.817 30.6696C118.853 30.9147 117.872 30.8828 116.89 30.9254C114.462 31.0426 112.108 30.6749 109.794 30.0249C108.904 29.7745 108.887 29.7691 108.864 28.9166C108.841 28.1174 108.858 27.3181 108.858 26.5189C108.83 26.5189 108.784 26.5189 108.739 26.5189Z" fill="#389EAD"/>
<path d="M61.1707 14.9725C60.7623 14.802 60.3822 14.6528 60.0022 14.4929C59.1457 14.136 58.2551 13.9068 57.3135 13.9441C56.5194 13.9708 55.7649 14.1466 55.0616 14.5089C54.6475 14.7221 54.4546 15.0204 54.4433 15.4734C54.3412 18.7343 54.3298 21.9899 54.517 25.2454C54.5624 25.9807 54.6588 26.7107 54.8006 27.4354C54.9198 28.0321 55.2374 28.549 55.8897 28.7674C56.2244 28.8793 56.5874 28.9166 56.9448 28.9646C57.3248 29.0179 57.7162 29.0339 58.0963 29.0871C58.1757 29.0978 58.2948 29.199 58.3005 29.263C58.3175 29.6306 58.3118 30.0036 58.3118 30.3926C58.1984 30.4032 58.1133 30.4139 58.0339 30.4139C53.7512 30.4139 49.4686 30.4139 45.186 30.4086C44.6868 30.4086 44.6812 30.3979 44.6812 29.9343C44.6812 29.1351 44.6812 29.1351 45.5093 28.9806C46.9501 28.7195 47.5514 28.1653 47.6308 26.796C47.7556 24.5101 47.8293 22.219 47.852 19.9278C47.8747 18.1268 47.8123 16.3259 47.7442 14.5249C47.7215 13.9548 47.6138 13.3793 47.4663 12.8199C47.2791 12.1059 46.7686 11.6636 45.9688 11.5464C45.6171 11.4931 45.2597 11.4292 44.9137 11.3439C44.8173 11.3173 44.6982 11.1947 44.6868 11.1042C44.5791 10.4061 44.6471 10.3102 45.3789 10.177C48.3115 9.62822 51.2497 9.0794 54.1823 8.53059C54.3128 8.50928 54.4433 8.50927 54.6191 8.49329C54.5624 9.9639 54.5113 11.4079 54.4546 12.8518C54.4716 12.8572 54.483 12.8625 54.5 12.8678C54.6021 12.7026 54.6985 12.5321 54.8006 12.367C55.521 11.1681 56.3946 10.1078 57.6425 9.34582C59.174 8.40804 60.819 8.18425 62.5774 8.61584C62.6115 8.6265 62.6512 8.63715 62.6852 8.64781C63.5247 8.90357 63.5985 9.01546 63.2978 9.77208C62.6625 11.3812 62.0045 12.9904 61.3579 14.5995C61.3182 14.7008 61.2558 14.8073 61.1707 14.9725Z" fill="#389EAD"/>
</g>
<defs>
<clipPath id="clip0_16_20">
<rect width="126" height="31" fill="white"/>
</clipPath>
</defs>
</svg>
