<svg width="130" height="48" viewBox="0 0 130 48" fill="none" xmlns="http://www.w3.org/2000/svg">
<g clip-path="url(#clip0_12_96)">
<path d="M103.41 40.7467C103.545 39.4861 103.661 38.3418 103.776 37.1394C102.754 37.3915 101.81 37.6437 100.807 37.8958C100.923 38.7297 101.019 39.5443 101.135 40.3782C99.9778 41.1733 98.9173 41.7552 97.394 41.4255C94.386 40.7467 91.3394 40.3006 88.1964 39.7188C88.0614 38.8461 87.9457 37.9733 87.7915 36.9843C87.2323 37.2558 86.7309 37.5273 86.1525 37.8182C85.7668 37.1588 85.3812 36.4994 85.0148 35.8594C84.9184 35.8594 84.8413 35.8206 84.8027 35.8594C83.7422 36.6352 82.6046 36.6352 81.3512 36.383C78.8639 35.8982 76.3572 35.5685 73.6963 35.1418C73.8891 33.8618 74.0626 32.64 74.2361 31.4182C72.6936 32 71.1896 32.5818 69.5699 33.183C69.5699 35.4133 69.5699 37.76 69.5699 40.2037C68.8372 40.6109 68.1044 41.0182 67.2946 41.4643C62.262 38.9624 57.21 36.4412 52.0617 33.8618C52.0617 35.6461 52.0617 37.314 52.0617 39.04C50.9241 39.6218 49.9214 40.32 48.6102 40.4752C46.2192 40.7467 43.8475 41.154 41.3601 41.5418C41.2444 40.4946 41.1288 39.5249 41.0131 38.3806C38.7763 40.1455 36.4046 41.3091 33.6087 41.154C30.755 40.9988 28.5568 39.6606 26.8793 37.3333C27.4192 39.4085 27.9591 41.503 28.499 43.5976C27.3806 44.354 26.3972 45.1297 25.1246 45.5176C22.8493 46.177 20.6126 46.9721 18.3566 47.7091C18.0481 47.8061 17.7588 47.8837 17.3539 48C14.2495 40.9212 11.1644 33.8812 8.04066 26.7637C7.28865 27.0546 6.61378 27.3261 5.84249 27.6558C3.895 24.3588 1.98607 21.0812 0.0578613 17.823C0.752017 17.0861 1.33048 16.2521 2.10177 15.7285C6.63306 12.5867 11.55 10.3952 17.084 9.79396C19.687 9.50305 22.3094 9.58062 24.8161 10.434C28.4218 11.6558 31.1213 13.9249 32.1047 17.7843C32.3554 18.7927 32.2783 19.8982 32.3361 20.9455C32.3554 21.217 32.2976 21.4885 32.2783 21.9152C34.515 20.5188 36.8288 19.8594 39.4512 20.1115C39.4127 19.6849 39.3741 19.3164 39.3162 18.9285C38.6414 19.0837 38.0629 19.2 37.3109 19.3552C37.1952 17.1637 37.0795 15.0497 36.9638 12.8582C37.8701 12.4121 38.7185 11.8691 39.6633 11.5588C43.3076 10.337 46.9905 9.17335 50.6541 8.00971C50.7698 7.97092 50.9048 7.97092 51.0976 7.95153C51.1362 8.33941 51.1747 8.70789 51.2133 9.0182C52.0232 8.57214 52.833 8.12608 53.6814 7.66062C56.1302 9.83274 58.5212 11.9661 60.9893 14.1576C61.4907 13.8861 61.9727 13.634 62.5319 13.3237C62.0306 12.6837 61.5871 12.1406 61.0857 11.4812C61.8377 10.5891 62.5898 9.67759 63.361 8.78547C65.2892 6.57456 67.256 4.38305 69.1264 2.13335C69.9748 1.10547 71.0353 0.543046 72.2887 0.0194092C73.9083 2.46305 75.5473 4.88729 77.2442 7.42789C75.0267 8.63032 72.8671 9.81335 70.7268 10.977C73.1178 11.3649 75.2581 12.2182 77.2056 13.8473C77.3791 12.9164 77.5334 12.1406 77.6684 11.3455C78.7867 10.5503 79.9051 9.85214 81.3705 10.0461C82.1032 10.143 82.8552 10.0073 83.588 10.0849C85.1305 10.2206 86.5574 9.9685 87.8686 9.05699C88.1 8.90183 88.4085 8.78547 88.6784 8.76608C91.1851 8.74668 93.6918 8.74668 96.3142 8.74668C96.9119 12.4703 97.4904 16.1552 98.1074 19.9952C99.9585 18.7927 101.925 18.1527 104.085 18.0752C104.085 16.0582 104.085 14.1188 104.085 12.1988C105.261 11.2485 106.437 10.8218 107.999 11.2485C111.065 12.063 114.189 12.6643 117.293 13.3624C117.582 13.4206 117.852 13.5176 118.142 13.5952C118.257 13.983 118.373 14.3321 118.508 14.7394C119.009 14.4873 119.472 14.2546 120.031 13.983C123.309 14.7782 126.664 15.6121 130.135 16.4655C129.711 17.823 129.306 19.0643 128.901 20.3055C126.201 28.4897 123.502 36.6546 120.802 44.8388C120.301 46.3903 118.643 47.263 117.12 46.7588C115.018 46.08 112.916 45.4012 110.718 44.6837C110.718 43.7333 110.718 42.8024 110.718 41.8134C108.153 41.4449 105.84 41.1152 103.41 40.7467ZM25.5102 42.0267C24.5076 38.1285 23.5435 34.3661 22.5794 30.6424C23.0229 30.3321 23.3507 30.1188 23.6592 29.8861C25.9923 28.1988 27.8819 26.1237 29.0582 23.4667C30.755 19.6267 29.6559 16.097 26.1658 13.8085C24.1605 12.5091 21.9238 12.16 19.6485 12.1406C14.423 12.1018 9.7182 13.8861 5.3026 16.5624C5.22547 16.6012 5.20619 16.7176 5.12906 16.8533C6.2667 18.7733 7.40435 20.6933 8.54199 22.6327C9.42897 22.2255 10.2003 21.8764 10.9908 21.5079C14.3073 28.897 17.5467 36.1697 20.8247 43.5394C22.4251 43.0158 23.9484 42.5309 25.5102 42.0267ZM108.173 34.4437C108.096 35.5297 107.999 36.5576 107.922 37.663C109.407 37.8958 110.814 38.1091 112.26 38.3224C112.897 34.7733 113.495 31.3988 114.112 28.0049C114.227 28.0243 114.343 28.0243 114.459 28.0437C114.574 32.6206 114.69 37.217 114.806 41.8521C116.194 42.2594 117.467 42.6473 118.816 43.0546C121.554 34.6958 124.293 26.3952 127.05 17.9782C125.102 17.5515 123.232 17.1443 121.304 16.7176C120.417 20.383 119.568 23.9127 118.701 27.4618C118.624 27.4618 118.566 27.4618 118.489 27.4618C118.064 25.4643 117.621 23.4473 117.197 21.4497C116.772 19.4327 116.368 17.4352 115.943 15.4182C113.379 14.8946 110.891 14.4097 108.346 13.8861C108.346 14.5843 108.346 15.2243 108.346 15.8837C108.867 16.0582 109.368 16.2327 109.908 16.4073C109.792 17.7649 109.677 19.0449 109.561 20.3249C113.321 23.9515 112.82 30.2158 108.173 34.4437ZM52.2353 23.874C54.6841 21.2558 57.0558 18.7346 59.466 16.1746C57.7499 14.5261 56.0917 12.9358 54.3756 11.2873C52.6209 13.7503 50.9241 16.1358 49.2272 18.5018C49.1501 18.463 49.073 18.4243 48.9959 18.3855C48.8416 16.0388 48.6873 13.6921 48.5331 11.2873C46.065 12.0243 43.7704 12.7224 41.418 13.4206C41.4566 14.0412 41.4758 14.5649 41.5144 15.1855C42.2471 15.0497 42.8449 14.9334 43.5005 14.7976C43.6354 16.1358 43.7511 17.3964 43.8668 18.6376C43.9825 19.9176 44.0596 21.1976 44.1561 22.4388C46.7784 25.1346 47.6268 29.44 45.1202 33.9976C45.2358 35.1612 45.3323 36.383 45.448 37.663C46.952 37.4497 48.3403 37.2558 49.825 37.0424C49.825 33.9976 49.825 31.0109 49.825 27.8885C55.6675 30.817 61.3557 33.6679 67.121 36.577C67.121 34.8897 67.121 33.4158 67.121 31.903C66.8897 31.8449 66.6776 31.7479 66.4655 31.7285C63.4189 31.2243 61.0086 29.7503 59.3118 27.1515C59.119 26.8606 58.7719 26.5891 58.4441 26.4533C56.8244 25.7746 55.1661 25.1346 53.5464 24.4752C53.1608 24.2812 52.7559 24.1067 52.2353 23.874ZM92.5542 36.6158C94.4824 36.9067 96.3335 37.1782 98.2809 37.4691C98.2424 36.9649 98.2231 36.6352 98.2038 36.2861C97.9339 36.1309 97.7218 36.0146 97.4904 35.8982C94.6559 34.2303 93.2869 31.6897 93.3254 28.4509C93.3447 26.24 94.1739 24.223 95.5236 22.4776C95.8514 22.0703 95.9671 21.6824 95.8707 21.1588C95.5429 19.1806 95.2729 17.2024 94.9644 15.2437C94.7523 13.8861 94.5402 12.5285 94.3088 11.1709C92.9784 11.1709 91.725 11.1709 90.4138 11.1709C89.8932 13.983 89.3919 16.7758 88.8905 19.5685C88.8134 19.5685 88.7363 19.5491 88.6592 19.5491C88.2157 17.1637 87.7722 14.7782 87.3287 12.4121C85.4198 12.4121 83.6265 12.4121 81.814 12.4121C81.197 16.1358 80.58 19.8206 79.9822 23.4085C80.6185 23.9903 81.1391 24.4946 81.7176 25.0182C80.8692 25.9103 80.0979 26.7249 79.2881 27.5782C79.0567 29.0327 78.806 30.5455 78.5553 32.1358C80.445 32.4655 82.1997 32.7564 83.9736 33.0473C84.4171 30.2352 84.8413 27.5976 85.2848 24.96C85.3619 24.96 85.4391 24.96 85.5162 24.9406C86.5574 27.1709 87.5986 29.4012 88.717 31.7867C89.469 29.8861 90.1246 28.1794 90.7995 26.4921C90.8766 26.5115 90.9537 26.5309 91.0501 26.5309C91.5322 29.8279 92.0335 33.1637 92.5542 36.6158ZM76.3186 16.5624C75.4316 15.4764 74.4097 14.72 73.2142 14.2158C69.7048 12.7418 65.2314 13.6727 62.4741 16.5043C60.2952 18.754 59.7938 21.4303 60.7001 24.3782C61.5871 27.2097 63.7081 28.6837 66.504 29.2849C69.0878 29.8279 71.5367 29.2073 73.8891 28.2182C75.5281 27.5394 76.9742 26.5503 78.2083 25.1733C76.9742 24.0679 75.7787 23.0012 74.6218 21.954C72.0766 24.0873 70.7461 24.6303 69.2614 24.1649C71.6331 21.6049 73.9662 19.103 76.3186 16.5624ZM35.7683 37.3527C36.3468 37.2752 36.9253 37.2752 37.4652 37.12C41.4373 35.9952 43.809 33.3964 44.5224 29.3043C45.1587 25.6776 42.5749 22.3224 38.9306 22.0121C34.4957 21.6243 30.2344 25.1152 29.4052 29.7115C28.7111 33.5515 31.5841 37.5079 35.7683 37.3527ZM101.597 34.7733C105.627 34.754 109.522 31.263 110.004 27.2485C110.506 22.9237 107.324 19.937 103.314 20.2861C99.7849 20.577 96.5648 23.4085 95.6586 26.8606C94.5402 31.0691 97.3168 34.7733 101.597 34.7733ZM66.9475 10.4727C69.4156 9.23153 71.768 8.0485 74.2361 6.82668C73.3685 5.64365 72.5779 4.57699 71.7295 3.41335C70.0905 5.39153 68.5094 7.29214 66.9282 9.21214C66.7933 9.38668 66.6583 9.56123 66.504 9.77456C66.639 9.9879 66.774 10.2012 66.9475 10.4727ZM58.0777 23.8933C58.0199 22.943 57.962 22.1479 57.8849 21.1006C57.21 21.8764 56.6894 22.497 56.1302 23.137C56.6894 23.3309 57.3257 23.583 58.0777 23.8933Z" fill="#389EAD"/>
<path d="M21.6731 28.1212C20.7861 25.1927 19.957 22.4582 19.1279 19.7624C20.4776 18.5988 22.8879 18.5212 24.3148 19.5103C25.7031 20.48 26.1851 22.3612 25.491 24.2037C24.8161 26.0267 23.3507 27.0352 21.6731 28.1212ZM22.6565 25.0376C23.4856 24.2037 23.7556 23.68 23.8327 22.943C24.0062 21.4109 23.1578 20.6352 21.4417 20.9261C21.8466 22.2449 22.2323 23.5637 22.6565 25.0376Z" fill="#389EAD"/>
<path d="M66.1955 24.3588C64.8265 23.5636 64.0937 21.9733 64.3251 20.3636C64.5565 18.7152 65.8484 17.28 67.5067 16.8921C69.1071 16.5042 70.6689 17.0279 71.5559 18.2885C69.7627 20.3055 67.9694 22.3418 66.1955 24.3588ZM66.1376 22.1479C67.1982 20.9067 68.143 19.8012 69.1264 18.657C68.2587 18.2497 67.3717 18.463 66.6197 19.1806C65.8291 19.9758 65.7327 20.9067 66.1376 22.1479Z" fill="#389EAD"/>
<path d="M38.0243 23.7188C36.906 24.3976 36.1154 25.0958 36.5011 26.3564C36.7903 27.2873 37.7351 27.8303 38.8728 27.7721C40.0683 27.7139 40.6467 27.1321 41.0902 25.5418C41.9193 26.8412 41.7651 28.4315 40.666 29.5952C39.3741 30.9721 37.3109 31.2436 35.6334 30.2739C34.2065 29.44 33.5123 27.6752 34.033 26.1042C34.515 24.5915 36.0769 23.583 38.0243 23.7188Z" fill="#389EAD"/>
<path d="M103.641 21.8376C102.176 22.6327 101.79 23.2339 101.945 24.2618C102.08 25.1152 102.889 25.8133 103.931 25.9685C105.049 26.1236 105.878 25.5224 106.592 23.9709C107.324 24.96 107.112 26.5891 106.109 27.6946C104.875 29.0521 102.716 29.3624 101.077 28.3927C99.5729 27.5006 98.8787 25.6582 99.4957 24.0485C100.074 22.4776 101.752 21.5467 103.641 21.8376Z" fill="#389EAD"/>
<path d="M122.808 43.5006H122.364V43.2485H123.541V43.4812H123.097V44.8H122.808V43.5006Z" fill="#389EAD"/>
<path d="M125.045 44.1794C125.045 43.9855 125.025 43.7334 125.025 43.52C124.967 43.714 124.91 43.9273 124.832 44.1212L124.601 44.8H124.389L124.177 44.1212C124.119 43.9273 124.061 43.714 124.023 43.52C124.023 43.7334 124.003 43.9661 124.003 44.1794L123.965 44.8194H123.695L123.791 43.2485H124.158L124.37 43.8885C124.427 44.0631 124.466 44.257 124.505 44.4315C124.543 44.257 124.601 44.0631 124.659 43.8885L124.871 43.2679H125.237L125.334 44.8388H125.064L125.045 44.1794Z" fill="#389EAD"/>
</g>
<defs>
<clipPath id="clip0_12_96">
<rect width="130" height="48" fill="white"/>
</clipPath>
</defs>
</svg>
